<svg width="80" height="80" viewBox="0 0 68 79" fill="none" xmlns="http://www.w3.org/2000/svg">
    <path
        d="M24.4121 6.13672H42.8199V15.3406C42.8199 17.035 41.4463 18.4086 39.7519 18.4086H27.4801C25.7857 18.4086 24.4121 17.035 24.4121 15.3406V6.13672Z"
        fill="#5E5E5E" />
    <path fill-rule="evenodd" clip-rule="evenodd"
        d="M47.2848 1.63515C48.2799 1.8874 48.955 2.79663 48.955 3.8232C48.955 5.10073 47.9194 6.13637 46.6418 6.13637H20.5884C19.311 6.13637 18.2754 5.1008 18.2754 3.82336C18.2754 2.79687 18.9504 1.88771 19.9454 1.63546C24.0791 0.587492 28.7166 0 33.6157 0C38.5144 0 43.1515 0.587375 47.2848 1.63515Z"
        fill="#5E5E5E" />
    <path
        d="M24.4121 72.8633L42.8199 72.8633L42.8199 63.6594C42.8199 61.965 41.4463 60.5914 39.7519 60.5914L27.4801 60.5914C25.7857 60.5914 24.4121 61.965 24.4121 63.6594L24.4121 72.8633Z"
        fill="#5E5E5E" />
    <path fill-rule="evenodd" clip-rule="evenodd"
        d="M47.2848 77.3649C48.2799 77.1126 48.955 76.2034 48.955 75.1768C48.955 73.8993 47.9194 72.8636 46.6418 72.8636L20.5884 72.8636C19.311 72.8636 18.2754 73.8992 18.2754 75.1766C18.2754 76.2031 18.9504 77.1123 19.9454 77.3645C24.0791 78.4125 28.7166 79 33.6157 79C38.5144 79 43.1515 78.4126 47.2848 77.3649Z"
        fill="#5E5E5E" />
    <rect x="2.16972" y="71.3293" width="63.6602" height="63.6602" rx="31.8301"
        transform="rotate(-90 2.16972 71.3293)" fill="white" />
    <rect x="2.16972" y="71.3293" width="63.6602" height="63.6602" rx="31.8301"
        transform="rotate(-90 2.16972 71.3293)" stroke="#93A3B0" stroke-width="3.06796" />
</svg>
