<svg xmlns="http://www.w3.org/2000/svg" width="41.949" height="53.855" viewBox="0 0 41.949 53.855">
  <g id="svgexport-9" transform="translate(0.25 0.266)">
    <path id="Path_1488" data-name="Path 1488" d="M56.24,8.661,51.2,5.107a.6.6,0,0,0-.681,0L45.831,8.419,41.138,5.107a.6.6,0,0,0-.681,0L35.765,8.419,31.072,5.107a.6.6,0,0,0-.681,0L25.7,8.419,21.006,5.107a.6.6,0,0,0-.681,0L15.289,8.661a.585.585,0,0,0-.249.486V54.175a.609.609,0,0,0,.249.486l5.036,3.555a.6.6,0,0,0,.681,0L25.7,54.9l4.692,3.312a.6.6,0,0,0,.681,0L35.765,54.9l4.692,3.312a.6.6,0,0,0,.681,0L45.831,54.9l4.692,3.312a.6.6,0,0,0,.681,0l5.036-3.555a.585.585,0,0,0,.249-.486V9.147A.609.609,0,0,0,56.24,8.661ZM55.3,53.867,50.861,57l-4.692-3.312a.6.6,0,0,0-.681,0L40.795,57,36.1,53.689a.6.6,0,0,0-.681,0L30.729,57l-4.692-3.312a.6.6,0,0,0-.681,0L20.663,57l-4.444-3.134V9.455l4.444-3.134,4.692,3.312a.6.6,0,0,0,.681,0l4.692-3.312,4.692,3.312a.6.6,0,0,0,.681,0l4.692-3.312,4.692,3.312a.6.6,0,0,0,.681,0l4.692-3.312L55.3,9.455Z" transform="translate(-15.04 -5)" fill="#050505" stroke="#000" stroke-width="0.5"/>
    <path id="Path_1489" data-name="Path 1489" d="M30.517,21.185H48.291a.592.592,0,0,0,0-1.185H30.517a.592.592,0,1,0,0,1.185Zm-5.925,2.37a.592.592,0,0,0,0,1.185H54.216a.592.592,0,1,0,0-1.185ZM54.216,27.11H24.592a.592.592,0,0,0,0,1.185H54.216a.592.592,0,1,0,0-1.185ZM39.4,35.4a5.109,5.109,0,0,1,5.332,4.84.592.592,0,0,0,1.185,0,6.239,6.239,0,0,0-5.925-6V32.442a.592.592,0,1,0-1.185,0v1.807a6.239,6.239,0,0,0-5.925,6c0,3.134,3.531,3.685,6.642,4.266,3.146.587,5.208,1.09,5.208,2.642a5.113,5.113,0,0,1-5.332,4.84,5.109,5.109,0,0,1-5.332-4.84.592.592,0,0,0-1.185,0,6.239,6.239,0,0,0,5.925,6v1.807a.592.592,0,0,0,1.185,0V53.149a6.239,6.239,0,0,0,5.925-6c0-2.654-3.14-3.241-6.174-3.81-3.43-.64-5.676-1.2-5.676-3.1A5.113,5.113,0,0,1,39.4,35.4Z" transform="translate(-18.691 -11.113)" fill="#050505" stroke="#000" stroke-width="0.5"/>
  </g>
</svg>
