<svg xmlns="http://www.w3.org/2000/svg" width="48.784" height="56.856" viewBox="0 0 48.784 56.856">
  <g id="Group_562" data-name="Group 562" transform="translate(-7903.847 -2213.593)">
    <g id="svgexport-9" transform="translate(7904.097 2213.858)">
      <path id="Path_1488" data-name="Path 1488" d="M63.035,8.868,57.168,5.113a.755.755,0,0,0-.794,0l-5.466,3.5-5.466-3.5a.755.755,0,0,0-.794,0l-5.466,3.5-5.466-3.5a.755.755,0,0,0-.794,0l-5.466,3.5-5.466-3.5a.755.755,0,0,0-.794,0L15.33,8.868a.6.6,0,0,0-.29.513V56.944a.627.627,0,0,0,.29.513L21.2,61.213a.755.755,0,0,0,.794,0l5.466-3.5,5.466,3.5a.755.755,0,0,0,.794,0l5.466-3.5,5.466,3.5a.755.755,0,0,0,.794,0l5.466-3.5,5.466,3.5a.755.755,0,0,0,.794,0l5.866-3.755a.6.6,0,0,0,.29-.513V9.381A.627.627,0,0,0,63.035,8.868Zm-1.09,47.751L56.768,59.93l-5.466-3.5a.755.755,0,0,0-.794,0l-5.466,3.5-5.466-3.5a.755.755,0,0,0-.794,0l-5.466,3.5-5.466-3.5a.755.755,0,0,0-.794,0l-5.466,3.5-5.176-3.311V9.706L21.59,6.4l5.466,3.5a.755.755,0,0,0,.794,0l5.466-3.5,5.466,3.5a.755.755,0,0,0,.794,0l5.466-3.5,5.466,3.5a.755.755,0,0,0,.794,0l5.466-3.5,5.176,3.311Z" transform="translate(-15.04 -5)" stroke="#000" stroke-width="0.5"/>
      <g id="Group_564" data-name="Group 564">
        <path id="Path_1489" data-name="Path 1489" d="M30.884,21.252H49.659a.626.626,0,0,0,0-1.252H30.884a.626.626,0,0,0,0,1.252Zm-6.258,2.5a.626.626,0,1,0,0,1.252H55.918a.626.626,0,0,0,0-1.252ZM55.918,27.51H24.626a.626.626,0,1,0,0,1.252H55.918a.626.626,0,0,0,0-1.252Z" transform="translate(-18.393 -10.613)" stroke="#000" stroke-width="0.5"/>
        <path id="Path_1491" data-name="Path 1491" d="M30.884,21.252H49.659a.626.626,0,0,0,0-1.252H30.884a.626.626,0,0,0,0,1.252Zm-6.258,2.5a.626.626,0,1,0,0,1.252H55.918a.626.626,0,0,0,0-1.252ZM55.918,27.51H24.626a.626.626,0,1,0,0,1.252H55.918a.626.626,0,0,0,0-1.252Z" transform="translate(-13.506 -10.613)" stroke="#000" stroke-width="0.5"/>
      </g>
    </g>
    <g id="Group_563" data-name="Group 563" transform="translate(-1)">
      <path id="Path_1493" data-name="Path 1493" d="M44.475,42.986a4.292,4.292,0,0,1,4.479,4.066.5.5,0,1,0,1,0,5.241,5.241,0,0,0-4.977-5.037V40.5a.5.5,0,1,0-1,0v1.518A5.241,5.241,0,0,0,39,47.052c0,2.633,2.966,3.1,5.579,3.583,2.643.493,4.375.916,4.375,2.22a4.5,4.5,0,0,1-8.958,0,.5.5,0,0,0-1,0,5.241,5.241,0,0,0,4.977,5.037V59.41a.5.5,0,0,0,1,0V57.892a5.241,5.241,0,0,0,4.977-5.037c0-2.23-2.638-2.722-5.186-3.2C41.882,49.118,40,48.645,40,47.047a4.3,4.3,0,0,1,4.479-4.066Z" transform="translate(7892.031 2197.074)" stroke="#000" stroke-width="0.5"/>
      <path id="Path_1494" data-name="Path 1494" d="M44.475,42.986a4.292,4.292,0,0,1,4.479,4.066.5.5,0,1,0,1,0,5.241,5.241,0,0,0-4.977-5.037V40.5a.5.5,0,1,0-1,0v1.518A5.241,5.241,0,0,0,39,47.052c0,2.633,2.966,3.1,5.579,3.583,2.643.493,4.375.916,4.375,2.22a4.5,4.5,0,0,1-8.958,0,.5.5,0,0,0-1,0,5.241,5.241,0,0,0,4.977,5.037V59.41a.5.5,0,0,0,1,0V57.892a5.241,5.241,0,0,0,4.977-5.037c0-2.23-2.638-2.722-5.186-3.2C41.882,49.118,40,48.645,40,47.047a4.3,4.3,0,0,1,4.479-4.066Z" transform="translate(7878.155 2197.074)" stroke="#000" stroke-width="0.5"/>
    </g>
  </g>
</svg>
