<svg width="17" height="16" viewBox="0 0 17 16" fill="none" xmlns="http://www.w3.org/2000/svg">
    <g id="check-circle 2" clip-path="url(#clip0_1611_6768)">
        <path id="Vector"
            d="M12.6427 6.06533C12.9007 6.328 12.8967 6.75 12.6333 7.008L9.68267 9.90467C9.16067 10.4167 8.48867 10.672 7.816 10.672C7.15067 10.672 6.48533 10.4213 5.96533 9.91933L4.69933 8.67467C4.43667 8.41667 4.43333 7.99467 4.69133 7.732C4.94867 7.46867 5.372 7.46533 5.634 7.724L6.896 8.96467C7.41333 9.46467 8.23 9.462 8.75 8.95267L11.7 6.05667C11.962 5.798 12.3827 5.80267 12.6427 6.06533ZM16.5 8C16.5 12.4113 12.9113 16 8.5 16C4.08867 16 0.5 12.4113 0.5 8C0.5 3.58867 4.08867 0 8.5 0C12.9113 0 16.5 3.58867 16.5 8ZM15.1667 8C15.1667 4.324 12.176 1.33333 8.5 1.33333C4.824 1.33333 1.83333 4.324 1.83333 8C1.83333 11.676 4.824 14.6667 8.5 14.6667C12.176 14.6667 15.1667 11.676 15.1667 8Z"
            fill="black" />
    </g>
    <defs>
        <clipPath id="clip0_1611_6768">
            <rect width="16" height="16" fill="white" transform="translate(0.5)" />
        </clipPath>
    </defs>
</svg>
