<svg width="30" height="30" viewBox="0 0 30 30" fill="none" xmlns="http://www.w3.org/2000/svg">
    <path
        d="M29.1 11.7008C28.45 6.27578 23.875 2.17578 18.4 2.10078V1.37578C18.4 0.725781 17.875 0.175781 17.2 0.175781C16.525 0.175781 16 0.700781 16 1.37578V2.10078C10.575 2.17578 6 6.27578 5.325 11.7008C4.725 11.9508 4.45 12.6508 4.7 13.2508C4.875 13.6758 5.325 13.9758 5.775 13.9758H5.9C6.1 14.8508 6.875 15.4758 7.775 15.4758H11.4L9 17.3258L8.875 17.1508C8.725 16.9508 8.45 16.9258 8.275 17.0508L7.075 17.9508C6.875 18.1008 6.85 18.3758 6.975 18.5508L7 18.6008L0.4 22.7258C0.2 22.8508 0.125 23.1258 0.25 23.3258L4 29.6008C4.125 29.8258 4.45 29.8758 4.65 29.7258C4.675 29.7008 8.25 26.7758 11.25 24.2258C11.4 24.4008 11.65 24.4258 11.85 24.3008L13.05 23.4008C13.225 23.2758 13.275 23.0258 13.175 22.8258L13.775 22.4508C14.75 21.8508 15.55 22.1508 17 22.1258C17.55 22.1258 18.1 22.0258 18.6 21.7758L26.05 18.0508C27 17.5758 27.375 16.4008 26.875 15.4758C27.675 15.3758 28.325 14.7758 28.5 14.0008H28.625C29.275 14.0008 29.825 13.4758 29.825 12.8258C29.825 12.3258 29.525 11.8758 29.1 11.7008ZM17.2 1.05078C17.375 1.05078 17.525 1.20078 17.525 1.37578V2.10078H16.9V1.37578C16.9 1.20078 17.05 1.07578 17.2 1.05078ZM16.2 2.97578H18.2C23.225 2.95078 27.475 6.65078 28.175 11.6008H6.225C6.95 6.67578 11.175 2.95078 16.2 2.97578ZM4.5 28.7258L1.225 23.2508L7.575 19.3258L10.7 23.5258C8.3 25.5758 5.5 27.8758 4.5 28.7258ZM11.65 23.3258C8.925 19.6508 9.55 20.5258 7.975 18.4008L8.475 18.0258L12.15 22.9508L11.65 23.3258ZM25.65 17.2508L18.2 20.9758C17.825 21.1508 17.425 21.2508 17 21.2508C15.65 21.3008 14.575 20.9508 13.3 21.7008L12.625 22.1258L9.575 18.0258L12.2 16.0008C12.65 15.6508 13.175 15.4758 13.75 15.4758H17.25C17.925 15.4758 18.875 15.7508 18.875 16.4758C18.875 16.8008 18.675 17.1008 18.35 17.2258C17.95 17.3758 17.675 17.4008 17.55 17.4008H14.55C14.3 17.4008 14.1 17.6008 14.1 17.8508C14.1 18.1008 14.3 18.3008 14.55 18.3008H17.425C18.05 18.3008 19.175 18.1258 20.225 17.7508C20.95 17.5008 22.45 16.7508 24.65 15.5258H25.725C26.4 15.8758 26.35 16.9008 25.65 17.2508ZM19.4 15.4758H22.825C21.9 16.0008 20.925 16.4758 19.925 16.8758C19.825 16.9008 19.75 16.9508 19.65 16.9758C19.7 16.8258 19.725 16.6508 19.725 16.4758C19.75 16.1258 19.625 15.7758 19.4 15.4758ZM26.6 14.6008H7.825C7.4 14.6008 7.025 14.3508 6.85 13.9758H27.575C27.4 14.3508 27.025 14.6008 26.6 14.6008ZM28.625 13.1008H5.8C5.625 13.1008 5.475 12.9508 5.475 12.7758C5.475 12.6008 5.625 12.4508 5.8 12.4508H28.625C28.8 12.4508 28.95 12.6008 28.95 12.7758C28.95 12.9508 28.8 13.1008 28.625 13.1008Z"
        fill="#FF6137" />
</svg>
