<svg width="6" height="11" viewBox="0 0 6 11" fill="none" xmlns="http://www.w3.org/2000/svg">
<path d="M0.667439 9.50045C0.666931 9.41271 0.683748 9.32574 0.716925 9.24451C0.750101 9.16329 0.798984 9.08941 0.860772 9.02712L3.92077 5.97378C3.98326 5.91181 4.03285 5.83807 4.0667 5.75683C4.10055 5.67559 4.11797 5.58846 4.11797 5.50045C4.11797 5.41244 4.10055 5.3253 4.0667 5.24406C4.03285 5.16283 3.98326 5.08909 3.92077 5.02712L0.860772 1.97378C0.735236 1.84825 0.664711 1.67798 0.664711 1.50045C0.664711 1.32291 0.735236 1.15265 0.860772 1.02712C0.986308 0.90158 1.15657 0.831055 1.33411 0.831055C1.42201 0.831055 1.50906 0.848369 1.59027 0.88201C1.67149 0.91565 1.74528 0.964957 1.80744 1.02712L4.86077 4.08712C5.22582 4.46708 5.42969 4.97355 5.42969 5.50045C5.42969 6.02735 5.22582 6.53382 4.86077 6.91378L1.80744 9.97378C1.74546 10.0363 1.67173 10.0859 1.59049 10.1197C1.50925 10.1536 1.42211 10.171 1.33411 10.171C1.2461 10.171 1.15896 10.1536 1.07772 10.1197C0.996481 10.0859 0.922747 10.0363 0.860772 9.97378C0.798984 9.91149 0.750101 9.83761 0.716925 9.75639C0.683748 9.67516 0.666931 9.58819 0.667439 9.50045Z" fill="#63625F"/>
</svg>
