<svg xmlns="http://www.w3.org/2000/svg" version="1.1" width="512" height="512" x="0" y="0"
    viewBox="0 0 32 32" style="enable-background:new 0 0 512 512" xml:space="preserve" class=""><g><g data-name="search, bluetooth, device, connecting"><path d="m13.424 16 6.932-5.2a.999.999 0 0 0 0-1.6l-8-6a1 1 0 0 0-1.6.8v10l-4.4-3.3a1 1 0 1 0-1.199 1.6L10.09 16l-4.933 3.7a1 1 0 1 0 1.2 1.6l4.4-3.3v10a1 1 0 0 0 1.6.8l8-6a.999.999 0 0 0 0-1.6zm-.667-10 5.333 4-5.333 4zm0 20v-8l5.333 4z" fill="#000000" data-original="#000000"></path><path
    d="M22.05 13.293a1 1 0 0 0-1.415 1.414 1.83 1.83 0 0 1 0 2.586 1 1 0 1 0 1.415 1.414 3.829 3.829 0 0 0 0-5.413z"
    fill="#000000" data-original="#000000"></path><path
    d="M24.464 9.293a1 1 0 1 0-1.413 1.414 7.483 7.483 0 0 1 0 10.584 1 1 0 1 0 1.414 1.414 9.482 9.482 0 0 0-.001-13.412z"
    fill="#000000" data-original="#000000"></path></g></g></svg>