<svg width="32" height="32" viewBox="0 0 32 32" fill="none" xmlns="http://www.w3.org/2000/svg">
    <g clip-path="url(#clip0_226_5313)">
        <path
            d="M16 16C16.5275 16 17.043 15.8436 17.4816 15.5506C17.9201 15.2576 18.2619 14.8411 18.4637 14.3538C18.6656 13.8666 18.7184 13.3304 18.6155 12.8131C18.5126 12.2958 18.2586 11.8207 17.8857 11.4477C17.5127 11.0748 17.0376 10.8208 16.5203 10.7179C16.003 10.615 15.4668 10.6678 14.9795 10.8697C14.4923 11.0715 14.0758 11.4133 13.7828 11.8518C13.4898 12.2903 13.3334 12.8059 13.3334 13.3333C13.3334 14.0406 13.6143 14.7189 14.1144 15.219C14.6145 15.719 15.2928 16 16 16ZM16 12C16.2637 12 16.5215 12.0782 16.7408 12.2247C16.9601 12.3712 17.131 12.5795 17.2319 12.8231C17.3328 13.0667 17.3592 13.3348 17.3078 13.5935C17.2563 13.8521 17.1293 14.0897 16.9428 14.2761C16.7564 14.4626 16.5188 14.5896 16.2602 14.641C16.0015 14.6925 15.7334 14.6661 15.4898 14.5652C15.2462 14.4643 15.0379 14.2934 14.8914 14.0741C14.7449 13.8548 14.6667 13.597 14.6667 13.3333C14.6667 12.9797 14.8072 12.6406 15.0572 12.3905C15.3073 12.1405 15.6464 12 16 12ZM21.7734 14.1047L21.294 13.9453C21.3803 13.1986 21.3077 12.4421 21.0811 11.7254C20.8545 11.0087 20.4789 10.348 19.979 9.78659C19.4792 9.22521 18.8663 8.77584 18.1805 8.46794C17.4948 8.16004 16.7517 8.00058 16 8C15.2385 8.00029 14.486 8.1638 13.793 8.47949C13.1 8.79518 12.4827 9.25574 11.9828 9.83012C11.4828 10.4045 11.1118 11.0794 10.8946 11.8092C10.6775 12.5391 10.6193 13.3071 10.724 14.0613C10.0861 14.1803 9.49612 14.4813 9.02537 14.928C8.69949 15.2378 8.44042 15.611 8.26409 16.0247C8.08776 16.4383 7.9979 16.8837 8.00004 17.3333V20.05C8.00144 20.7709 8.2359 21.472 8.66843 22.0487C9.10096 22.6254 9.70838 23.0468 10.4 23.25L12.3134 23.85C12.6347 23.95 12.9695 24.0006 13.306 24C13.6114 23.9996 13.9152 23.9579 14.2094 23.876L18.0627 22.736C18.406 22.6423 18.7681 22.6423 19.1114 22.736L20.7027 23.2693C21.0949 23.3648 21.5037 23.37 21.8981 23.2845C22.2926 23.199 22.6626 23.0251 22.9801 22.7758C23.2976 22.5266 23.5543 22.2085 23.731 21.8455C23.9077 21.4826 23.9997 21.0843 24 20.6807V17.248C23.9985 16.5583 23.7837 15.8859 23.3851 15.323C22.9865 14.7602 22.4235 14.335 21.7734 14.1047ZM13.172 10.508C13.5429 10.1357 13.9836 9.84021 14.4689 9.63862C14.9542 9.43703 15.4745 9.33325 16 9.33325C16.5255 9.33325 17.0459 9.43703 17.5312 9.63862C18.0165 9.84021 18.4572 10.1357 18.828 10.508C19.5761 11.2608 19.9966 12.2785 19.998 13.3398C19.9994 14.4011 19.5815 15.42 18.8354 16.1747L16.4667 18.478C16.3431 18.5992 16.1768 18.6671 16.0037 18.6671C15.8306 18.6671 15.6643 18.5992 15.5407 18.478L13.172 16.1847C12.4224 15.4303 12.0016 14.4099 12.0016 13.3463C12.0016 12.2828 12.4224 11.2624 13.172 10.508ZM22.6667 20.6807C22.6671 20.8826 22.6214 21.0819 22.5332 21.2635C22.4449 21.4452 22.3164 21.6042 22.1574 21.7287C22.0071 21.8495 21.8321 21.9357 21.6447 21.9812C21.4574 22.0267 21.2623 22.0304 21.0734 21.992L19.51 21.4667C18.9187 21.2968 18.292 21.2931 17.6987 21.456L13.8427 22.5947C13.4722 22.6969 13.0801 22.6902 12.7134 22.5753L10.784 21.9753C10.3665 21.8546 9.99934 21.6016 9.73777 21.2545C9.4762 20.9073 9.3343 20.4847 9.33337 20.05V17.3333C9.33187 17.0639 9.38551 16.7969 9.49099 16.5489C9.59646 16.301 9.75155 16.0772 9.9467 15.8913C10.2522 15.6002 10.6414 15.4122 11.0594 15.354C11.3281 16.0201 11.7283 16.6253 12.236 17.1333L14.614 19.4353C14.9857 19.7993 15.4852 20.0031 16.0054 20.0031C16.5256 20.0031 17.025 19.7993 17.3967 19.4353L19.772 17.1267C20.3039 16.5927 20.7159 15.9516 20.9807 15.246L21.3387 15.3647C21.727 15.5038 22.0628 15.7593 22.3005 16.0964C22.5382 16.4334 22.666 16.8356 22.6667 17.248V20.6807Z"
            fill="#1E1E1E" />
    </g>
    <defs>
        <clipPath id="clip0_226_5313">
            <rect width="16" height="16" fill="white" transform="translate(8 8)" />
        </clipPath>
    </defs>
</svg>
