<svg width="16" height="17" viewBox="0 0 16 17" fill="none" xmlns="http://www.w3.org/2000/svg">
    <g clip-path="url(#clip0_930_2376)">
        <path
            d="M12.6667 2.01302H12V1.34635C12 1.16954 11.9298 0.999974 11.8047 0.87495C11.6797 0.749925 11.5101 0.679688 11.3333 0.679688C11.1565 0.679688 10.987 0.749925 10.8619 0.87495C10.7369 0.999974 10.6667 1.16954 10.6667 1.34635V2.01302H5.33333V1.34635C5.33333 1.16954 5.2631 0.999974 5.13807 0.87495C5.01305 0.749925 4.84348 0.679688 4.66667 0.679688C4.48986 0.679688 4.32029 0.749925 4.19526 0.87495C4.07024 0.999974 4 1.16954 4 1.34635V2.01302H3.33333C2.4496 2.01408 1.60237 2.36561 0.97748 2.9905C0.352588 3.61539 0.00105857 4.46262 0 5.34635L0 13.3464C0.00105857 14.2301 0.352588 15.0773 0.97748 15.7022C1.60237 16.3271 2.4496 16.6786 3.33333 16.6797H12.6667C13.5504 16.6786 14.3976 16.3271 15.0225 15.7022C15.6474 15.0773 15.9989 14.2301 16 13.3464V5.34635C15.9989 4.46262 15.6474 3.61539 15.0225 2.9905C14.3976 2.36561 13.5504 2.01408 12.6667 2.01302ZM1.33333 5.34635C1.33333 4.81592 1.54405 4.30721 1.91912 3.93214C2.29419 3.55707 2.8029 3.34635 3.33333 3.34635H12.6667C13.1971 3.34635 13.7058 3.55707 14.0809 3.93214C14.456 4.30721 14.6667 4.81592 14.6667 5.34635V6.01302H1.33333V5.34635ZM12.6667 15.3464H3.33333C2.8029 15.3464 2.29419 15.1356 1.91912 14.7606C1.54405 14.3855 1.33333 13.8768 1.33333 13.3464V7.34635H14.6667V13.3464C14.6667 13.8768 14.456 14.3855 14.0809 14.7606C13.7058 15.1356 13.1971 15.3464 12.6667 15.3464Z"
            fill="#1E1E1E" />
        <path
            d="M8 11.6797C8.55228 11.6797 9 11.232 9 10.6797C9 10.1274 8.55228 9.67969 8 9.67969C7.44772 9.67969 7 10.1274 7 10.6797C7 11.232 7.44772 11.6797 8 11.6797Z"
            fill="#1E1E1E" />
        <path
            d="M4.66675 11.6797C5.21903 11.6797 5.66675 11.232 5.66675 10.6797C5.66675 10.1274 5.21903 9.67969 4.66675 9.67969C4.11446 9.67969 3.66675 10.1274 3.66675 10.6797C3.66675 11.232 4.11446 11.6797 4.66675 11.6797Z"
            fill="#1E1E1E" />
        <path
            d="M11.3333 11.6797C11.8855 11.6797 12.3333 11.232 12.3333 10.6797C12.3333 10.1274 11.8855 9.67969 11.3333 9.67969C10.781 9.67969 10.3333 10.1274 10.3333 10.6797C10.3333 11.232 10.781 11.6797 11.3333 11.6797Z"
            fill="#1E1E1E" />
    </g>
    <defs>
        <clipPath id="clip0_930_2376">
            <rect width="16" height="16" fill="white" transform="translate(0 0.679688)" />
        </clipPath>
    </defs>
</svg>
