<svg width="17" height="16" viewBox="0 0 17 16" fill="none" xmlns="http://www.w3.org/2000/svg">
    <g id="cross-circle 1" clip-path="url(#clip0_1611_6790)">
        <path id="Vector"
            d="M11.1667 5.33191C11.0417 5.20693 10.8722 5.13672 10.6954 5.13672C10.5186 5.13672 10.3491 5.20693 10.224 5.33191L8.50005 7.05591L6.77605 5.33191C6.65031 5.21047 6.48191 5.14327 6.30711 5.14479C6.13232 5.14631 5.96511 5.21643 5.8415 5.34003C5.7179 5.46364 5.64778 5.63084 5.64627 5.80564C5.64475 5.98044 5.71194 6.14884 5.83338 6.27458L7.55738 7.99858L5.83338 9.72258C5.71194 9.84831 5.64475 10.0167 5.64627 10.1915C5.64778 10.3663 5.7179 10.5335 5.8415 10.6571C5.96511 10.7807 6.13232 10.8508 6.30711 10.8524C6.48191 10.8539 6.65031 10.7867 6.77605 10.6652L8.50005 8.94124L10.224 10.6652C10.3498 10.7867 10.5182 10.8539 10.693 10.8524C10.8678 10.8508 11.035 10.7807 11.1586 10.6571C11.2822 10.5335 11.3523 10.3663 11.3538 10.1915C11.3554 10.0167 11.2882 9.84831 11.1667 9.72258L9.44271 7.99858L11.1667 6.27458C11.2917 6.14956 11.3619 5.98002 11.3619 5.80324C11.3619 5.62647 11.2917 5.45693 11.1667 5.33191Z"
            fill="#FF0000" />
        <path id="Vector_2"
            d="M8.5 0C6.91775 0 5.37104 0.469192 4.05544 1.34824C2.73985 2.22729 1.71447 3.47672 1.10897 4.93853C0.503466 6.40034 0.34504 8.00887 0.653721 9.56072C0.962403 11.1126 1.72433 12.538 2.84315 13.6569C3.96197 14.7757 5.38743 15.5376 6.93928 15.8463C8.49113 16.155 10.0997 15.9965 11.5615 15.391C13.0233 14.7855 14.2727 13.7602 15.1518 12.4446C16.0308 11.129 16.5 9.58225 16.5 8C16.4977 5.87897 15.6541 3.84547 14.1543 2.34568C12.6545 0.845886 10.621 0.00229405 8.5 0ZM8.5 14.6667C7.18146 14.6667 5.89253 14.2757 4.7962 13.5431C3.69987 12.8106 2.84539 11.7694 2.34081 10.5512C1.83622 9.33305 1.7042 7.99261 1.96144 6.6994C2.21867 5.40619 2.85361 4.21831 3.78596 3.28596C4.71831 2.35361 5.9062 1.71867 7.1994 1.46143C8.49261 1.2042 9.83305 1.33622 11.0512 1.8408C12.2694 2.34539 13.3106 3.19987 14.0431 4.2962C14.7757 5.39253 15.1667 6.68146 15.1667 8C15.1647 9.76752 14.4617 11.4621 13.2119 12.7119C11.9621 13.9617 10.2675 14.6647 8.5 14.6667Z"
            fill="#FF0000" />
    </g>
    <defs>
        <clipPath id="clip0_1611_6790">
            <rect width="16" height="16" fill="white" transform="translate(0.5)" />
        </clipPath>
    </defs>
</svg>
