<svg width="16" height="16" viewBox="0 0 16 16" fill="none" xmlns="http://www.w3.org/2000/svg">
    <g id="donate 1" clip-path="url(#clip0_1612_6798)">
        <path id="Vector"
            d="M8 13.3333C11.676 13.3333 14.6667 10.3427 14.6667 6.66667C14.6667 2.99067 11.676 0 8 0C4.324 0 1.33333 2.99067 1.33333 6.66667C1.33333 10.3427 4.324 13.3333 8 13.3333ZM8 1.33333C10.9407 1.33333 13.3333 3.726 13.3333 6.66667C13.3333 9.60733 10.9407 12 8 12C5.05933 12 2.66667 9.60733 2.66667 6.66667C2.66667 3.726 5.05933 1.33333 8 1.33333ZM16 13.6667C16 14.9533 14.9533 16 13.6667 16H2.33333C1.04667 16 0 14.9533 0 13.6667C0 12.9373 0.348 12.2407 0.930667 11.802C1.22533 11.5807 1.64333 11.6407 1.864 11.9333C2.08533 12.2273 2.02667 12.6453 1.73267 12.8667C1.47867 13.0573 1.33333 13.3493 1.33333 13.666C1.33333 14.2173 1.782 14.666 2.33333 14.666H13.6667C14.218 14.666 14.6667 14.2173 14.6667 13.666C14.6667 13.3487 14.5207 13.0573 14.2667 12.866C13.9727 12.644 13.914 12.226 14.136 11.932C14.3567 11.6393 14.7753 11.5793 15.0693 11.8013C15.6607 12.248 16 12.9273 16 13.6667ZM9.33333 8C9.33333 7.74733 9.15267 7.53467 8.904 7.49267L6.87667 7.15533C5.982 7.006 5.33333 6.23933 5.33333 5.33333C5.33333 4.23067 6.23067 3.33333 7.33333 3.33333V2.66667C7.33333 2.298 7.632 2 8 2C8.368 2 8.66667 2.298 8.66667 2.66667V3.33333H8.84533C9.55667 3.33333 10.2207 3.716 10.5773 4.33267C10.7613 4.652 10.6527 5.05933 10.334 5.24333C10.016 5.42867 9.608 5.31867 9.42333 5.00067C9.304 4.794 9.08267 4.66667 8.84533 4.66667H7.33333C6.966 4.66667 6.66667 4.96533 6.66667 5.33333C6.66667 5.586 6.84733 5.79867 7.096 5.84067L9.12333 6.178C10.018 6.32733 10.6667 7.094 10.6667 8C10.6667 9.10267 9.76933 10 8.66667 10V10.6667C8.66667 11.0353 8.368 11.3333 8 11.3333C7.632 11.3333 7.33333 11.0353 7.33333 10.6667V10H7.15467C6.44333 10 5.77933 9.61733 5.42267 9.00067C5.23867 8.68133 5.34733 8.274 5.666 8.09C5.98333 7.90467 6.392 8.01467 6.57667 8.33267C6.696 8.53933 6.91733 8.66667 7.15467 8.66667H8.66667C9.034 8.66667 9.33333 8.368 9.33333 8Z"
            fill="#1E1E1E" />
    </g>
    <defs>
        <clipPath id="clip0_1612_6798">
            <rect width="16" height="16" fill="white" />
        </clipPath>
    </defs>
</svg>
