<svg xmlns="http://www.w3.org/2000/svg" version="1.1" width="512" height="512" x="0" y="0"
    viewBox="0 0 8.467 8.467" style="enable-background:new 0 0 512 512" xml:space="preserve"
    class=""><g><path fill="#DFDFDF" d="M6.75 4.947a3.28 3.28 0 0 1-3.28 3.28 3.28 3.28 0 0 1-3.28-3.28 3.28 3.28 0 0 1 3.28-3.28 3.28 3.28 0 0 1 3.28 3.28z" data-original="#ffcc71" class="" opacity="1"></path><g
    fill="none" stroke="#3A3640"><g stroke-linecap="round" stroke-linejoin="round" stroke="#3A3640" fill="none"><path stroke-width="0.265px" d="M1.009 3.214h6.358c.22 0 .398.178.398.399v3.442c0 .22-.178.399-.398.399H1.009a.398.398 0 0 1-.399-.4V3.614c0-.221.178-.4.399-.4z" fill="none" stroke="#3A3640"></path><path
    stroke-width="0.265px"
    d="M5.91 5.864a.795.795 0 0 1-.795.795.795.795 0 0 1-.795-.795.795.795 0 0 1 .795-.795.795.795 0 0 1 .795.795z"
    fill="none" stroke="#3A3640"></path><path stroke-width="0.265px"
    d="M5.62 5.242a.79.796 0 0 1 1.067.073.79.796 0 0 1 .02 1.076.79.796 0 0 1-1.064.112M1.935 4.207h.53c.147 0 .265.119.265.265v.53a.264.264 0 0 1-.265.265h-.53a.264.264 0 0 1-.265-.265v-.53c0-.146.119-.265.265-.265z"
    fill="none" stroke="#3A3640"></path></g>
    <path stroke-width="0.265px" d="M1.538 5.93h1.855M1.538 6.592h1.855" fill="none"
        stroke="#3A3640"></path></g></g></svg>