<svg width="17" height="16" viewBox="0 0 17 16" fill="none" xmlns="http://www.w3.org/2000/svg">
    <g id="money-bill-wave 1" clip-path="url(#clip0_1441_6129)">
        <path id="Vector"
            d="M8.50007 10.6667C7.0294 10.6667 5.8334 9.47067 5.8334 8C5.8334 6.52933 7.0294 5.33333 8.50007 5.33333C9.97073 5.33333 11.1667 6.52933 11.1667 8C11.1667 9.47067 9.97073 10.6667 8.50007 10.6667ZM8.50007 6.66667C7.76473 6.66667 7.16673 7.26467 7.16673 8C7.16673 8.73533 7.76473 9.33333 8.50007 9.33333C9.2354 9.33333 9.8334 8.73533 9.8334 8C9.8334 7.26467 9.2354 6.66667 8.50007 6.66667ZM3.8334 4.66667C3.4654 4.66667 3.16673 4.96533 3.16673 5.33333C3.16673 5.70133 3.4654 6 3.8334 6C4.2014 6 4.50007 5.70133 4.50007 5.33333C4.50007 4.96533 4.2014 4.66667 3.8334 4.66667ZM12.5001 6.66667C12.5001 7.03467 12.7987 7.33333 13.1667 7.33333C13.5347 7.33333 13.8334 7.03467 13.8334 6.66667C13.8334 6.29867 13.5347 6 13.1667 6C12.7987 6 12.5001 6.29867 12.5001 6.66667ZM3.8334 8.66667C3.4654 8.66667 3.16673 8.96533 3.16673 9.33333C3.16673 9.70133 3.4654 10 3.8334 10C4.2014 10 4.50007 9.70133 4.50007 9.33333C4.50007 8.96533 4.2014 8.66667 3.8334 8.66667ZM12.5001 10.6667C12.5001 11.0347 12.7987 11.3333 13.1667 11.3333C13.5347 11.3333 13.8334 11.0347 13.8334 10.6667C13.8334 10.2987 13.5347 10 13.1667 10C12.7987 10 12.5001 10.2987 12.5001 10.6667ZM11.8327 14C10.7434 14 9.7674 13.734 8.82407 13.4767C7.9254 13.2313 7.0774 13 6.16673 13C5.1194 13 4.45873 13.0673 3.8874 13.2327C3.0834 13.464 2.23807 13.308 1.5674 12.8033C0.889399 12.2933 0.500732 11.5147 0.500732 10.6667V5.63467C0.500732 4.25933 1.36673 3.00533 2.65607 2.514C3.55007 2.17267 4.3954 2 5.16807 2C6.2574 2 7.23273 2.266 8.17673 2.52333C9.0754 2.76867 9.9234 3 10.8341 3C11.8807 3 12.5421 2.93267 13.1134 2.76733C13.9187 2.536 14.7641 2.692 15.4341 3.19667C16.1121 3.70667 16.5007 4.48533 16.5007 5.33333V10.3653C16.5007 11.7407 15.6341 12.9947 14.3447 13.486C13.4507 13.8273 12.6061 14 11.8327 14ZM6.16673 11.6667C7.25607 11.6667 8.2314 11.9327 9.1754 12.19C10.0741 12.4353 10.9221 12.6667 11.8327 12.6667C12.4421 12.6667 13.1274 12.5233 13.8701 12.24C14.6587 11.94 15.1674 11.204 15.1674 10.3653V5.33333C15.1674 4.90867 14.9721 4.518 14.6321 4.26267C14.2994 4.01267 13.8814 3.934 13.4821 4.04867C12.7814 4.25067 12.0141 4.33333 10.8327 4.33333C9.7434 4.33333 8.76807 4.06733 7.82407 3.81C6.9254 3.56467 6.0774 3.33333 5.16673 3.33333C4.55673 3.33333 3.87207 3.47667 3.1294 3.76C2.34073 4.06 1.83207 4.796 1.83207 5.63467V10.6667C1.83207 11.0913 2.0274 11.482 2.3674 11.7373C2.70007 11.9873 3.11807 12.066 3.51673 11.9507C4.2174 11.7487 4.9854 11.666 6.16607 11.666L6.16673 11.6667Z"
            fill="#1E1E1E" />
    </g>
    <defs>
        <clipPath id="clip0_1441_6129">
            <rect width="16" height="16" fill="white" transform="translate(0.5)" />
        </clipPath>
    </defs>
</svg>
