<svg xmlns="http://www.w3.org/2000/svg" version="1.1" width="512" height="512" x="0" y="0"
    viewBox="0 0 32 32" style="enable-background:new 0 0 512 512" xml:space="preserve"><g><path d="M12 0H3C1.346 0 0 1.346 0 3v9c0 1.654 1.346 3 3 3h9c1.654 0 3-1.346 3-3V3c0-1.654-1.346-3-3-3zm1 12c0 .551-.448 1-1 1H3c-.552 0-1-.449-1-1V3c0-.551.448-1 1-1h9c.552 0 1 .449 1 1zM29 0h-9c-1.654 0-3 1.346-3 3v9c0 1.654 1.346 3 3 3h9c1.654 0 3-1.346 3-3V3c0-1.654-1.346-3-3-3zm1 12c0 .551-.448 1-1 1h-9c-.552 0-1-.449-1-1V3c0-.551.448-1 1-1h9c.552 0 1 .449 1 1zM29 17h-9c-1.654 0-3 1.346-3 3v9c0 1.654 1.346 3 3 3h9c1.654 0 3-1.346 3-3v-9c0-1.654-1.346-3-3-3zm1 12c0 .551-.448 1-1 1h-9c-.552 0-1-.449-1-1v-9c0-.551.448-1 1-1h9c.552 0 1 .449 1 1zM12 17H3c-1.654 0-3 1.346-3 3v9c0 1.654 1.346 3 3 3h9c1.654 0 3-1.346 3-3v-9c0-1.654-1.346-3-3-3zm1 12c0 .551-.448 1-1 1H3c-.552 0-1-.449-1-1v-9c0-.551.448-1 1-1h9c.552 0 1 .449 1 1z" fill="#000000" data-original="#000000"></path></g></svg>