<svg width="116" height="114" viewBox="0 0 116 114" fill="none" xmlns="http://www.w3.org/2000/svg">
    <rect x="0.666748" width="114.667" height="113.583" rx="56.7917" fill="#FF6137"
        fill-opacity="0.24" />
    <path
        d="M31.3334 89.5833C29.5001 89.5833 27.9306 88.9306 26.6251 87.625C25.3195 86.3194 24.6667 84.75 24.6667 82.9167V46.75C24.6667 45.5833 24.9445 44.4722 25.5001 43.4167C26.0556 42.3611 26.8334 41.5278 27.8334 40.9167L54.5834 24.9167C55.139 24.5833 55.6945 24.3472 56.2501 24.2083C56.8056 24.0694 57.389 24 58.0001 24C58.6112 24 59.1945 24.0694 59.7501 24.2083C60.3056 24.3472 60.8612 24.5833 61.4167 24.9167L88.1668 40.9167C89.1668 41.5278 89.9445 42.3611 90.5001 43.4167C91.0556 44.4722 91.3334 45.5833 91.3334 46.75V82.9167C91.3334 84.75 90.6806 86.3194 89.3751 87.625C88.0695 88.9306 86.5001 89.5833 84.6667 89.5833H31.3334ZM58.0001 61.1667C58.2779 61.1667 58.5556 61.1389 58.8334 61.0833C59.1112 61.0278 59.389 60.9167 59.6667 60.75L84.0001 46.25L59.6667 31.75C59.389 31.5833 59.1112 31.4722 58.8334 31.4167C58.5556 31.3611 58.2779 31.3333 58.0001 31.3333C57.7223 31.3333 57.4445 31.3611 57.1667 31.4167C56.889 31.4722 56.6112 31.5833 56.3334 31.75L32.0001 46.25L56.3334 60.75C56.6112 60.9167 56.889 61.0278 57.1667 61.0833C57.4445 61.1389 57.7223 61.1667 58.0001 61.1667ZM31.3334 82.9167H84.6667V53.5833L61.4167 67.5C60.8612 67.8333 60.3056 68.0833 59.7501 68.25C59.1945 68.4167 58.6112 68.5 58.0001 68.5C57.389 68.5 56.8056 68.4167 56.2501 68.25C55.6945 68.0833 55.139 67.8333 54.5834 67.5L31.3334 53.5833V82.9167Z"
        fill="#FF6137" />
</svg>
