<svg width="12" height="12" viewBox="0 0 12 12" fill="none" xmlns="http://www.w3.org/2000/svg">
<g id="clock-three (3) 1" clip-path="url(#clip0_1730_3947)">
<path id="Vector" d="M6.05818 11.5362C2.92277 11.5362 0.37207 8.98547 0.37207 5.85005C0.37207 2.71464 2.92277 0.16394 6.05818 0.16394C9.1936 0.16394 11.7443 2.71464 11.7443 5.85005C11.7443 8.98547 9.1936 11.5362 6.05818 11.5362ZM6.05818 1.11163C3.44541 1.11163 1.31976 3.23729 1.31976 5.85005C1.31976 8.46282 3.44541 10.5885 6.05818 10.5885C8.67095 10.5885 10.7966 8.46282 10.7966 5.85005C10.7966 3.23729 8.67095 1.11163 6.05818 1.11163ZM8.4274 5.37621H6.53203V2.53315H5.58434V6.3239H8.4274V5.37621Z" fill="#8B8A86"/>
</g>
<defs>
<clipPath id="clip0_1730_3947">
<rect width="11.3722" height="11.3722" fill="white" transform="translate(0.37207 0.16394)"/>
</clipPath>
</defs>
</svg>
