<svg width="32" height="33" viewBox="0 0 32 33" fill="none" xmlns="http://www.w3.org/2000/svg">
<g id="check-circle 4" clip-path="url(#clip0_1850_13003)">
<path id="Vector" d="M24.2853 12.6307C24.8013 13.156 24.7933 14 24.2667 14.516L18.3653 20.3093C17.3213 21.3333 15.9773 21.844 14.632 21.844C13.3013 21.844 11.9707 21.3427 10.9307 20.3387L8.39867 17.8493C7.87333 17.3333 7.86667 16.4893 8.38267 15.964C8.89733 15.4373 9.744 15.4307 10.268 15.948L12.792 18.4293C13.8267 19.4293 15.46 19.424 16.5 18.4053L22.4 12.6133C22.924 12.096 23.7653 12.1053 24.2853 12.6307ZM32 16.5C32 25.3227 24.8227 32.5 16 32.5C7.17733 32.5 0 25.3227 0 16.5C0 7.67733 7.17733 0.5 16 0.5C24.8227 0.5 32 7.67733 32 16.5ZM29.3333 16.5C29.3333 9.148 23.352 3.16667 16 3.16667C8.648 3.16667 2.66667 9.148 2.66667 16.5C2.66667 23.852 8.648 29.8333 16 29.8333C23.352 29.8333 29.3333 23.852 29.3333 16.5Z" fill="#00963E"/>
</g>
<defs>
<clipPath id="clip0_1850_13003">
<rect width="32" height="32" fill="white" transform="translate(0 0.5)"/>
</clipPath>
</defs>
</svg>
