<svg width="20" height="20" viewBox="0 0 20 20" fill="none" xmlns="http://www.w3.org/2000/svg">
<g id="fi_2710178">
<path id="Vector" d="M17.4998 4.16669H2.49984C2.27882 4.16669 2.06686 4.25448 1.91058 4.41076C1.7543 4.56705 1.6665 4.77901 1.6665 5.00002C1.6665 5.22103 1.7543 5.433 1.91058 5.58928C2.06686 5.74556 2.27882 5.83335 2.49984 5.83335H4.1665V15.8334C4.1667 16.4963 4.43016 17.1321 4.89896 17.6009C5.36775 18.0697 6.00352 18.3332 6.6665 18.3334H13.3332C13.9962 18.3332 14.6319 18.0697 15.1007 17.6009C15.5695 17.1321 15.833 16.4963 15.8332 15.8334V5.83335H17.4998C17.7209 5.83335 17.9328 5.74556 18.0891 5.58928C18.2454 5.433 18.3332 5.22103 18.3332 5.00002C18.3332 4.77901 18.2454 4.56705 18.0891 4.41076C17.9328 4.25448 17.7209 4.16669 17.4998 4.16669ZM9.1665 13.3334C9.1665 13.5544 9.07871 13.7663 8.92243 13.9226C8.76615 14.0789 8.55418 14.1667 8.33317 14.1667C8.11216 14.1667 7.9002 14.0789 7.74392 13.9226C7.58764 13.7663 7.49984 13.5544 7.49984 13.3334V9.16669C7.49984 8.94567 7.58764 8.73371 7.74392 8.57743C7.9002 8.42115 8.11216 8.33335 8.33317 8.33335C8.55418 8.33335 8.76615 8.42115 8.92243 8.57743C9.07871 8.73371 9.1665 8.94567 9.1665 9.16669V13.3334ZM12.4998 13.3334C12.4998 13.5544 12.412 13.7663 12.2558 13.9226C12.0995 14.0789 11.8875 14.1667 11.6665 14.1667C11.4455 14.1667 11.2335 14.0789 11.0772 13.9226C10.921 13.7663 10.8332 13.5544 10.8332 13.3334V9.16669C10.8332 8.94567 10.921 8.73371 11.0772 8.57743C11.2335 8.42115 11.4455 8.33335 11.6665 8.33335C11.8875 8.33335 12.0995 8.42115 12.2558 8.57743C12.412 8.73371 12.4998 8.94567 12.4998 9.16669V13.3334Z" fill="#A71F22"/>
<path id="Vector_2" d="M8.33333 3.33335H11.6667C11.8877 3.33335 12.0996 3.24556 12.2559 3.08928C12.4122 2.933 12.5 2.72103 12.5 2.50002C12.5 2.27901 12.4122 2.06704 12.2559 1.91076C12.0996 1.75448 11.8877 1.66669 11.6667 1.66669H8.33333C8.11232 1.66669 7.90036 1.75448 7.74408 1.91076C7.5878 2.06704 7.5 2.27901 7.5 2.50002C7.5 2.72103 7.5878 2.933 7.74408 3.08928C7.90036 3.24556 8.11232 3.33335 8.33333 3.33335Z" fill="#A71F22"/>
</g>
</svg>
