<svg width="12" height="13" viewBox="0 0 12 13" fill="none" xmlns="http://www.w3.org/2000/svg">
<g id="Delivery 1" clip-path="url(#clip0_1850_12725)">
<path id="Vector" d="M2.5 7C2.00555 7 1.5222 7.14662 1.11108 7.42133C0.699953 7.69603 0.379521 8.08648 0.190302 8.54329C0.00108321 9.00011 -0.0484251 9.50277 0.0480379 9.98773C0.144501 10.4727 0.382603 10.9181 0.732234 11.2678C1.08187 11.6174 1.52732 11.8555 2.01228 11.952C2.49723 12.0484 2.99989 11.9989 3.45671 11.8097C3.91353 11.6205 4.30397 11.3 4.57868 10.8889C4.85338 10.4778 5 9.99445 5 9.5C4.99921 8.8372 4.73556 8.20178 4.26689 7.73311C3.79822 7.26444 3.1628 7.00079 2.5 7ZM2.5 11C2.20333 11 1.91332 10.912 1.66665 10.7472C1.41997 10.5824 1.22771 10.3481 1.11418 10.074C1.00065 9.79994 0.970945 9.49834 1.02882 9.20737C1.0867 8.91639 1.22956 8.64912 1.43934 8.43934C1.64912 8.22956 1.91639 8.0867 2.20737 8.02882C2.49834 7.97094 2.79994 8.00065 3.07403 8.11418C3.34812 8.22771 3.58238 8.41997 3.74721 8.66665C3.91203 8.91332 4 9.20333 4 9.5C4 9.89783 3.84197 10.2794 3.56066 10.5607C3.27936 10.842 2.89783 11 2.5 11ZM9.5 7C9.00555 7 8.5222 7.14662 8.11108 7.42133C7.69995 7.69603 7.37952 8.08648 7.1903 8.54329C7.00108 9.00011 6.95158 9.50277 7.04804 9.98773C7.1445 10.4727 7.3826 10.9181 7.73223 11.2678C8.08187 11.6174 8.52732 11.8555 9.01228 11.952C9.49723 12.0484 9.9999 11.9989 10.4567 11.8097C10.9135 11.6205 11.304 11.3 11.5787 10.8889C11.8534 10.4778 12 9.99445 12 9.5C11.9992 8.8372 11.7356 8.20178 11.2669 7.73311C10.7982 7.26444 10.1628 7.00079 9.5 7ZM9.5 11C9.20333 11 8.91332 10.912 8.66665 10.7472C8.41997 10.5824 8.22771 10.3481 8.11418 10.074C8.00065 9.79994 7.97095 9.49834 8.02882 9.20737C8.0867 8.91639 8.22956 8.64912 8.43934 8.43934C8.64912 8.22956 8.91639 8.0867 9.20737 8.02882C9.49834 7.97094 9.79994 8.00065 10.074 8.11418C10.3481 8.22771 10.5824 8.41997 10.7472 8.66665C10.912 8.91332 11 9.20333 11 9.5C11 9.89783 10.842 10.2794 10.5607 10.5607C10.2794 10.842 9.89783 11 9.5 11ZM5.182 6.1385C5.12983 6.09401 5.08748 6.03915 5.05766 5.97741C5.02785 5.91567 5.01121 5.84839 5.00881 5.77987C5.00641 5.71134 5.0183 5.64307 5.04373 5.57939C5.06916 5.51571 5.10756 5.45803 5.1565 5.41C5.241 5.33 6.483 4.19 6.483 4.19L8.1465 5.8535C8.2408 5.94458 8.3671 5.99498 8.4982 5.99384C8.6293 5.9927 8.75471 5.94011 8.84741 5.84741C8.94011 5.75471 8.9927 5.6293 8.99384 5.4982C8.99498 5.3671 8.94458 5.2408 8.8535 5.1465L6.8535 3.1465C6.83439 3.12694 6.81365 3.10904 6.7915 3.093C6.25597 2.71389 5.6176 2.50703 4.9615 2.5C4.2605 2.5 2.5 3.095 2.5 4.5C2.5 4.89783 2.65804 5.27936 2.93934 5.56066C3.22065 5.84197 3.60218 6 4 6C4.012 6 4.023 5.9975 4.0345 5.997C4.08843 6.34625 4.26433 6.66511 4.531 6.897L5.5 7.7295V9.5C5.5 9.63261 5.55268 9.75979 5.64645 9.85355C5.74022 9.94732 5.86739 10 6 10C6.13261 10 6.25979 9.94732 6.35356 9.85355C6.44732 9.75979 6.5 9.63261 6.5 9.5V7.5C6.5 7.4279 6.4844 7.35666 6.45428 7.29116C6.42416 7.22565 6.38023 7.16744 6.3255 7.1205L5.182 6.1385ZM3.5 4.5C3.5 3.893 4.586 3.5 4.9615 3.5C5.18935 3.50121 5.41548 3.53955 5.631 3.6135C5.631 3.6135 4.473 4.6805 4.4595 4.6935C4.269 4.8745 4.1125 5 4 5C3.86739 5 3.74022 4.94732 3.64645 4.85355C3.55268 4.75979 3.5 4.63261 3.5 4.5ZM7 1.75C7 1.50277 7.07331 1.2611 7.21066 1.05554C7.34802 0.849976 7.54324 0.689761 7.77165 0.595151C8.00006 0.500542 8.25139 0.475787 8.49387 0.524019C8.73634 0.57225 8.95907 0.691301 9.13389 0.866117C9.3087 1.04093 9.42775 1.26366 9.47598 1.50614C9.52422 1.74861 9.49946 1.99995 9.40485 2.22835C9.31024 2.45676 9.15003 2.65199 8.94446 2.78934C8.7389 2.92669 8.49723 3 8.25 3C7.91848 3 7.60054 2.8683 7.36612 2.63388C7.1317 2.39946 7 2.08152 7 1.75Z" fill="#33393E"/>
</g>
<defs>
<clipPath id="clip0_1850_12725">
<rect width="12" height="12" fill="white" transform="translate(0 0.5)"/>
</clipPath>
</defs>
</svg>
