<svg width="108" height="108" viewBox="0 0 108 108" fill="none" xmlns="http://www.w3.org/2000/svg">
<path d="M54 108C83.8234 108 108 83.8234 108 54C108 24.1766 83.8234 0 54 0C24.1766 0 0 24.1766 0 54C0 83.8234 24.1766 108 54 108Z" fill="#FAEDEF"/>
<mask id="mask0_1572_8395" style="mask-type:alpha" maskUnits="userSpaceOnUse" x="0" y="0" width="108" height="108">
<path d="M54 108C83.8234 108 108 83.8234 108 54C108 24.1766 83.8234 0 54 0C24.1766 0 0 24.1766 0 54C0 83.8234 24.1766 108 54 108Z" fill="url(#paint0_linear_1572_8395)"/>
</mask>
<g mask="url(#mask0_1572_8395)">
<path d="M84.2397 23.041H22.3197C20.3315 23.041 18.7197 24.821 18.7197 27.0167V110.505C18.7197 112.701 20.3315 114.481 22.3197 114.481H84.2397C86.228 114.481 87.8397 112.701 87.8397 110.505V27.0167C87.8397 24.821 86.228 23.041 84.2397 23.041Z" fill="white"/>
</g>
<path d="M53.9987 74.1577C63.5422 74.1577 71.2787 66.4211 71.2787 56.8777C71.2787 47.3342 63.5422 39.5977 53.9987 39.5977C44.4553 39.5977 36.7188 47.3342 36.7188 56.8777C36.7188 66.4211 44.4553 74.1577 53.9987 74.1577Z" fill="#D14663"/>
<g clip-path="url(#clip0_1572_8395)">
<path d="M59.878 55.1988C60.8497 55.1983 61.7911 54.8608 62.5419 54.2439C63.2927 53.627 63.8063 52.7688 63.9953 51.8157C64.1843 50.8625 64.0369 49.8733 63.5783 49.0166C63.1197 48.16 62.3783 47.4888 61.4803 47.1175C60.5823 46.7462 59.5834 46.6978 58.6537 46.9805C57.724 47.2632 56.9211 47.8595 56.3818 48.6678C55.8425 49.4761 55.6001 50.4464 55.696 51.4134C55.7919 52.3803 56.2201 53.2841 56.9077 53.9707C57.2977 54.3608 57.7608 54.6701 58.2705 54.8808C58.7802 55.0915 59.3264 55.1996 59.878 55.1988ZM61.6604 52.783C61.2916 53.1487 60.8187 53.3914 60.3066 53.478C59.7944 53.5646 59.268 53.4909 58.7994 53.2668L62.146 49.9203C62.3698 50.389 62.4433 50.9155 62.3564 51.4277C62.2695 51.9398 62.0264 52.4126 61.6604 52.7813V52.783ZM58.0955 49.2163C58.4642 48.8504 58.937 48.6073 59.4491 48.5204C59.9613 48.4335 60.4878 48.507 60.9565 48.7308L57.61 52.0774C57.3861 51.6086 57.3127 51.0821 57.3996 50.57C57.4865 50.0578 57.7295 49.585 58.0955 49.2163ZM64.078 56.8788V62.7588C64.0766 63.8723 63.6337 64.9398 62.8463 65.7272C62.059 66.5146 60.9915 66.9575 59.878 66.9588H48.118C47.0045 66.9575 45.937 66.5146 45.1496 65.7272C44.3622 64.9398 43.9193 63.8723 43.918 62.7588V53.5188C43.9193 52.4053 44.3622 51.3378 45.1496 50.5505C45.937 49.7631 47.0045 49.3202 48.118 49.3188H53.158C53.3808 49.3188 53.5944 49.4073 53.7519 49.5649C53.9095 49.7224 53.998 49.936 53.998 50.1588C53.998 50.3816 53.9095 50.5953 53.7519 50.7528C53.5944 50.9103 53.3808 50.9988 53.158 50.9988H48.118C47.6612 51.0001 47.2134 51.1259 46.8228 51.3627C46.4322 51.5995 46.1136 51.9384 45.9012 52.3428L52.2155 58.6579C52.689 59.1292 53.3299 59.3938 53.998 59.3938C54.666 59.3938 55.3069 59.1292 55.7804 58.6579L57.3512 57.1157C57.511 56.9635 57.7243 56.8802 57.945 56.884C58.1657 56.8878 58.376 56.9782 58.5305 57.1358C58.685 57.2934 58.7713 57.5055 58.7707 57.7262C58.7701 57.9469 58.6826 58.1585 58.5272 58.3152L56.9615 59.8507C56.1734 60.6362 55.1058 61.0768 53.9931 61.0758C52.8805 61.0749 51.8137 60.6325 51.0269 59.8457L45.598 54.4185V62.7588C45.598 63.4272 45.8635 64.0681 46.3361 64.5407C46.8087 65.0133 47.4496 65.2788 48.118 65.2788H59.878C60.5463 65.2788 61.1873 65.0133 61.6599 64.5407C62.1325 64.0681 62.398 63.4272 62.398 62.7588V56.8788C62.398 56.656 62.4865 56.4424 62.644 56.2849C62.8015 56.1273 63.0152 56.0388 63.238 56.0388C63.4608 56.0388 63.6744 56.1273 63.8319 56.2849C63.9895 56.4424 64.078 56.656 64.078 56.8788Z" fill="white"/>
</g>
<path d="M63.3595 79.9199H44.6395C43.4466 79.9199 42.4795 80.887 42.4795 82.0799C42.4795 83.2729 43.4466 84.2399 44.6395 84.2399H63.3595C64.5524 84.2399 65.5195 83.2729 65.5195 82.0799C65.5195 80.887 64.5524 79.9199 63.3595 79.9199Z" fill="#DEE2E7"/>
<path d="M69.839 87.1191H38.159C36.9661 87.1191 35.999 88.0862 35.999 89.2791C35.999 90.4721 36.9661 91.4391 38.159 91.4391H69.839C71.032 91.4391 71.999 90.4721 71.999 89.2791C71.999 88.0862 71.032 87.1191 69.839 87.1191Z" fill="#FAEDEF"/>
<defs>
<linearGradient id="paint0_linear_1572_8395" x1="54" y1="0" x2="54" y2="108" gradientUnits="userSpaceOnUse">
<stop stop-color="#E3ECFA"/>
<stop offset="1" stop-color="#DAE7FF"/>
</linearGradient>
<clipPath id="clip0_1572_8395">
<rect width="20.16" height="20.16" fill="white" transform="translate(43.918 46.7988)"/>
</clipPath>
</defs>
</svg>
