<svg width="108" height="108" viewBox="0 0 108 108" fill="none" xmlns="http://www.w3.org/2000/svg">
    <g id="Group 26814">
        <g id="Mask Group 2">
            <path id="Ellipse 652"
                d="M54 108C83.8234 108 108 83.8234 108 54C108 24.1766 83.8234 0 54 0C24.1766 0 0 24.1766 0 54C0 83.8234 24.1766 108 54 108Z"
                fill="#FAEDEF" />
            <g id="Group">
                <g id="Mask Group">
                    <mask id="mask0_1572_8394" style="mask-type:alpha" maskUnits="userSpaceOnUse"
                        x="0" y="0" width="108" height="108">
                        <path id="Ellipse 653"
                            d="M54 108C83.8234 108 108 83.8234 108 54C108 24.1766 83.8234 0 54 0C24.1766 0 0 24.1766 0 54C0 83.8234 24.1766 108 54 108Z"
                            fill="white" />
                    </mask>
                    <g mask="url(#mask0_1572_8394)">
                        <g id="Mask Group 3">
                            <g id="Group 26805">
                                <g id="Group_2">
                                    <path id="Path 25918"
                                        d="M25.9203 25.2031H123.12C124.075 25.2031 124.991 25.5824 125.666 26.2575C126.341 26.9327 126.72 27.8483 126.72 28.8031V46.8031C126.72 47.7579 126.341 48.6736 125.666 49.3487C124.991 50.0238 124.075 50.4031 123.12 50.4031H25.9203C24.9655 50.4031 24.0499 50.0238 23.3747 49.3487C22.6996 48.6736 22.3203 47.7579 22.3203 46.8031V28.8031C22.3203 27.8483 22.6996 26.9327 23.3747 26.2575C24.0499 25.5824 24.9655 25.2031 25.9203 25.2031V25.2031Z"
                                        fill="white" />
                                </g>
                                <g id="Group 26775">
                                    <path id="Rectangle 5617"
                                        d="M72.0001 30.9609H53.2801C52.0872 30.9609 51.1201 31.928 51.1201 33.1209C51.1201 34.3139 52.0872 35.2809 53.2801 35.2809H72.0001C73.1931 35.2809 74.1601 34.3139 74.1601 33.1209C74.1601 31.928 73.1931 30.9609 72.0001 30.9609Z"
                                        fill="#DEE2E7" />
                                    <path id="Rectangle 5618"
                                        d="M84.9601 40.3203H53.2801C52.0872 40.3203 51.1201 41.2874 51.1201 42.4803C51.1201 43.6732 52.0872 44.6403 53.2801 44.6403H84.9601C86.1531 44.6403 87.1201 43.6732 87.1201 42.4803C87.1201 41.2874 86.1531 40.3203 84.9601 40.3203Z"
                                        fill="#F4F6F7" />
                                </g>
                                <g id="Group 26804">
                                    <path id="Rectangle 5624"
                                        d="M45.3605 37.8033C45.3605 32.0374 40.6863 27.3633 34.9205 27.3633C29.1546 27.3633 24.4805 32.0374 24.4805 37.8033C24.4805 43.5691 29.1546 48.2433 34.9205 48.2433C40.6863 48.2433 45.3605 43.5691 45.3605 37.8033Z"
                                        fill="#D14663" />
                                    <g id="bx-search">
                                        <path id="Path 25920"
                                            d="M34.2723 41.1844C35.1661 41.1842 36.0341 40.8852 36.7383 40.3348L38.9523 42.5488L39.6644 41.8367L37.4497 39.622C38.0061 38.9025 38.3025 38.0159 38.2905 37.1065C38.2785 36.197 37.9588 35.3185 37.3836 34.614C36.8084 33.9095 36.0115 33.4206 35.1228 33.227C34.2342 33.0334 33.3062 33.1465 32.49 33.5478C31.6738 33.9491 31.0177 34.6151 30.6284 35.4371C30.2392 36.259 30.1398 37.1886 30.3465 38.0743C30.5533 38.96 31.0539 39.7496 31.7668 40.3144C32.4796 40.8791 33.3628 41.1858 34.2723 41.1844ZM34.2723 34.1327C34.8704 34.1327 35.4551 34.31 35.9523 34.6423C36.4496 34.9746 36.8372 35.4469 37.0661 35.9995C37.295 36.552 37.3549 37.16 37.2382 37.7466C37.1215 38.3332 36.8335 38.8721 36.4106 39.295C35.9877 39.7179 35.4489 40.0059 34.8623 40.1226C34.2757 40.2393 33.6676 40.1794 33.1151 39.9505C32.5625 39.7216 32.0902 39.334 31.7579 38.8367C31.4257 38.3394 31.2483 37.7548 31.2483 37.1567C31.2483 36.3547 31.5669 35.5855 32.134 35.0184C32.7011 34.4513 33.4703 34.1327 34.2723 34.1327Z"
                                            fill="white" />
                                    </g>
                                </g>
                            </g>
                            <g id="Group 26784">
                                <g id="Group_3">
                                    <path id="Rectangle 5623"
                                        d="M112.321 57.6016H15.1215C13.1333 57.6016 11.5215 59.2133 11.5215 61.2016V79.2016C11.5215 81.1898 13.1333 82.8016 15.1215 82.8016H112.321C114.31 82.8016 115.921 81.1898 115.921 79.2016V61.2016C115.921 59.2133 114.31 57.6016 112.321 57.6016Z"
                                        fill="white" />
                                </g>
                                <g id="Group 26775_2">
                                    <path id="Rectangle 5617_2"
                                        d="M61.2003 63.3613H42.4803C41.2874 63.3613 40.3203 64.3284 40.3203 65.5213C40.3203 66.7143 41.2874 67.6813 42.4803 67.6813H61.2003C62.3932 67.6813 63.3603 66.7143 63.3603 65.5213C63.3603 64.3284 62.3932 63.3613 61.2003 63.3613Z"
                                        fill="#DEE2E7" />
                                    <path id="Rectangle 5618_2"
                                        d="M74.1603 72.7207H42.4803C41.2874 72.7207 40.3203 73.6878 40.3203 74.8807C40.3203 76.0736 41.2874 77.0407 42.4803 77.0407H74.1603C75.3532 77.0407 76.3203 76.0736 76.3203 74.8807C76.3203 73.6878 75.3532 72.7207 74.1603 72.7207Z"
                                        fill="#F4F6F7" />
                                </g>
                                <g id="Group 26807">
                                    <path id="Rectangle 5624_2"
                                        d="M34.5616 70.2017C34.5616 64.4359 29.8875 59.7617 24.1216 59.7617C18.3558 59.7617 13.6816 64.4359 13.6816 70.2017C13.6816 75.9676 18.3558 80.6417 24.1216 80.6417C29.8875 80.6417 34.5616 75.9676 34.5616 70.2017Z"
                                        fill="#D14663" />
                                    <g id="bx-search_2">
                                        <path id="Path 25920_2"
                                            d="M23.4735 73.5808C24.3672 73.5807 25.2353 73.2817 25.9395 72.7312L28.1535 74.9452L28.8656 74.2332L26.6508 72.0184C27.2073 71.299 27.5036 70.4124 27.4916 69.5029C27.4796 68.5935 27.16 67.715 26.5848 67.0105C26.0095 66.306 25.2127 65.8171 24.324 65.6235C23.4354 65.4299 22.5073 65.543 21.6912 65.9443C20.875 66.3456 20.2189 67.0115 19.8296 67.8335C19.4404 68.6555 19.341 69.5851 19.5477 70.4708C19.7544 71.3565 20.255 72.1461 20.9679 72.7108C21.6808 73.2756 22.564 73.5823 23.4735 73.5808ZM23.4735 66.5292C24.0716 66.5292 24.6562 66.7065 25.1535 67.0388C25.6508 67.3711 26.0384 67.8434 26.2673 68.3959C26.4962 68.9485 26.5561 69.5565 26.4394 70.1431C26.3227 70.7297 26.0347 71.2685 25.6118 71.6915C25.1889 72.1144 24.65 72.4024 24.0634 72.5191C23.4768 72.6357 22.8688 72.5759 22.3162 72.347C21.7637 72.1181 21.2914 71.7305 20.9591 71.2332C20.6268 70.7359 20.4495 70.1513 20.4495 69.5532C20.4495 68.7512 20.7681 67.982 21.3352 67.4149C21.9023 66.8478 22.6715 66.5292 23.4735 66.5292Z"
                                            fill="white" />
                                    </g>
                                </g>
                            </g>
                        </g>
                    </g>
                </g>
            </g>
        </g>
    </g>
</svg>
