<svg width="108" height="108" viewBox="0 0 108 108" fill="none" xmlns="http://www.w3.org/2000/svg">
    <path
        d="M54 108C83.8234 108 108 83.8234 108 54C108 24.1766 83.8234 0 54 0C24.1766 0 0 24.1766 0 54C0 83.8234 24.1766 108 54 108Z"
        fill="#FAEDEF" />
    <mask id="mask0_1572_8398" style="mask-type:alpha" maskUnits="userSpaceOnUse" x="0" y="0"
        width="108" height="108">
        <path
            d="M54 108C83.8234 108 108 83.8234 108 54C108 24.1766 83.8234 0 54 0C24.1766 0 0 24.1766 0 54C0 83.8234 24.1766 108 54 108Z"
            fill="url(#paint0_linear_1572_8398)" />
    </mask>
    <g mask="url(#mask0_1572_8398)">
        <path
            d="M84.2397 23.0391H22.3197C20.3315 23.0391 18.7197 24.819 18.7197 27.0147V110.503C18.7197 112.699 20.3315 114.479 22.3197 114.479H84.2397C86.228 114.479 87.8397 112.699 87.8397 110.503V27.0147C87.8397 24.819 86.228 23.0391 84.2397 23.0391Z"
            fill="white" />
    </g>
    <path
        d="M54.0007 74.1596C63.5442 74.1596 71.2807 66.4231 71.2807 56.8796C71.2807 47.3361 63.5442 39.5996 54.0007 39.5996C44.4572 39.5996 36.7207 47.3361 36.7207 56.8796C36.7207 66.4231 44.4572 74.1596 54.0007 74.1596Z"
        fill="#D14663" />
    <g clip-path="url(#clip0_1572_8398)">
        <path
            d="M48.5412 61.0786C49.2371 61.0786 49.8012 60.5145 49.8012 59.8186C49.8012 59.1227 49.2371 58.5586 48.5412 58.5586C47.8454 58.5586 47.2812 59.1227 47.2812 59.8186C47.2812 60.5145 47.8454 61.0786 48.5412 61.0786Z"
            fill="white" />
        <path
            d="M59.8809 49.3184H48.1209C47.0074 49.3197 45.9399 49.7626 45.1525 50.55C44.3652 51.3373 43.9222 52.4049 43.9209 53.5184V60.2384C43.9222 61.3519 44.3652 62.4194 45.1525 63.2067C45.9399 63.9941 47.0074 64.437 48.1209 64.4384H59.8809C60.9944 64.437 62.0619 63.9941 62.8493 63.2067C63.6366 62.4194 64.0796 61.3519 64.0809 60.2384V53.5184C64.0796 52.4049 63.6366 51.3373 62.8493 50.55C62.0619 49.7626 60.9944 49.3197 59.8809 49.3184ZM48.1209 50.9984H59.8809C60.5492 50.9984 61.1902 51.2639 61.6628 51.7365C62.1354 52.209 62.4009 52.85 62.4009 53.5184H45.6009C45.6009 52.85 45.8664 52.209 46.339 51.7365C46.8116 51.2639 47.4526 50.9984 48.1209 50.9984ZM59.8809 62.7584H48.1209C47.4526 62.7584 46.8116 62.4929 46.339 62.0203C45.8664 61.5477 45.6009 60.9067 45.6009 60.2384V55.1984H62.4009V60.2384C62.4009 60.9067 62.1354 61.5477 61.6628 62.0203C61.1902 62.4929 60.5492 62.7584 59.8809 62.7584Z"
            fill="white" />
    </g>
    <path
        d="M63.3605 79.9199H44.6405C43.4475 79.9199 42.4805 80.887 42.4805 82.0799C42.4805 83.2729 43.4475 84.2399 44.6405 84.2399H63.3605C64.5534 84.2399 65.5205 83.2729 65.5205 82.0799C65.5205 80.887 64.5534 79.9199 63.3605 79.9199Z"
        fill="#DEE2E7" />
    <path
        d="M69.84 87.1191H38.16C36.9671 87.1191 36 88.0862 36 89.2791C36 90.4721 36.9671 91.4391 38.16 91.4391H69.84C71.0329 91.4391 72 90.4721 72 89.2791C72 88.0862 71.0329 87.1191 69.84 87.1191Z"
        fill="#F4F6F7" />
    <defs>
        <linearGradient id="paint0_linear_1572_8398" x1="54" y1="0" x2="54" y2="108"
            gradientUnits="userSpaceOnUse">
            <stop stop-color="#E3ECFA" />
            <stop offset="1" stop-color="#DAE7FF" />
        </linearGradient>
        <clipPath id="clip0_1572_8398">
            <rect width="20.16" height="20.16" fill="white"
                transform="translate(43.9209 46.7988)" />
        </clipPath>
    </defs>
</svg>
