<svg width="108" height="108" viewBox="0 0 108 108" fill="none" xmlns="http://www.w3.org/2000/svg">
    <path
        d="M54 108C83.8234 108 108 83.8234 108 54C108 24.1766 83.8234 0 54 0C24.1766 0 0 24.1766 0 54C0 83.8234 24.1766 108 54 108Z"
        fill="#FAEDEF" />
    <mask id="mask0_1575_8407" style="mask-type:alpha" maskUnits="userSpaceOnUse" x="0" y="0"
        width="108" height="108">
        <path
            d="M54 108C83.8234 108 108 83.8234 108 54C108 24.1766 83.8234 0 54 0C24.1766 0 0 24.1766 0 54C0 83.8234 24.1766 108 54 108Z"
            fill="url(#paint0_linear_1575_8407)" />
    </mask>
    <g mask="url(#mask0_1575_8407)">
        <path
            d="M84.2397 23.0391H22.3197C20.3315 23.0391 18.7197 24.819 18.7197 27.0147V110.503C18.7197 112.699 20.3315 114.479 22.3197 114.479H84.2397C86.228 114.479 87.8397 112.699 87.8397 110.503V27.0147C87.8397 24.819 86.228 23.0391 84.2397 23.0391Z"
            fill="white" />
    </g>
    <path
        d="M54.0007 74.1596C63.5442 74.1596 71.2807 66.4231 71.2807 56.8796C71.2807 47.3361 63.5442 39.5996 54.0007 39.5996C44.4572 39.5996 36.7207 47.3361 36.7207 56.8796C36.7207 66.4231 44.4572 74.1596 54.0007 74.1596Z"
        fill="#D14663" />
    <g clip-path="url(#clip0_1575_8407)">
        <path
            d="M63.1667 62.8337V61.167C63.1636 58.8815 62.3077 56.6793 60.7663 54.9917C59.225 53.3041 57.1093 52.2525 54.8333 52.0429V50.9362C55.1511 50.7528 55.3994 50.4696 55.5398 50.1306C55.6802 49.7917 55.7048 49.4159 55.6099 49.0615C55.5149 48.7071 55.3057 48.3939 55.0146 48.1706C54.7235 47.9472 54.3669 47.8262 54 47.8262C53.6331 47.8262 53.2765 47.9472 52.9854 48.1706C52.6943 48.3939 52.4851 48.7071 52.3901 49.0615C52.2952 49.4159 52.3198 49.7917 52.4602 50.1306C52.6006 50.4696 52.8489 50.7528 53.1667 50.9362V52.0429C50.8907 52.2525 48.775 53.3041 47.2337 54.9917C45.6923 56.6793 44.8364 58.8815 44.8333 61.167V62.8337C44.6123 62.8337 44.4004 62.9215 44.2441 63.0778C44.0878 63.2341 44 63.446 44 63.667C44 63.8881 44.0878 64.1 44.2441 64.2563C44.4004 64.4126 44.6123 64.5004 44.8333 64.5004H63.1667C63.3877 64.5004 63.5996 64.4126 63.7559 64.2563C63.9122 64.1 64 63.8881 64 63.667C64 63.446 63.9122 63.2341 63.7559 63.0778C63.5996 62.9215 63.3877 62.8337 63.1667 62.8337ZM46.5 61.167C46.8942 51.222 61.1092 51.2295 61.5 61.167V62.8337H46.5V61.167Z"
            fill="white" />
    </g>
    <path
        d="M63.3605 79.9199H44.6405C43.4475 79.9199 42.4805 80.887 42.4805 82.0799C42.4805 83.2729 43.4475 84.2399 44.6405 84.2399H63.3605C64.5534 84.2399 65.5205 83.2729 65.5205 82.0799C65.5205 80.887 64.5534 79.9199 63.3605 79.9199Z"
        fill="#DEE2E7" />
    <path
        d="M69.84 87.1191H38.16C36.9671 87.1191 36 88.0862 36 89.2791C36 90.4721 36.9671 91.4391 38.16 91.4391H69.84C71.0329 91.4391 72 90.4721 72 89.2791C72 88.0862 71.0329 87.1191 69.84 87.1191Z"
        fill="#F4F6F7" />
    <defs>
        <linearGradient id="paint0_linear_1575_8407" x1="54" y1="0" x2="54" y2="108"
            gradientUnits="userSpaceOnUse">
            <stop stop-color="#E3ECFA" />
            <stop offset="1" stop-color="#DAE7FF" />
        </linearGradient>
        <clipPath id="clip0_1575_8407">
            <rect width="20" height="20" fill="white" transform="translate(44 47)" />
        </clipPath>
    </defs>
</svg>
