<svg width="108" height="108" viewBox="0 0 108 108" fill="none" xmlns="http://www.w3.org/2000/svg">
    <path
        d="M54 108C83.8234 108 108 83.8234 108 54C108 24.1766 83.8234 0 54 0C24.1766 0 0 24.1766 0 54C0 83.8234 24.1766 108 54 108Z"
        fill="#F4F6F7" />
    <mask id="mask0_1572_8393" style="mask-type:alpha" maskUnits="userSpaceOnUse" x="0" y="0"
        width="108" height="108">
        <path
            d="M54 108C83.8234 108 108 83.8234 108 54C108 24.1766 83.8234 0 54 0C24.1766 0 0 24.1766 0 54C0 83.8234 24.1766 108 54 108Z"
            fill="url(#paint0_linear_1572_8393)" />
    </mask>
    <g mask="url(#mask0_1572_8393)">
        <path
            d="M84.2397 23.0391H22.3197C20.3315 23.0391 18.7197 24.819 18.7197 27.0147V110.503C18.7197 112.699 20.3315 114.479 22.3197 114.479H84.2397C86.228 114.479 87.8397 112.699 87.8397 110.503V27.0147C87.8397 24.819 86.228 23.0391 84.2397 23.0391Z"
            fill="white" />
    </g>
    <path
        d="M54.0007 74.1596C63.5442 74.1596 71.2807 66.4231 71.2807 56.8796C71.2807 47.3361 63.5442 39.5996 54.0007 39.5996C44.4572 39.5996 36.7207 47.3361 36.7207 56.8796C36.7207 66.4231 44.4572 74.1596 54.0007 74.1596Z"
        fill="#D14663" />
    <g clip-path="url(#clip0_1572_8393)">
        <path
            d="M62.3992 66.9588H59.8809C59.4164 66.9588 59.0409 66.5825 59.0409 66.1188C59.0409 65.6551 59.4164 65.2788 59.8809 65.2788H62.3992L57.3668 56.8746L52.3175 65.2872L54.8409 65.2788C55.3054 65.2788 55.6809 65.6551 55.6809 66.1188C55.6809 66.5825 55.3054 66.9588 54.8409 66.9588H52.3217C51.7127 66.9588 51.1684 66.6438 50.8652 66.1155C50.5619 65.5879 50.5636 64.9588 50.8702 64.4321L55.9127 56.0111C56.2135 55.497 56.7561 55.1862 57.3601 55.1862C57.964 55.1862 58.5058 55.4979 58.8116 56.0195L63.8449 64.4245C64.1573 64.9588 64.159 65.5879 63.8558 66.1163C63.5525 66.6447 63.0074 66.9588 62.3992 66.9588ZM58.2009 63.5988V61.0788C58.2009 60.6151 57.8254 60.2388 57.3609 60.2388C56.8964 60.2388 56.5209 60.6151 56.5209 61.0788V63.5988C56.5209 64.0625 56.8964 64.4388 57.3609 64.4388C57.8254 64.4388 58.2009 64.0625 58.2009 63.5988ZM48.9609 66.1188C48.9609 65.6551 48.5846 65.2788 48.1209 65.2788C46.7315 65.2788 45.6009 64.1482 45.6009 62.7588V50.9988C45.6009 49.6095 46.7315 48.4788 48.1209 48.4788H59.8809C61.2703 48.4788 62.4009 49.6095 62.4009 50.9988V58.5588C62.4009 59.0225 62.7764 59.3988 63.2409 59.3988C63.7054 59.3988 64.0809 59.0225 64.0809 58.5588V50.9988C64.0809 48.6829 62.1968 46.7988 59.8809 46.7988H48.1209C45.805 46.7988 43.9209 48.6829 43.9209 50.9988V62.7588C43.9209 65.0747 45.805 66.9588 48.1209 66.9588C48.5846 66.9588 48.9609 66.5825 48.9609 66.1188ZM48.1209 50.1588C47.6572 50.1588 47.2809 50.5351 47.2809 50.9988C47.2809 51.4625 47.6572 51.8388 48.1209 51.8388C48.5846 51.8388 48.9609 51.4625 48.9609 50.9988C48.9609 50.5351 48.5846 50.1588 48.1209 50.1588ZM51.4809 50.1588C51.0172 50.1588 50.6409 50.5351 50.6409 50.9988C50.6409 51.4625 51.0172 51.8388 51.4809 51.8388C51.9446 51.8388 52.3209 51.4625 52.3209 50.9988C52.3209 50.5351 51.9446 50.1588 51.4809 50.1588ZM57.3609 65.2788C56.8972 65.2788 56.5209 65.6551 56.5209 66.1188C56.5209 66.5825 56.8972 66.9588 57.3609 66.9588C57.8246 66.9588 58.2009 66.5825 58.2009 66.1188C58.2009 65.6551 57.8246 65.2788 57.3609 65.2788Z"
            fill="white" />
    </g>
    <path
        d="M63.3605 79.9199H44.6405C43.4475 79.9199 42.4805 80.887 42.4805 82.0799C42.4805 83.2729 43.4475 84.2399 44.6405 84.2399H63.3605C64.5534 84.2399 65.5205 83.2729 65.5205 82.0799C65.5205 80.887 64.5534 79.9199 63.3605 79.9199Z"
        fill="#F1C6CF" />
    <path
        d="M69.84 87.1191H38.16C36.9671 87.1191 36 88.0862 36 89.2791C36 90.4721 36.9671 91.4391 38.16 91.4391H69.84C71.0329 91.4391 72 90.4721 72 89.2791C72 88.0862 71.0329 87.1191 69.84 87.1191Z"
        fill="#F4F6F7" />
    <defs>
        <linearGradient id="paint0_linear_1572_8393" x1="54" y1="0" x2="54" y2="108"
            gradientUnits="userSpaceOnUse">
            <stop stop-color="#E3ECFA" />
            <stop offset="1" stop-color="#DAE7FF" />
        </linearGradient>
        <clipPath id="clip0_1572_8393">
            <rect width="20.16" height="20.16" fill="white"
                transform="translate(43.9209 46.7988)" />
        </clipPath>
    </defs>
</svg>
