<svg width="216" height="96" viewBox="0 0 216 96" fill="none" xmlns="http://www.w3.org/2000/svg">
    <path fill-rule="evenodd" clip-rule="evenodd"
        d="M46 83H137C137.515 83 138.017 82.9444 138.5 82.8389C138.983 82.9444 139.485 83 140 83H192C195.866 83 199 79.866 199 76C199 72.134 195.866 69 192 69H186C182.134 69 179 65.866 179 62C179 58.134 182.134 55 186 55H205C208.866 55 212 51.866 212 48C212 44.134 208.866 41 205 41H183C186.866 41 190 37.866 190 34C190 30.134 186.866 27 183 27H119C122.866 27 126 23.866 126 20C126 16.134 122.866 13 119 13H62C58.134 13 55 16.134 55 20C55 23.866 58.134 27 62 27H22C18.134 27 15 30.134 15 34C15 37.866 18.134 41 22 41H47C50.866 41 54 44.134 54 48C54 51.866 50.866 55 47 55H7C3.13401 55 0 58.134 0 62C0 65.866 3.13401 69 7 69H46C42.134 69 39 72.134 39 76C39 79.866 42.134 83 46 83ZM209 83C212.866 83 216 79.866 216 76C216 72.134 212.866 69 209 69C205.134 69 202 72.134 202 76C202 79.866 205.134 83 209 83Z"
        fill="#D14663" fill-opacity="0.16" />
    <g clip-path="url(#clip0_1342_46894)">
        <path
            d="M63.3325 28.9507C59.9365 22.0867 53.2005 5.07471 62.8005 0.59871C64.2278 0.00456232 65.7995 -0.15181 67.3158 0.149469C68.8322 0.450747 70.2247 1.19607 71.3165 2.29071L91.1565 23.4907C91.5313 23.8589 91.8299 24.2974 92.0352 24.781C92.2406 25.2646 92.3486 25.784 92.3533 26.3094C92.3579 26.8347 92.259 27.3559 92.0623 27.8431C91.8655 28.3303 91.5747 28.7739 91.2065 29.1487C90.8383 29.5235 90.3998 29.8221 89.9162 30.0274C89.4326 30.2328 88.9132 30.3409 88.3878 30.3455C87.8624 30.3502 87.3413 30.2513 86.8541 30.0545C86.3669 29.8577 85.9233 29.5669 85.5485 29.1987L66.0005 8.31871C66.4765 23.4267 75.3725 34.7187 85.3645 46.0747C86.1315 46.812 86.5742 47.8238 86.5952 48.8875C86.6162 49.9512 86.2138 50.9797 85.4765 51.7467C84.7392 52.5137 83.7274 52.9564 82.6637 52.9774C81.6 52.9984 80.5715 52.596 79.8045 51.8587C73.2385 45.0564 67.6905 37.3406 63.3325 28.9507ZM130.02 64.7987C129.476 64.2017 128.795 63.7446 128.036 63.4661C127.277 63.1876 126.462 63.0959 125.66 63.1987C121.02 63.8216 116.3 63.4257 111.828 62.0387C111.144 61.8367 110.417 61.8244 109.726 62.0034C109.035 62.1824 108.405 62.5457 107.904 63.0547C101.928 72.0787 121 71.5067 125.152 71.3747L147.084 94.7307C147.445 95.1136 147.877 95.4219 148.356 95.6379C148.835 95.8539 149.352 95.9734 149.877 95.9895C150.403 96.0057 150.926 95.9182 151.418 95.7321C151.909 95.5459 152.36 95.2648 152.742 94.9047C153.125 94.5446 153.434 94.1126 153.65 93.6334C153.866 93.1542 153.985 92.6371 154.001 92.1117C154.017 91.5864 153.93 91.0629 153.744 90.5713C153.558 90.0798 153.277 89.6296 152.916 89.2467L130.02 64.7987ZM118 55.9987C120.627 56.0024 123.228 55.4878 125.655 54.4843C128.082 53.4808 130.288 52.0081 132.144 50.1507L152.828 29.4627C153.2 29.0913 153.495 28.6503 153.697 28.1649C153.898 27.6795 154.002 27.1591 154.003 26.6335C154.003 26.108 153.9 25.5875 153.699 25.1017C153.498 24.616 153.204 24.1746 152.832 23.8027C152.461 23.4308 152.02 23.1357 151.535 22.9342C151.049 22.7327 150.529 22.6289 150.003 22.6285C149.478 22.6281 148.957 22.7313 148.472 22.9321C147.986 23.1328 147.544 23.4273 147.172 23.7987L126.488 44.4867C124.732 46.228 122.48 47.3839 120.041 47.7964C117.603 48.2088 115.096 47.8576 112.864 46.7907L140.828 18.8267C141.211 18.4577 141.515 18.0163 141.725 17.5283C141.935 17.0403 142.045 16.5154 142.049 15.9843C142.054 15.4532 141.953 14.9265 141.752 14.4349C141.551 13.9433 141.254 13.4967 140.878 13.1211C140.502 12.7456 140.056 12.4485 139.564 12.2474C139.073 12.0463 138.546 11.9451 138.015 11.9497C137.484 11.9543 136.959 12.0647 136.471 12.2743C135.983 12.4839 135.541 12.7887 135.172 13.1707L107.2 41.1347C106.134 38.9032 105.782 36.3966 106.195 33.9578C106.607 31.5191 107.763 29.2673 109.504 27.5107L130.2 6.82671C130.929 6.0723 131.332 5.06189 131.323 4.01311C131.314 2.96432 130.893 1.96107 130.152 1.21944C129.41 0.477803 128.407 0.0571275 127.358 0.0480139C126.309 0.0389002 125.299 0.442078 124.544 1.17071L103.856 21.8547C100.603 25.1188 98.5747 29.4042 98.1121 33.9892C97.6494 38.5742 98.7811 43.1786 101.316 47.0267L59.1725 89.1707C58.4438 89.9251 58.0407 90.9355 58.0498 91.9843C58.0589 93.0331 58.4796 94.0364 59.2212 94.778C59.9628 95.5196 60.9661 95.9403 62.0149 95.9494C63.0637 95.9585 64.0741 95.5553 64.8285 94.8267L106.972 52.6827C110.244 54.8453 114.079 55.9985 118 55.9987Z"
            fill="#D14663" />
    </g>
    <defs>
        <clipPath id="clip0_1342_46894">
            <rect width="96" height="96" fill="white" transform="translate(58)" />
        </clipPath>
    </defs>
</svg>
