<svg width="108" height="108" viewBox="0 0 108 108" fill="none" xmlns="http://www.w3.org/2000/svg">
    <g id="Group 26811">
        <g id="Mask Group 4">
            <path id="Ellipse 652"
                d="M54 108C83.8234 108 108 83.8234 108 54C108 24.1766 83.8234 0 54 0C24.1766 0 0 24.1766 0 54C0 83.8234 24.1766 108 54 108Z"
                fill="#FAEDEF" />
            <g id="Group">
                <g id="Mask Group">
                    <mask id="mask0_1572_8391" style="mask-type:alpha" maskUnits="userSpaceOnUse"
                        x="0" y="0" width="108" height="108">
                        <path id="Ellipse 653"
                            d="M54 108C83.8234 108 108 83.8234 108 54C108 24.1766 83.8234 0 54 0C24.1766 0 0 24.1766 0 54C0 83.8234 24.1766 108 54 108Z"
                            fill="url(#paint0_linear_1572_8391)" />
                    </mask>
                    <g mask="url(#mask0_1572_8391)">
                        <path id="Rectangle 5615"
                            d="M84.2397 51.8398H22.3197C20.3315 51.8398 18.7197 53.0592 18.7197 54.5633V111.756C18.7197 113.26 20.3315 114.48 22.3197 114.48H84.2397C86.228 114.48 87.8397 113.26 87.8397 111.756V54.5633C87.8397 53.0592 86.228 51.8398 84.2397 51.8398Z"
                            fill="white" />
                    </g>
                </g>
            </g>
            <g id="Group 26777">
                <path id="Rectangle 5617"
                    d="M45.3595 57.5996H26.6395C25.4466 57.5996 24.4795 58.5667 24.4795 59.7596C24.4795 60.9525 25.4466 61.9196 26.6395 61.9196H45.3595C46.5524 61.9196 47.5195 60.9525 47.5195 59.7596C47.5195 58.5667 46.5524 57.5996 45.3595 57.5996Z"
                    fill="#DEE2E7" />
                <path id="Rectangle 5618"
                    d="M58.3195 66.959H26.6395C25.4466 66.959 24.4795 67.926 24.4795 69.119C24.4795 70.3119 25.4466 71.279 26.6395 71.279H58.3195C59.5124 71.279 60.4795 70.3119 60.4795 69.119C60.4795 67.926 59.5124 66.959 58.3195 66.959Z"
                    fill="#F4F6F7" />
            </g>
            <g id="Group 26778">
                <path id="Rectangle 5617_2"
                    d="M45.3595 81.3613H26.6395C25.4466 81.3613 24.4795 82.3284 24.4795 83.5213C24.4795 84.7143 25.4466 85.6813 26.6395 85.6813H45.3595C46.5524 85.6813 47.5195 84.7143 47.5195 83.5213C47.5195 82.3284 46.5524 81.3613 45.3595 81.3613Z"
                    fill="#DEE2E7" />
                <path id="Rectangle 5618_2"
                    d="M58.3195 90.7207H26.6395C25.4466 90.7207 24.4795 91.6878 24.4795 92.8807C24.4795 94.0736 25.4466 95.0407 26.6395 95.0407H58.3195C59.5124 95.0407 60.4795 94.0736 60.4795 92.8807C60.4795 91.6878 59.5124 90.7207 58.3195 90.7207Z"
                    fill="#F4F6F7" />
            </g>
            <g id="Group 26779">
                <g id="Group_2">
                    <path id="Rectangle 5616"
                        d="M84.2407 17.2812H22.3207C20.3325 17.2812 18.7207 18.893 18.7207 20.8812V42.4812C18.7207 44.4695 20.3325 46.0812 22.3207 46.0812H84.2407C86.2289 46.0812 87.8407 44.4695 87.8407 42.4812V20.8812C87.8407 18.893 86.2289 17.2812 84.2407 17.2812Z"
                        fill="#D14663" />
                </g>
                <g id="Group 26775">
                    <path id="Rectangle 5617_3"
                        d="M46.0802 25.2012H27.3602C26.1673 25.2012 25.2002 26.1682 25.2002 27.3612C25.2002 28.5541 26.1673 29.5212 27.3602 29.5212H46.0802C47.2731 29.5212 48.2402 28.5541 48.2402 27.3612C48.2402 26.1682 47.2731 25.2012 46.0802 25.2012Z"
                        fill="white" />
                    <path id="Rectangle 5618_3"
                        d="M59.0402 34.5605H27.3602C26.1673 34.5605 25.2002 35.5276 25.2002 36.7205C25.2002 37.9135 26.1673 38.8805 27.3602 38.8805H59.0402C60.2331 38.8805 61.2002 37.9135 61.2002 36.7205C61.2002 35.5276 60.2331 34.5605 59.0402 34.5605Z"
                        fill="#F5F6FA" />
                </g>
            </g>
        </g>
    </g>
    <defs>
        <linearGradient id="paint0_linear_1572_8391" x1="54" y1="0" x2="54" y2="108"
            gradientUnits="userSpaceOnUse">
            <stop stop-color="#E3ECFA" />
            <stop offset="1" stop-color="#DAE7FF" />
        </linearGradient>
    </defs>
</svg>
