<svg width="108" height="108" viewBox="0 0 108 108" fill="none" xmlns="http://www.w3.org/2000/svg">
    <g id="Group 26810">
        <g id="Mask Group 3">
            <path id="Ellipse 652"
                d="M54 108C83.8234 108 108 83.8234 108 54C108 24.1766 83.8234 0 54 0C24.1766 0 0 24.1766 0 54C0 83.8234 24.1766 108 54 108Z"
                fill="#FAEDEF" />
            <g id="Group">
                <g id="Mask Group">
                    <mask id="mask0_1572_8390" style="mask-type:alpha" maskUnits="userSpaceOnUse"
                        x="0" y="0" width="108" height="108">
                        <path id="Ellipse 653"
                            d="M54 108C83.8234 108 108 83.8234 108 54C108 24.1766 83.8234 0 54 0C24.1766 0 0 24.1766 0 54C0 83.8234 24.1766 108 54 108Z"
                            fill="#6382B4" />
                    </mask>
                    <g mask="url(#mask0_1572_8390)">
                        <path id="Rectangle 5615"
                            d="M84.9604 30.9609H23.0404C21.0522 30.9609 19.4404 32.5727 19.4404 34.5609V110.161C19.4404 112.149 21.0522 113.761 23.0404 113.761H84.9604C86.9487 113.761 88.5604 112.149 88.5604 110.161V34.5609C88.5604 32.5727 86.9487 30.9609 84.9604 30.9609Z"
                            fill="white" />
                    </g>
                </g>
            </g>
            <g id="Rectangle 5618">
                <path id="Vector"
                    d="M77.7603 43.2012H30.2404C28.6498 43.2012 27.3604 44.4906 27.3604 46.0812V53.2812C27.3604 54.8718 28.6498 56.1612 30.2404 56.1612H77.7603C79.3509 56.1612 80.6404 54.8718 80.6404 53.2812V46.0812C80.6404 44.4906 79.3509 43.2012 77.7603 43.2012Z"
                    stroke="#D14663" stroke-width="1.44" />
            </g>
            <path id="Rectangle 5619"
                d="M77.7597 62.6406H30.2396C28.2514 62.6406 26.6396 64.2524 26.6396 66.2406V72.0006C26.6396 73.9889 28.2514 75.6006 30.2396 75.6006H77.7597C79.7479 75.6006 81.3596 73.9889 81.3596 72.0006V66.2406C81.3596 64.2524 79.7479 62.6406 77.7597 62.6406Z"
                fill="#F4F6F7" />
            <path id="Rectangle 5620"
                d="M77.7597 81.3594H30.2396C28.2514 81.3594 26.6396 82.9711 26.6396 84.9594V90.7194C26.6396 92.7076 28.2514 94.3194 30.2396 94.3194H77.7597C79.7479 94.3194 81.3596 92.7076 81.3596 90.7194V84.9594C81.3596 82.9711 79.7479 81.3594 77.7597 81.3594Z"
                fill="#F4F6F7" />
            <g id="Group 26782">
                <path id="Ellipse 658"
                    d="M61.9193 57.6004C63.9076 57.6004 65.5193 55.9886 65.5193 54.0004C65.5193 52.0122 63.9076 50.4004 61.9193 50.4004C59.9311 50.4004 58.3193 52.0122 58.3193 54.0004C58.3193 55.9886 59.9311 57.6004 61.9193 57.6004Z"
                    fill="#DFEAFB" />
                <path id="Path 25916"
                    d="M64.7329 69.3875C64.1569 69.3875 63.619 69.3875 63.1294 69.3566C62.5264 69.3158 61.9462 69.1094 61.4528 68.7602C60.9595 68.411 60.5719 67.9325 60.3329 67.3773L57.2953 61.3739C57.0725 61.1145 56.9612 60.7776 56.9858 60.4365C57.0103 60.0954 57.1687 59.7779 57.4263 59.5531C57.6374 59.3834 57.9007 59.2921 58.1715 59.2946C58.3709 59.3004 58.5666 59.3493 58.7452 59.4381C58.9239 59.5268 59.0811 59.6533 59.2061 59.8087L60.5857 61.6915L60.6065 61.7159V54.5627C60.6065 54.2078 60.7475 53.8675 60.9985 53.6165C61.2494 53.3656 61.5898 53.2246 61.9447 53.2246C62.2996 53.2246 62.6399 53.3656 62.8909 53.6165C63.1418 53.8675 63.2828 54.2078 63.2828 54.5627V59.2427C63.2672 59.0705 63.2877 58.897 63.343 58.7331C63.3982 58.5693 63.487 58.4187 63.6036 58.2911C63.7203 58.1634 63.8623 58.0615 64.0205 57.9917C64.1787 57.922 64.3497 57.8859 64.5226 57.8859C64.6955 57.8859 64.8666 57.922 65.0248 57.9917C65.183 58.0615 65.325 58.1634 65.4416 58.2911C65.5582 58.4187 65.647 58.5693 65.7023 58.7331C65.7575 58.897 65.778 59.0705 65.7625 59.2427V60.2183C65.7469 60.0461 65.7674 59.8726 65.8227 59.7087C65.8779 59.5449 65.9667 59.3943 66.0833 59.2667C66.2 59.139 66.3419 59.0371 66.5002 58.9673C66.6584 58.8976 66.8294 58.8615 67.0023 58.8615C67.1752 58.8615 67.3462 58.8976 67.5045 58.9673C67.6627 59.0371 67.8046 59.139 67.9213 59.2667C68.0379 59.3943 68.1267 59.5449 68.1819 59.7087C68.2372 59.8726 68.2577 60.0461 68.2421 60.2183V60.97C68.2266 60.7978 68.2471 60.6242 68.3024 60.4604C68.3576 60.2965 68.4464 60.146 68.563 60.0183C68.6796 59.8907 68.8216 59.7887 68.9798 59.719C69.1381 59.6492 69.3091 59.6132 69.482 59.6132C69.6549 59.6132 69.8259 59.6492 69.9841 59.719C70.1424 59.7887 70.2843 59.8907 70.401 60.0183C70.5176 60.146 70.6064 60.2965 70.6616 60.4604C70.7169 60.6242 70.7374 60.7978 70.7218 60.97V65.5327C70.6973 66.9359 70.063 69.3019 67.8317 69.3019C67.6697 69.3091 66.2974 69.3883 64.7357 69.3883L64.7329 69.3875Z"
                    fill="#D14663" stroke="white" stroke-width="0.72" />
            </g>
        </g>
    </g>
</svg>
