<svg width="108" height="108" viewBox="0 0 108 108" fill="none" xmlns="http://www.w3.org/2000/svg">
    <g id="Group 26812">
        <g id="Mask Group 5">
            <path id="Ellipse 652"
                d="M54 108C83.8234 108 108 83.8234 108 54C108 24.1766 83.8234 0 54 0C24.1766 0 0 24.1766 0 54C0 83.8234 24.1766 108 54 108Z"
                fill="#FAEDEF" />
            <g id="Group">
                <g id="Mask Group">
                    <mask id="mask0_1572_8392" style="mask-type:alpha" maskUnits="userSpaceOnUse"
                        x="0" y="0" width="108" height="108">
                        <path id="Ellipse 653"
                            d="M54 108C83.8234 108 108 83.8234 108 54C108 24.1766 83.8234 0 54 0C24.1766 0 0 24.1766 0 54C0 83.8234 24.1766 108 54 108Z"
                            fill="url(#paint0_linear_1572_8392)" />
                    </mask>
                    <g mask="url(#mask0_1572_8392)">
                        <path id="Rectangle 5615"
                            d="M84.2397 23.041H22.3197C20.3315 23.041 18.7197 24.821 18.7197 27.0167V110.505C18.7197 112.701 20.3315 114.481 22.3197 114.481H84.2397C86.228 114.481 87.8397 112.701 87.8397 110.505V27.0167C87.8397 24.821 86.228 23.041 84.2397 23.041Z"
                            fill="white" />
                    </g>
                </g>
            </g>
            <g id="Group 26809">
                <path id="Ellipse 665"
                    d="M53.9987 74.1616C63.5422 74.1616 71.2787 66.425 71.2787 56.8816C71.2787 47.3381 63.5422 39.6016 53.9987 39.6016C44.4553 39.6016 36.7188 47.3381 36.7188 56.8816C36.7188 66.425 44.4553 74.1616 53.9987 74.1616Z"
                    fill="#D14663" />
                <g id="ic_add_48px">
                    <path id="Path 25936"
                        d="M61.1257 63.8634C60.5633 64.4257 59.6516 64.4257 59.0892 63.8634L55.0163 59.7904C54.4539 59.2281 53.5422 59.2281 52.9798 59.7904L48.9069 63.8634C48.3445 64.4257 47.4328 64.4257 46.8704 63.8634C46.3081 63.301 46.3081 62.3893 46.8704 61.8269L50.9433 57.754C51.5057 57.1916 51.5057 56.2799 50.9433 55.7175L46.8704 51.6446C46.3081 51.0822 46.3081 50.1705 46.8704 49.6081C47.4328 49.0457 48.3445 49.0457 48.9069 49.6081L52.9798 53.681C53.5422 54.2434 54.4539 54.2434 55.0163 53.681L59.0892 49.6081C59.6516 49.0457 60.5633 49.0457 61.1257 49.6081C61.688 50.1705 61.688 51.0822 61.1257 51.6446L57.0527 55.7175C56.4904 56.2799 56.4904 57.1916 57.0527 57.754L61.1257 61.8269C61.688 62.3893 61.688 63.301 61.1257 63.8634Z"
                        fill="white" />
                </g>
            </g>
            <path id="Rectangle 5617"
                d="M63.3595 79.9219H44.6395C43.4466 79.9219 42.4795 80.8889 42.4795 82.0819C42.4795 83.2748 43.4466 84.2419 44.6395 84.2419H63.3595C64.5524 84.2419 65.5195 83.2748 65.5195 82.0819C65.5195 80.8889 64.5524 79.9219 63.3595 79.9219Z"
                fill="#DEE2E7" />
            <path id="Rectangle 5618"
                d="M69.84 87.1191H38.16C36.9671 87.1191 36 88.0862 36 89.2791C36 90.4721 36.9671 91.4391 38.16 91.4391H69.84C71.0329 91.4391 72 90.4721 72 89.2791C72 88.0862 71.0329 87.1191 69.84 87.1191Z"
                fill="#F4F6F7" />
        </g>
    </g>
    <defs>
        <linearGradient id="paint0_linear_1572_8392" x1="54" y1="0" x2="54" y2="108"
            gradientUnits="userSpaceOnUse">
            <stop stop-color="#E3ECFA" />
            <stop offset="1" stop-color="#DAE7FF" />
        </linearGradient>
    </defs>
</svg>
