<svg width="16" height="16" viewBox="0 0 16 16" fill="none" xmlns="http://www.w3.org/2000/svg">
<g id="expand 1" clip-path="url(#clip0_1730_5026)">
<path id="Vector" d="M14.0003 14H10.667V16H14.3643C14.7982 15.9994 15.2141 15.8268 15.5208 15.52C15.8275 15.2131 16 14.7971 16.0003 14.3633V10.6666H14.0003V14Z" fill="white"/>
<path id="Vector_2" d="M0 1.63667V5.33333H2V2H5.33333V0H1.636C1.20215 0.000529585 0.786237 0.173155 0.479523 0.479994C0.172809 0.786833 0.000352829 1.20282 0 1.63667Z" fill="white"/>
<path id="Vector_3" d="M2 10.6666H0V14.3633C0.000352829 14.7971 0.172809 15.2131 0.479523 15.52C0.786237 15.8268 1.20215 15.9994 1.636 16H5.33333V14H2V10.6666Z" fill="white"/>
<path id="Vector_4" d="M14.3643 0H10.667V2H14.0003V5.33333H16.0003V1.63667C16 1.20282 15.8275 0.786833 15.5208 0.479994C15.2141 0.173155 14.7982 0.000529585 14.3643 0Z" fill="white"/>
</g>
<defs>
<clipPath id="clip0_1730_5026">
<rect width="16" height="16" fill="white"/>
</clipPath>
</defs>
</svg>
