<svg width="17" height="16" viewBox="0 0 17 16" fill="none" xmlns="http://www.w3.org/2000/svg">
    <g clip-path="url(#clip0_79_1238)">
        <path
            d="M5.16667 0H3.16667C2.45942 0 1.78115 0.280952 1.28105 0.781048C0.780952 1.28115 0.5 1.95942 0.5 2.66667L0.5 4.66667C0.5 5.37391 0.780952 6.05219 1.28105 6.55228C1.78115 7.05238 2.45942 7.33333 3.16667 7.33333H5.16667C5.87391 7.33333 6.55219 7.05238 7.05228 6.55228C7.55238 6.05219 7.83333 5.37391 7.83333 4.66667V2.66667C7.83333 1.95942 7.55238 1.28115 7.05228 0.781048C6.55219 0.280952 5.87391 0 5.16667 0ZM6.5 4.66667C6.5 5.02029 6.35952 5.35943 6.10947 5.60947C5.85943 5.85952 5.52029 6 5.16667 6H3.16667C2.81304 6 2.47391 5.85952 2.22386 5.60947C1.97381 5.35943 1.83333 5.02029 1.83333 4.66667V2.66667C1.83333 2.31304 1.97381 1.97391 2.22386 1.72386C2.47391 1.47381 2.81304 1.33333 3.16667 1.33333H5.16667C5.52029 1.33333 5.85943 1.47381 6.10947 1.72386C6.35952 1.97391 6.5 2.31304 6.5 2.66667V4.66667Z"
            fill="#3F4440" />
        <path
            d="M13.8334 0H11.8334C11.1262 0 10.4479 0.280952 9.9478 0.781048C9.4477 1.28115 9.16675 1.95942 9.16675 2.66667V4.66667C9.16675 5.37391 9.4477 6.05219 9.9478 6.55228C10.4479 7.05238 11.1262 7.33333 11.8334 7.33333H13.8334C14.5407 7.33333 15.2189 7.05238 15.719 6.55228C16.2191 6.05219 16.5001 5.37391 16.5001 4.66667V2.66667C16.5001 1.95942 16.2191 1.28115 15.719 0.781048C15.2189 0.280952 14.5407 0 13.8334 0ZM15.1667 4.66667C15.1667 5.02029 15.0263 5.35943 14.7762 5.60947C14.5262 5.85952 14.187 6 13.8334 6H11.8334C11.4798 6 11.1407 5.85952 10.8906 5.60947C10.6406 5.35943 10.5001 5.02029 10.5001 4.66667V2.66667C10.5001 2.31304 10.6406 1.97391 10.8906 1.72386C11.1407 1.47381 11.4798 1.33333 11.8334 1.33333H13.8334C14.187 1.33333 14.5262 1.47381 14.7762 1.72386C15.0263 1.97391 15.1667 2.31304 15.1667 2.66667V4.66667Z"
            fill="#3F4440" />
        <path
            d="M5.16667 8.66663H3.16667C2.45942 8.66663 1.78115 8.94758 1.28105 9.44767C0.780952 9.94777 0.5 10.626 0.5 11.3333L0.5 13.3333C0.5 14.0405 0.780952 14.7188 1.28105 15.2189C1.78115 15.719 2.45942 16 3.16667 16H5.16667C5.87391 16 6.55219 15.719 7.05228 15.2189C7.55238 14.7188 7.83333 14.0405 7.83333 13.3333V11.3333C7.83333 10.626 7.55238 9.94777 7.05228 9.44767C6.55219 8.94758 5.87391 8.66663 5.16667 8.66663ZM6.5 13.3333C6.5 13.6869 6.35952 14.0261 6.10947 14.2761C5.85943 14.5261 5.52029 14.6666 5.16667 14.6666H3.16667C2.81304 14.6666 2.47391 14.5261 2.22386 14.2761C1.97381 14.0261 1.83333 13.6869 1.83333 13.3333V11.3333C1.83333 10.9797 1.97381 10.6405 2.22386 10.3905C2.47391 10.1404 2.81304 9.99996 3.16667 9.99996H5.16667C5.52029 9.99996 5.85943 10.1404 6.10947 10.3905C6.35952 10.6405 6.5 10.9797 6.5 11.3333V13.3333Z"
            fill="#3F4440" />
        <path
            d="M13.8334 8.66663H11.8334C11.1262 8.66663 10.4479 8.94758 9.9478 9.44767C9.4477 9.94777 9.16675 10.626 9.16675 11.3333V13.3333C9.16675 14.0405 9.4477 14.7188 9.9478 15.2189C10.4479 15.719 11.1262 16 11.8334 16H13.8334C14.5407 16 15.2189 15.719 15.719 15.2189C16.2191 14.7188 16.5001 14.0405 16.5001 13.3333V11.3333C16.5001 10.626 16.2191 9.94777 15.719 9.44767C15.2189 8.94758 14.5407 8.66663 13.8334 8.66663ZM15.1667 13.3333C15.1667 13.6869 15.0263 14.0261 14.7762 14.2761C14.5262 14.5261 14.187 14.6666 13.8334 14.6666H11.8334C11.4798 14.6666 11.1407 14.5261 10.8906 14.2761C10.6406 14.0261 10.5001 13.6869 10.5001 13.3333V11.3333C10.5001 10.9797 10.6406 10.6405 10.8906 10.3905C11.1407 10.1404 11.4798 9.99996 11.8334 9.99996H13.8334C14.187 9.99996 14.5262 10.1404 14.7762 10.3905C15.0263 10.6405 15.1667 10.9797 15.1667 11.3333V13.3333Z"
            fill="#3F4440" />
    </g>
    <defs>
        <clipPath id="clip0_79_1238">
            <rect width="16" height="16" fill="white" transform="translate(0.5)" />
        </clipPath>
    </defs>
</svg>
