<svg width="17" height="16" viewBox="0 0 17 16" fill="none" xmlns="http://www.w3.org/2000/svg">
    <g id="gift-card (1) 1" clip-path="url(#clip0_1441_6140)">
        <path id="Vector"
            d="M13.1667 4.00019H12.3493C13.2913 3.08019 13.4353 1.87019 12.7127 0.906861C12.3493 0.421527 11.8193 0.108194 11.22 0.0228608C10.6187 -0.0644726 10.0233 0.0908607 9.53933 0.453527C9.08733 0.792194 8.754 1.22353 8.508 1.66219C8.262 1.22286 7.92867 0.792194 7.47667 0.453527C6.99267 0.0901941 6.396 -0.0644726 5.79667 0.0228608C5.19733 0.108194 4.66733 0.422194 4.304 0.906861C3.58533 1.86486 3.724 3.06686 4.66867 4.00019H3.83333C1.99533 4.00019 0.5 5.49553 0.5 7.33353V12.6669C0.5 14.5049 1.99533 16.0002 3.83333 16.0002H13.1667C15.0047 16.0002 16.5 14.5049 16.5 12.6669V7.33353C16.5 5.49553 15.0047 4.00019 13.1667 4.00019ZM10.34 1.52019C10.5033 1.39753 10.698 1.33353 10.898 1.33353C11.1667 1.33353 11.4967 1.50753 11.6467 1.70686C12.074 2.27619 11.6753 2.80286 11.418 3.04886C10.3773 3.97219 9.27333 4.00019 9.17933 4.00086H9.17067C9.18333 3.94019 9.18733 3.87686 9.182 3.81219L9.18067 3.79819C9.24 3.39953 9.488 2.15886 10.34 1.52019ZM5.61733 3.06419C5.34133 2.80086 4.94333 2.27619 5.37067 1.70619C5.52067 1.50686 5.73867 1.37753 5.98533 1.34219C6.234 1.31019 6.478 1.37086 6.67733 1.52019C7.53 2.15953 7.778 3.40153 7.83733 3.79753L7.836 3.81153C7.83067 3.87619 7.83467 3.93953 7.84733 4.00019H7.83867C7.74467 4.00019 6.64067 3.97153 5.61733 3.06419ZM3.83333 5.33286H7.716C7.21533 6.63353 5.272 6.66553 5.16533 6.66619C4.79733 6.66619 4.49933 6.96486 4.49933 7.33286C4.49933 7.70086 4.798 7.99953 5.166 7.99953C6.11067 7.99953 7.63067 7.67419 8.49933 6.62886C9.368 7.67486 10.888 7.99953 11.8327 7.99953C12.2007 7.99953 12.4993 7.70153 12.4993 7.33286C12.4993 6.96419 12.2007 6.66619 11.8327 6.66619C11.738 6.66619 9.78067 6.64886 9.28133 5.33286H13.166C14.2687 5.33286 15.166 6.23019 15.166 7.33286V11.3329H1.83333V7.33286C1.83333 6.23019 2.73067 5.33286 3.83333 5.33286ZM13.1667 14.6662H3.83333C2.73067 14.6662 1.83333 13.7689 1.83333 12.6662H15.1667C15.1667 13.7689 14.2693 14.6662 13.1667 14.6662Z"
            fill="#1E1E1E" />
    </g>
    <defs>
        <clipPath id="clip0_1441_6140">
            <rect width="16" height="16" fill="white" transform="translate(0.5)" />
        </clipPath>
    </defs>
</svg>
