<svg width="17" height="17" viewBox="0 0 17 17" fill="none" xmlns="http://www.w3.org/2000/svg">
<rect x="0.529297" y="16.6302" width="16" height="16" rx="8" transform="rotate(-90 0.529297 16.6302)" fill="#FF0000"/>
<path d="M13.1962 7.89692C13.1956 8.02877 13.156 8.15749 13.0823 8.26681C13.0086 8.37614 12.9041 8.46115 12.7821 8.5111C12.66 8.56105 12.526 8.57369 12.3967 8.54744C12.2675 8.52118 12.149 8.4572 12.0562 8.36359L9.00283 5.29692C8.94086 5.23443 8.86712 5.18484 8.78588 5.15099C8.70464 5.11715 8.61751 5.09972 8.5295 5.09972C8.44149 5.09972 8.35435 5.11715 8.27312 5.15099C8.19188 5.18484 8.11814 5.23443 8.05617 5.29692L5.00283 8.36359C4.94086 8.42607 4.86712 8.47567 4.78588 8.50951C4.70464 8.54336 4.61751 8.56078 4.5295 8.56078C4.44149 8.56078 4.35435 8.54336 4.27312 8.50951C4.19188 8.47567 4.11814 8.42607 4.05617 8.36359C3.932 8.23868 3.8623 8.06971 3.8623 7.89359C3.8623 7.71746 3.932 7.54849 4.05617 7.42359L7.11617 4.36359C7.49117 3.98905 7.9995 3.77868 8.5295 3.77868C9.0595 3.77868 9.56783 3.98905 9.94283 4.36359L13.0028 7.42359C13.0646 7.48588 13.1135 7.55976 13.1467 7.64098C13.1799 7.72221 13.1967 7.80918 13.1962 7.89692Z" fill="white"/>
<path d="M13.1962 12.5635C13.1956 12.6954 13.156 12.8241 13.0823 12.9334C13.0086 13.0428 12.9041 13.1278 12.7821 13.1777C12.66 13.2277 12.526 13.2403 12.3967 13.2141C12.2675 13.1878 12.149 13.1238 12.0562 13.0302L8.5295 9.50355L5.00283 13.0302C4.94086 13.0927 4.86712 13.1423 4.78588 13.1761C4.70464 13.21 4.61751 13.2274 4.5295 13.2274C4.44149 13.2274 4.35435 13.21 4.27312 13.1761C4.19188 13.1423 4.11814 13.0927 4.05617 13.0302C3.932 12.9053 3.8623 12.7363 3.8623 12.5602C3.8623 12.3841 3.932 12.2151 4.05617 12.0902L8.05617 8.09021C8.11814 8.02773 8.19188 7.97813 8.27311 7.94428C8.35435 7.91044 8.44149 7.89301 8.5295 7.89301C8.61751 7.89301 8.70464 7.91044 8.78588 7.94428C8.86712 7.97813 8.94086 8.02773 9.00283 8.09021L13.0028 12.0902C13.0646 12.1525 13.1135 12.2264 13.1467 12.3076C13.1799 12.3888 13.1967 12.4758 13.1962 12.5635Z" fill="white"/>
</svg>
