<svg width="16" height="16" viewBox="0 0 16 16" fill="none" xmlns="http://www.w3.org/2000/svg">
<g id="salad" clip-path="url(#clip0_1631_2079)">
<path id="Vector" d="M15.5286 7.38063C15.3456 7.16406 15.1187 6.98888 14.8628 6.86671C14.607 6.74453 14.3281 6.67815 14.0446 6.67196C14.3925 5.37155 14.601 4.03782 14.6666 2.69329L14.6953 1.96729L13.9693 1.99996C13.1507 2.0439 12.3355 2.13651 11.5279 2.27729C11.8527 1.56275 12.014 0.784731 11.9999 -4.12187e-05H10.6666C10.674 0.514109 10.5835 1.02497 10.3999 1.50529C10.2732 1.23516 10.1012 0.988719 9.89127 0.776625C9.42524 0.31176 8.80312 0.0366116 8.14566 0.00458226C7.4882 -0.0274471 6.84228 0.185927 6.33327 0.603292C5.83925 0.194731 5.21369 -0.0205786 4.57286 -0.00262325C3.93203 0.0153321 3.31952 0.265331 2.84914 0.700914C2.37877 1.1365 2.08253 1.72804 2.01548 2.3656C1.94843 3.00316 2.11513 3.64339 2.4846 4.16729C2.10783 4.48977 1.80912 4.89352 1.61096 5.34815C1.41281 5.80278 1.32037 6.29644 1.3406 6.79196C0.895396 6.94193 0.518409 7.24601 0.277604 7.64939C0.036799 8.05277 -0.0519802 8.5289 0.0272709 8.99196C0.254977 10.4638 0.828852 11.8605 1.70169 13.0672C2.57453 14.274 3.72139 15.2563 5.04794 15.9333L5.18127 16H10.8153L10.9486 15.9333C12.2756 15.2559 13.4227 14.273 14.2955 13.0655C15.1683 11.858 15.7417 10.4605 15.9686 8.98796C16.0167 8.70416 16.0023 8.41329 15.9263 8.13566C15.8503 7.85803 15.7146 7.60035 15.5286 7.38063ZM12.6486 6.66663H10.9426L11.8046 5.80463L10.8613 4.86196L9.0566 6.66663H8.02394C7.9753 6.31599 8.00875 5.95886 8.12167 5.62336C8.23458 5.28786 8.42386 4.98317 8.6746 4.73329C9.42927 3.97863 11.6506 3.54396 13.2793 3.38929C13.19 4.50157 12.9785 5.60064 12.6486 6.66663ZM2.6666 6.66663C2.6666 6.13619 2.87732 5.62748 3.25239 5.25241C3.62746 4.87734 4.13617 4.66663 4.6666 4.66663C5.19704 4.66663 5.70575 4.87734 6.08082 5.25241C6.45589 5.62748 6.6666 6.13619 6.6666 6.66663H2.6666ZM3.7186 1.71929C3.96578 1.47287 4.30058 1.3345 4.6496 1.3345C4.99863 1.3345 5.33342 1.47287 5.5806 1.71929C5.64394 1.78596 6.3326 2.53929 6.3326 2.53929C6.3326 2.53929 7.02194 1.78329 7.0846 1.71996C7.27995 1.5215 7.53358 1.39064 7.80852 1.34645C8.08347 1.30227 8.36533 1.34708 8.61302 1.47435C8.8607 1.60161 9.06125 1.80468 9.18542 2.05393C9.30959 2.30319 9.35088 2.58559 9.30327 2.85996C8.41879 3.12984 7.66387 3.71447 7.18127 4.50329C6.75975 4.00514 6.19911 3.64416 5.57117 3.46659C4.94323 3.28903 4.27658 3.30297 3.6566 3.50663C3.43973 3.25576 3.32561 2.93222 3.33711 2.6008C3.3486 2.26938 3.48486 1.95453 3.7186 1.71929ZM14.6566 8.76796C14.4606 10.0017 13.9854 11.1744 13.2674 12.1966C12.5493 13.2189 11.6074 14.0637 10.5133 14.6666H5.48594C4.39174 14.0637 3.44969 13.2188 2.73164 12.1964C2.01359 11.174 1.5385 10.0012 1.3426 8.76729C1.32669 8.67417 1.33153 8.57868 1.35676 8.48765C1.382 8.39661 1.42702 8.31226 1.4886 8.24063C1.55211 8.16526 1.63131 8.10467 1.72066 8.0631C1.81002 8.02153 1.90738 7.99998 2.00594 7.99996H13.9933C14.0918 7.99998 14.1892 8.02153 14.2785 8.0631C14.3679 8.10467 14.4471 8.16526 14.5106 8.24063C14.5721 8.31246 14.617 8.39693 14.6423 8.48805C14.6675 8.57918 14.6724 8.67473 14.6566 8.76796Z" fill="#3A3A38"/>
</g>
<defs>
<clipPath id="clip0_1631_2079">
<rect width="16" height="16" fill="white"/>
</clipPath>
</defs>
</svg>
