<svg width="21" height="21" viewBox="0 0 21 21" fill="none" xmlns="http://www.w3.org/2000/svg">
<path d="M17.7424 20.2721C16.3681 20.2721 15.2498 19.1538 15.2498 17.7795V11.1324C15.2498 10.6746 14.8775 10.3016 14.4189 10.3016H6.1101C5.65146 10.3016 5.27922 10.6746 5.27922 11.1324V17.7795C5.27922 19.1538 4.16086 20.2721 2.78658 20.2721C1.41231 20.2721 0.293945 19.1538 0.293945 17.7795V8.41049C0.293945 7.02707 0.97859 5.74004 2.12437 4.96649L7.94053 1.04141C9.3522 0.0892234 11.1768 0.0892234 12.5885 1.04141L18.4046 4.96649C19.5504 5.74004 20.2351 7.02707 20.2351 8.41049V17.7795C20.2351 19.1538 19.1167 20.2721 17.7424 20.2721ZM6.1101 8.63981H14.4189C15.7932 8.63981 16.9115 9.75817 16.9115 11.1324V17.7795C16.9115 18.2373 17.2838 18.6104 17.7424 18.6104C18.2011 18.6104 18.5733 18.2373 18.5733 17.7795V8.41049C18.5733 7.58044 18.1628 6.80772 17.4749 6.34409L11.6587 2.41901C10.8112 1.84737 9.71778 1.84737 8.87112 2.41901L3.05413 6.34409C2.36616 6.80772 1.9557 7.58044 1.9557 8.41049V17.7795C1.9557 18.2373 2.32794 18.6104 2.78658 18.6104C3.24523 18.6104 3.61746 18.2373 3.61746 17.7795V11.1324C3.61746 9.75817 4.73583 8.63981 6.1101 8.63981ZM9.43362 19.4412V17.7795C9.43362 17.3208 9.06222 16.9486 8.60274 16.9486H7.77186C7.31239 16.9486 6.94098 17.3208 6.94098 17.7795V19.4412C6.94098 19.8999 7.31239 20.2721 7.77186 20.2721H8.60274C9.06222 20.2721 9.43362 19.8999 9.43362 19.4412ZM9.43362 14.456V12.7942C9.43362 12.3356 9.06222 11.9633 8.60274 11.9633H7.77186C7.31239 11.9633 6.94098 12.3356 6.94098 12.7942V14.456C6.94098 14.9146 7.31239 15.2868 7.77186 15.2868H8.60274C9.06222 15.2868 9.43362 14.9146 9.43362 14.456ZM13.588 19.4412V17.7795C13.588 17.3208 13.2166 16.9486 12.7571 16.9486H11.9263C11.4668 16.9486 11.0954 17.3208 11.0954 17.7795V19.4412C11.0954 19.8999 11.4668 20.2721 11.9263 20.2721H12.7571C13.2166 20.2721 13.588 19.8999 13.588 19.4412Z" fill="#D14663"/>
</svg>
