<svg width="21" height="21" viewBox="0 0 21 21" fill="none" xmlns="http://www.w3.org/2000/svg">
<g id="Kitchen 1" clip-path="url(#clip0_1789_8210)">
<path id="Vector" d="M20.0987 4.74265C19.4647 2.15612 15.9028 0.788496 13.7209 2.18022C12.7772 1.31609 11.544 0.836792 10.2644 0.836792C8.98484 0.836792 7.75167 1.31609 6.80796 2.18022C1.46457 -0.544235 -2.68651 7.25606 3.05736 9.73458C3.21274 9.7794 3.35024 9.87163 3.45065 9.9984C3.55105 10.1252 3.60934 10.2801 3.61738 10.4417V17.0355C3.61738 18.0272 4.0113 18.9782 4.71249 19.6794C5.41368 20.3806 6.3647 20.7745 7.35634 20.7745H13.1725C13.6635 20.7745 14.1497 20.6778 14.6033 20.4899C15.057 20.302 15.4691 20.0266 15.8163 19.6794C16.1635 19.3322 16.4389 18.92 16.6268 18.4664C16.8147 18.0127 16.9115 17.5265 16.9115 17.0355V10.4417C16.9195 10.2801 16.9778 10.1252 17.0782 9.9984C17.1786 9.87163 17.3161 9.7794 17.4715 9.73458C18.4552 9.38308 19.2712 8.67499 19.7577 7.75052C20.2443 6.82605 20.366 5.75258 20.0987 4.74265ZM15.2497 17.0355C15.2497 17.5864 15.0308 18.1148 14.6413 18.5043C14.2517 18.8939 13.7234 19.1127 13.1725 19.1127H7.35634C7.04887 19.1062 6.74638 19.0338 6.46928 18.9004C6.19218 18.767 5.94691 18.5757 5.75003 18.3395C5.55315 18.1032 5.40924 17.8275 5.32801 17.5309C5.24678 17.2343 5.23011 16.9237 5.27914 16.6201H15.2497V17.0355ZM16.9115 8.16837C16.4319 8.32649 16.0138 8.6307 15.7158 9.03837C15.4178 9.44603 15.2548 9.93671 15.2497 10.4417V14.9583H5.27914V10.4417C5.27401 9.93671 5.11103 9.44603 4.81303 9.03837C4.51503 8.6307 4.09695 8.32649 3.61738 8.16837C3.02445 7.95503 2.53321 7.52688 2.24087 6.96866C1.94853 6.41044 1.87638 5.76281 2.03871 5.15394C2.5256 3.40909 5.13706 2.67875 6.34516 3.90762C6.43182 3.99481 6.53665 4.06181 6.65218 4.10385C6.76771 4.14589 6.89109 4.16192 7.01352 4.15081C7.13596 4.13971 7.25443 4.10173 7.36051 4.03958C7.46658 3.97744 7.55765 3.89266 7.6272 3.7913C8.66331 2.06307 11.8605 2.06307 12.8966 3.7913C12.9663 3.89254 13.0574 3.9772 13.1635 4.03926C13.2695 4.10131 13.388 4.13924 13.5104 4.15035C13.6328 4.16145 13.7561 4.14546 13.8716 4.10351C13.9871 4.06156 14.092 3.99467 14.1787 3.90762C14.5062 3.6287 14.8971 3.43431 15.3172 3.34146C15.7372 3.24861 16.1737 3.26014 16.5882 3.37502C17.1164 3.4921 17.5924 3.77709 17.945 4.18733C18.2976 4.59757 18.5078 5.11099 18.5442 5.65071C18.5806 6.19043 18.4412 6.72742 18.1468 7.18128C17.8525 7.63514 17.4191 7.98145 16.9115 8.16837Z" fill="#D14663"/>
</g>
<defs>
<clipPath id="clip0_1789_8210">
<rect width="19.9411" height="19.9411" fill="white" transform="translate(0.293945 0.833252)"/>
</clipPath>
</defs>
</svg>
