<svg width="17" height="17" viewBox="0 0 17 17" fill="none" xmlns="http://www.w3.org/2000/svg">
<rect x="16.5293" y="0.407593" width="16" height="16" rx="8" transform="rotate(90 16.5293 0.407593)" fill="#006FDE"/>
<path d="M3.86243 9.14092C3.86298 9.00907 3.90262 8.88035 3.97633 8.77103C4.05003 8.66171 4.1545 8.57669 4.27653 8.52674C4.39855 8.47679 4.53264 8.46415 4.66185 8.4904C4.79106 8.51666 4.90958 8.58064 5.00243 8.67426L8.05576 11.7409C8.11774 11.8034 8.19147 11.853 8.27271 11.8868C8.35395 11.9207 8.44109 11.9381 8.52909 11.9381C8.6171 11.9381 8.70424 11.9207 8.78548 11.8868C8.86672 11.853 8.94045 11.8034 9.00243 11.7409L12.0558 8.67426C12.1177 8.61177 12.1915 8.56217 12.2727 8.52833C12.3539 8.49448 12.4411 8.47706 12.5291 8.47706C12.6171 8.47706 12.7042 8.49448 12.7855 8.52833C12.8667 8.56217 12.9405 8.61177 13.0024 8.67426C13.1266 8.79916 13.1963 8.96813 13.1963 9.14426C13.1963 9.32038 13.1266 9.48935 13.0024 9.61426L9.94243 12.6743C9.56743 13.0488 9.0591 13.2592 8.52909 13.2592C7.99909 13.2592 7.49076 13.0488 7.11576 12.6743L4.05576 9.61426C3.99397 9.55196 3.94509 9.47809 3.91191 9.39686C3.87874 9.31564 3.86192 9.22866 3.86243 9.14092Z" fill="white"/>
<path d="M3.86243 4.4743C3.86298 4.34245 3.90262 4.21372 3.97633 4.1044C4.05003 3.99508 4.1545 3.91007 4.27653 3.86012C4.39855 3.81017 4.53264 3.79752 4.66185 3.82378C4.79106 3.85003 4.90958 3.91402 5.00243 4.00763L8.52909 7.5343L12.0558 4.00763C12.1177 3.94514 12.1915 3.89555 12.2727 3.8617C12.3539 3.82786 12.4411 3.81043 12.5291 3.81043C12.6171 3.81043 12.7042 3.82786 12.7855 3.8617C12.8667 3.89555 12.9405 3.94514 13.0024 4.00763C13.1266 4.13254 13.1963 4.30151 13.1963 4.47763C13.1963 4.65375 13.1266 4.82272 13.0024 4.94763L9.00243 8.94763C8.94045 9.01012 8.86672 9.05971 8.78548 9.09356C8.70424 9.1274 8.6171 9.14483 8.52909 9.14483C8.44109 9.14483 8.35395 9.1274 8.27271 9.09356C8.19147 9.05971 8.11774 9.01012 8.05576 8.94763L4.05576 4.94763C3.99397 4.88534 3.94509 4.81146 3.91191 4.73023C3.87874 4.64901 3.86192 4.56203 3.86243 4.4743Z" fill="white"/>
</svg>
