<svg width="24" height="24" viewBox="0 0 24 24" fill="none" xmlns="http://www.w3.org/2000/svg">
    <g id="Frame" clip-path="url(#clip0_1355_11022)">
        <g id="Group">
            <path id="Vector"
                d="M19.1484 4.45334H17.9766V1.64018C17.9766 1.11532 17.7226 0.618351 17.2973 0.310805C16.872 0.00325768 16.3205 -0.0822892 15.822 0.0821483L4.33763 3.86993C4.00955 3.9777 3.72393 4.18641 3.52158 4.46623C3.31923 4.74606 3.2105 5.08268 3.21094 5.42801V22.3594C3.21094 23.264 3.94692 24 4.85156 24H19.1484C20.0531 24 20.7891 23.264 20.7891 22.3594V6.09396C20.7891 5.18937 20.0531 4.45334 19.1484 4.45334ZM19.3828 22.3594C19.3828 22.4886 19.2777 22.5937 19.1484 22.5937H4.85156C4.72233 22.5937 4.61719 22.4886 4.61719 22.3594V6.09396C4.61719 5.96473 4.72233 5.85959 4.85156 5.85959H19.1484C19.2777 5.85959 19.3828 5.96473 19.3828 6.09396V22.3594ZM16.2625 1.41762C16.3615 1.38499 16.437 1.42409 16.4733 1.45029C16.5096 1.47649 16.5704 1.53598 16.5704 1.64018V4.45338H7.05835L16.2625 1.41762Z"
                fill="#D14663" />
            <path id="Vector_2"
                d="M7.3125 13.9912H16.6875C17.0758 13.9912 17.3906 13.6764 17.3906 13.288C17.3906 12.8997 17.0758 12.5849 16.6875 12.5849H16.4838C16.1807 10.6444 14.6437 9.10731 12.7031 8.80422V8.4519C12.7031 8.06359 12.3883 7.74878 12 7.74878C11.6117 7.74878 11.2969 8.06359 11.2969 8.4519V8.80422C9.35634 9.10731 7.81927 10.6444 7.51617 12.5849H7.3125C6.92419 12.5849 6.60938 12.8997 6.60938 13.288C6.60938 13.6764 6.92419 13.9912 7.3125 13.9912ZM12 10.156C13.4854 10.156 14.7325 11.1954 15.0525 12.5849H8.94745C9.26747 11.1954 10.5147 10.156 12 10.156ZM7.58517 15.8907C7.19686 15.8907 6.88205 16.2055 6.88205 16.5939C6.88205 16.9822 7.19686 17.297 7.58517 17.297H10.9602C11.3485 17.297 11.6633 16.9822 11.6633 16.5939C11.6633 16.2055 11.3485 15.8907 10.9602 15.8907H7.58517ZM16.5117 18.7032H7.48828C7.09997 18.7032 6.78516 19.018 6.78516 19.4064C6.78516 19.7947 7.09997 20.1095 7.48828 20.1095H16.5117C16.9 20.1095 17.2148 19.7947 17.2148 19.4064C17.2148 19.018 16.9 18.7032 16.5117 18.7032Z"
                fill="#D14663" />
        </g>
    </g>
    <defs>
        <clipPath id="clip0_1355_11022">
            <rect width="24" height="24" fill="white" />
        </clipPath>
    </defs>
</svg>
