<svg width="17" height="17" viewBox="0 0 17 17" fill="none" xmlns="http://www.w3.org/2000/svg">
<rect x="0.529297" y="0.852783" width="16" height="16" rx="8" fill="#FFCC00"/>
<path d="M4.5293 6.60278C4.5293 6.18878 4.67863 5.85278 4.86263 5.85278H12.196C12.38 5.85278 12.5293 6.18878 12.5293 6.60278C12.5293 7.01678 12.38 7.35278 12.196 7.35278H4.86263C4.67863 7.35278 4.5293 7.01678 4.5293 6.60278ZM12.196 10.3528H4.86263C4.67863 10.3528 4.5293 10.6888 4.5293 11.1028C4.5293 11.5168 4.67863 11.8528 4.86263 11.8528H12.196C12.38 11.8528 12.5293 11.5168 12.5293 11.1028C12.5293 10.6888 12.38 10.3528 12.196 10.3528Z" fill="white"/>
</svg>
