<svg width="254" height="249" viewBox="0 0 254 249" fill="none" xmlns="http://www.w3.org/2000/svg">
    <g id="Group">
        <path id="Vector"
            d="M250.079 103.975C245.076 71.1259 241.06 48.4234 222.994 35.9857C192.518 15.0015 158.48 49.0598 115.313 26.2119C94.0563 14.9561 93.2586 1.9092 75.2559 0.172642C43.4113 -2.89133 17.3228 35.231 15.0657 38.5041C1.33254 58.3699 -3.25424 82.5908 2.31154 105.684C5.92839 120.686 8.36682 136.206 7.69602 151.617C6.52667 178.438 7.19746 203.477 33.1499 219.469C56.3195 233.753 85.49 246.354 113.31 248.554C132.219 250.055 153.422 247.627 171.651 242.69C264.529 217.533 256.96 149.134 250.079 103.975Z"
            fill="#D14663" fill-opacity="0.08" />
        <g id="Group_2">
            <g id="Group_3">
                <g id="Group_4">
                    <path id="Vector_2"
                        d="M195.664 117.504C194.957 117.567 194.277 117.64 193.651 117.704C191.729 117.895 187.514 119.059 186.064 117.14C183.671 113.976 189.753 108.594 191.285 106.184C193.18 103.202 195.528 99.8746 195.908 96.2469C196.488 90.7281 192.718 83.2728 188.076 80.3906C181.668 76.4175 172.702 79.1178 166.946 83.0182C158.598 88.6643 152.733 97.9926 150.358 107.721C147.792 118.213 151.328 129.078 150.312 139.706C148.717 156.426 125.094 135.124 129.717 179.083C130.732 188.784 132.4 199.404 137.83 207.723C140.087 211.169 144.593 215.969 149.08 215.687C155.452 215.296 155.162 206.259 157.138 202.086C159.45 197.213 163.475 193.358 167.953 190.475C173.645 186.811 180.253 183.529 182.511 176.61C183.979 172.119 181.767 167.491 178.939 163.991C177.38 162.063 174.053 159.863 174.552 157.026C174.969 154.672 178.268 152.944 179.981 151.698C185.275 147.88 190.415 143.77 195.12 139.233C199.344 135.169 206.478 129.005 205.907 122.395C205.454 117.095 199.978 117.122 195.664 117.504Z"
                        fill="url(#paint0_linear_1477_6696)" />
                    <g id="Clip path group">
                        <mask id="mask0_1477_6696" style="mask-type:luminance"
                            maskUnits="userSpaceOnUse" x="129" y="78" width="77" height="138">
                            <g id="SVGID_3_">
                                <path id="Vector_3"
                                    d="M195.664 117.504C194.957 117.567 194.277 117.64 193.651 117.704C191.729 117.895 187.514 119.059 186.064 117.14C183.671 113.976 189.753 108.594 191.285 106.184C193.18 103.202 195.528 99.8746 195.908 96.2469C196.488 90.7281 192.718 83.2728 188.076 80.3906C181.668 76.4175 172.702 79.1178 166.946 83.0182C158.598 88.6643 152.733 97.9926 150.358 107.721C147.792 118.213 151.328 129.078 150.312 139.706C148.717 156.426 125.094 135.124 129.717 179.083C130.732 188.784 132.4 199.404 137.83 207.723C140.087 211.169 144.593 215.969 149.08 215.687C155.452 215.296 155.162 206.259 157.138 202.086C159.45 197.213 163.475 193.358 167.953 190.475C173.645 186.811 180.253 183.529 182.511 176.61C183.979 172.119 181.767 167.491 178.939 163.991C177.38 162.063 174.053 159.863 174.552 157.026C174.969 154.672 178.268 152.944 179.981 151.698C185.275 147.88 190.415 143.77 195.12 139.233C199.344 135.169 206.478 129.005 205.907 122.395C205.454 117.095 199.978 117.122 195.664 117.504Z"
                                    fill="white" />
                            </g>
                        </mask>
                        <g mask="url(#mask0_1477_6696)">
                            <g id="Group_5" opacity="0.8">
                                <g id="Group_6">
                                    <path id="Vector_4"
                                        d="M161.725 227.179C161.662 227.179 161.598 227.161 161.535 227.116C150.666 219.324 145.544 207.441 145.898 190.766C146.197 176.228 150.448 160.463 154.555 145.207C157.791 133.196 160.846 121.85 161.399 112.74C161.843 105.439 163.919 98.8199 167.581 93.0556C170.5 88.446 174.434 84.3819 179.256 80.9725C187.469 75.1718 195.555 73.2443 195.636 73.2262C195.809 73.1898 195.981 73.2898 196.026 73.4716C196.063 73.6444 195.963 73.8171 195.782 73.8626C195.7 73.8808 187.723 75.7901 179.61 81.5271C172.15 86.8095 163.039 96.5196 162.042 112.794C161.48 121.968 158.416 133.351 155.171 145.389C147.085 175.401 137.921 209.423 161.906 226.607C162.051 226.707 162.088 226.916 161.979 227.061C161.925 227.125 161.825 227.179 161.725 227.179Z"
                                        fill="white" />
                                </g>
                                <g id="Group_7">
                                    <path id="Vector_5"
                                        d="M161.979 110.276C161.943 110.276 161.915 110.266 161.879 110.257C161.788 110.23 159.722 109.539 157.456 106.839C155.389 104.375 152.769 99.6926 151.98 91.3462C151.962 91.1644 152.098 91.0098 152.27 90.9916C152.443 90.9734 152.606 91.1098 152.624 91.2826C153.394 99.4289 155.924 103.984 157.918 106.375C160.066 108.957 162.06 109.63 162.079 109.639C162.251 109.694 162.341 109.876 162.287 110.048C162.242 110.185 162.115 110.276 161.979 110.276Z"
                                        fill="white" />
                                </g>
                                <g id="Group_8">
                                    <path id="Vector_6"
                                        d="M158.752 130.642C158.589 130.642 158.444 130.514 158.435 130.351C158.416 130.169 158.543 130.014 158.725 129.996C158.779 129.987 164.327 129.396 171.588 126.178C178.286 123.214 187.868 117.349 195.446 106.257C195.546 106.112 195.745 106.075 195.899 106.175C196.044 106.275 196.081 106.475 195.981 106.63C188.303 117.858 178.613 123.786 171.823 126.787C164.472 130.042 158.842 130.642 158.788 130.651C158.77 130.642 158.761 130.642 158.752 130.642Z"
                                        fill="white" />
                                </g>
                                <g id="Group_9">
                                    <path id="Vector_7"
                                        d="M147.085 180.356C147.049 180.356 147.013 180.347 146.977 180.338C146.75 180.256 141.411 178.329 137.005 172.919C134.413 169.737 132.7 166.018 131.911 161.863C130.923 156.681 131.376 150.807 133.262 144.398C133.316 144.225 133.488 144.125 133.66 144.179C133.833 144.234 133.932 144.407 133.878 144.58C129.69 158.827 133.534 167.618 137.486 172.492C141.783 177.774 147.14 179.72 147.194 179.738C147.366 179.802 147.448 179.983 147.394 180.147C147.339 180.265 147.212 180.356 147.085 180.356Z"
                                        fill="white" />
                                </g>
                                <g id="Group_10">
                                    <path id="Vector_8"
                                        d="M148.962 169.409C148.799 169.409 148.663 169.291 148.645 169.128C148.617 168.946 148.744 168.791 148.926 168.764C149.188 168.727 174.842 165.236 181.124 155.499C181.223 155.344 181.423 155.308 181.568 155.399C181.722 155.499 181.758 155.699 181.668 155.844C178.948 160.054 172.621 163.609 162.858 166.427C155.615 168.518 149.08 169.391 149.007 169.4C148.989 169.409 148.98 169.409 148.962 169.409Z"
                                        fill="white" />
                                </g>
                            </g>
                        </g>
                    </g>
                </g>
            </g>
            <g id="Group_11">
                <g id="Group_12">
                    <path id="Vector_9"
                        d="M249.962 103.484C247.278 93.7922 238.794 86.4459 229.076 83.9184C223.166 82.3727 215.941 81.8545 209.913 82.9092C201.429 84.3912 194.422 89.9372 188.965 96.3743C182.547 103.93 181.949 113.303 179.655 122.604C179.202 124.432 176.238 134.478 173.999 128.587C170.871 120.377 163.882 121.823 163.882 121.823C158.416 122.959 154.219 126.978 152.198 132.042C146.804 145.571 148.472 163.136 149.614 177.31C150.149 183.975 150.974 190.612 151.962 197.222C152.207 198.858 153.376 200.195 154.963 200.658C156.549 201.113 158.253 200.604 159.323 199.349C160.438 198.04 161.607 196.849 162.686 195.794C173.083 185.648 189.354 184.148 203.088 183.538C211.11 183.184 217.709 182.675 224.698 178.356C227.599 176.565 230.753 174.356 232.104 171.082C233.319 168.118 233.554 163.036 231.723 160.281C229.439 156.845 224.372 157.063 221.353 154.535C216.476 150.444 229.23 147.598 231.805 146.771C235.902 145.452 238.622 142.17 241.685 139.334C244.033 137.161 246.236 134.797 247.94 132.078C253.116 123.759 252.482 112.612 249.962 103.484Z"
                        fill="url(#paint1_linear_1477_6696)" />
                    <g id="Clip path group_2">
                        <mask id="mask1_1477_6696" style="mask-type:luminance"
                            maskUnits="userSpaceOnUse" x="148" y="82" width="104" height="119">
                            <g id="SVGID_6_">
                                <path id="Vector_10"
                                    d="M249.962 103.484C247.278 93.7922 238.794 86.4459 229.076 83.9184C223.166 82.3727 215.941 81.8545 209.913 82.9092C201.429 84.3912 194.422 89.9372 188.965 96.3743C182.547 103.93 181.949 113.303 179.655 122.604C179.202 124.432 176.238 134.478 173.999 128.587C170.871 120.377 163.882 121.823 163.882 121.823C158.416 122.959 154.219 126.978 152.198 132.042C146.804 145.571 148.472 163.136 149.614 177.31C150.149 183.975 150.974 190.612 151.962 197.222C152.207 198.858 153.376 200.195 154.963 200.658C156.549 201.113 158.253 200.604 159.323 199.349C160.438 198.04 161.607 196.849 162.686 195.794C173.083 185.648 189.354 184.148 203.088 183.538C211.11 183.184 217.709 182.675 224.698 178.356C227.599 176.565 230.753 174.356 232.104 171.082C233.319 168.118 233.554 163.036 231.723 160.281C229.439 156.845 224.372 157.063 221.353 154.535C216.476 150.444 229.23 147.598 231.805 146.771C235.902 145.452 238.622 142.17 241.685 139.334C244.033 137.161 246.236 134.797 247.94 132.078C253.116 123.759 252.482 112.612 249.962 103.484Z"
                                    fill="white" />
                            </g>
                        </mask>
                        <g mask="url(#mask1_1477_6696)">
                            <g id="Group_13" opacity="0.8">
                                <g id="Group_14">
                                    <path id="Vector_11"
                                        d="M150.349 204.15C150.294 204.15 150.24 204.141 150.185 204.113C149.995 204.022 149.904 203.786 149.995 203.595C150.122 203.322 162.994 176.047 180.761 148.089C191.195 131.66 201.256 118.213 210.666 108.121C222.459 95.4651 233.264 88.0643 242.782 86.1186C242.991 86.0732 243.199 86.2095 243.245 86.4186C243.29 86.6278 243.154 86.8369 242.945 86.8823C233.591 88.7916 222.921 96.1197 211.237 108.648C201.864 118.704 191.829 132.115 181.423 148.507C163.683 176.419 150.838 203.659 150.711 203.922C150.639 204.059 150.494 204.15 150.349 204.15Z"
                                        fill="white" />
                                </g>
                                <g id="Group_15">
                                    <path id="Vector_12"
                                        d="M196.606 126.087C196.588 126.087 196.561 126.087 196.543 126.078C196.334 126.041 196.189 125.841 196.217 125.632C196.271 125.268 202.009 88.7734 196.316 82.6182C196.171 82.4637 196.18 82.2091 196.334 82.0636C196.488 81.9181 196.742 81.9272 196.887 82.0818C202.834 88.5189 197.232 124.232 196.987 125.75C196.96 125.95 196.797 126.087 196.606 126.087Z"
                                        fill="white" />
                                </g>
                                <g id="Group_16">
                                    <path id="Vector_13"
                                        d="M264.619 107.194C264.547 107.194 264.474 107.175 264.411 107.13C249.155 97.5652 217.419 102.557 217.093 102.611C216.884 102.648 216.685 102.502 216.648 102.284C216.612 102.075 216.757 101.875 216.975 101.838C217.056 101.829 225.124 100.538 234.995 100.466C244.124 100.393 256.715 101.384 264.828 106.466C265.009 106.584 265.063 106.821 264.955 107.003C264.873 107.13 264.746 107.194 264.619 107.194Z"
                                        fill="white" />
                                </g>
                                <g id="Group_17">
                                    <path id="Vector_14"
                                        d="M163.157 179.229C163.13 179.229 163.103 179.229 163.067 179.22C162.858 179.174 162.731 178.965 162.777 178.756C166.937 160.709 151.328 134.397 151.165 134.133C151.056 133.951 151.11 133.706 151.301 133.597C151.482 133.488 151.727 133.542 151.835 133.733C151.872 133.797 155.869 140.488 159.287 149.344C162.45 157.536 165.75 169.328 163.538 178.938C163.493 179.111 163.33 179.229 163.157 179.229Z"
                                        fill="white" />
                                </g>
                                <g id="Group_18">
                                    <path id="Vector_15"
                                        d="M176.066 156.772C175.902 156.772 175.748 156.672 175.694 156.508C175.63 156.299 175.739 156.081 175.939 156.017C176.075 155.972 190.089 151.362 207.049 148.025C222.731 144.943 244.233 142.343 257.576 147.48C257.776 147.553 257.875 147.78 257.803 147.98C257.73 148.18 257.504 148.28 257.304 148.207C244.133 143.134 222.785 145.725 207.203 148.789C190.288 152.117 176.328 156.708 176.192 156.754C176.147 156.772 176.102 156.772 176.066 156.772Z"
                                        fill="white" />
                                </g>
                            </g>
                        </g>
                    </g>
                </g>
            </g>
        </g>
        <g id="Group_19">
            <g id="Group_20">
                <g id="Group_21">
                    <path id="Vector_16"
                        d="M146.17 224.088L135.219 229.334L150.584 238.235C151.971 239.035 153.621 239.272 155.171 238.871L161.806 237.189L146.17 224.088Z"
                        fill="#97A6B7" />
                    <path id="Vector_17" opacity="0.2"
                        d="M146.17 224.088L135.219 229.334L150.584 238.235C151.971 239.035 153.621 239.272 155.171 238.871L161.806 237.189L146.17 224.088Z"
                        fill="#97A6B7" />
                </g>
                <path id="Vector_18"
                    d="M148.481 226.397L161.797 237.19C161.797 237.19 211.536 221.024 221.77 201.804L216.539 197.176L148.481 226.397Z"
                    fill="#97A6B7" />
            </g>
            <path id="Vector_19"
                d="M155.026 226.379L136.38 232.616C135.809 232.807 135.228 232.962 134.648 233.08C131.022 233.807 127.233 233.125 124.07 231.134L36.4404 175.865L40.2204 160.79L47.3907 132.178L49.9923 134.451L155.026 226.379Z"
                fill="#D8DEE8" />
            <g id="Group_22">
                <path id="Vector_20"
                    d="M199.697 165.091V171.337L198.111 170.055L130.515 117.213L131.231 109.966C131.321 109.057 131.793 108.239 132.491 107.703C132.717 107.53 132.971 107.384 133.243 107.266C134.358 106.812 135.636 107.012 136.561 107.784L196.588 158.299C198.582 159.99 199.697 162.472 199.697 165.091Z"
                    fill="#97A6B7" />
                <path id="Vector_21" opacity="0.3"
                    d="M198.147 165.745V170.055L130.533 117.213L131.24 109.966C131.33 109.057 131.793 108.239 132.5 107.703C133.37 107.612 134.249 107.866 134.938 108.439L195.001 158.954C196.996 160.645 198.147 163.127 198.147 165.745Z"
                    fill="#97A6B7" />
            </g>
            <path id="Vector_22"
                d="M112.984 135.942C104.852 139.97 93.8206 135.215 84.9099 124.977L54.3978 140.797L52.7299 139.47L51.4608 138.461L11.7661 106.984C11.7661 106.984 78.5011 68.9257 79.7158 68.3256C80.4863 67.9437 81.293 67.6437 82.1179 67.4164L83.4595 67.1164C90.8836 65.8435 99.8214 70.3713 107.345 78.7904C110.717 82.5544 113.799 87.1004 116.328 92.2555C117.888 95.4104 119.129 98.5925 120.072 101.729C120.29 102.457 120.498 103.193 120.689 103.92L121.223 106.166C124.179 119.795 121.269 131.842 112.984 135.942Z"
                fill="#AABBCC" />
            <path id="Vector_23"
                d="M221.752 185.92L120.081 101.729L51.5332 139.924C51.5332 139.924 105.704 183.138 155.026 226.388C190.315 227.188 214.509 201.831 222.35 192.285C223.936 190.348 223.664 187.502 221.752 185.92Z"
                fill="#BFC8D6" />
            <path id="Vector_24"
                d="M50.6267 169.564C49.1764 171.755 47.309 173.483 45.0338 174.601C42.4141 175.901 39.4861 176.283 36.4404 175.865C26.6232 174.528 15.4282 164.918 8.42109 150.68C-0.770601 132.005 0.725089 112.44 11.7569 106.984C12.2102 106.757 12.6725 106.566 13.1438 106.393C24.1304 102.411 39.5677 112.994 48.3787 130.905C48.9588 132.087 49.5027 133.278 49.9922 134.46C55.7302 148.143 55.7846 161.79 50.6267 169.564Z"
                fill="#BFC8D6" />
            <g id="Group_23">
                <path id="Vector_25"
                    d="M207.692 182.102C208.943 183.084 208.907 184.511 207.611 185.275L201.555 188.875C200.259 189.648 198.192 189.466 196.951 188.475L180.897 175.692C179.673 174.71 179.718 173.31 181.015 172.546L187.052 169C188.339 168.246 190.379 168.418 191.611 169.391L207.692 182.102Z"
                    fill="#97A6B7" />
                <path id="Vector_26"
                    d="M100.646 168.2C98.8968 169.2 96.2317 169 94.7088 167.746L68.4209 146.116C66.9343 144.889 67.1337 143.097 68.8742 142.125L117.842 114.503C119.537 113.549 122.139 113.74 123.635 114.922L150.203 135.906C151.744 137.124 151.618 138.906 149.913 139.888L100.646 168.2Z"
                    fill="#97A6B7" />
                <path id="Vector_27"
                    d="M149.215 139.333L99.9573 167.636C98.652 168.391 96.6577 168.237 95.5065 167.3L69.2096 145.68C68.0855 144.761 68.2396 143.416 69.545 142.688L71.8837 141.37L118.522 115.049C119.791 114.331 121.74 114.476 122.873 115.367L145.218 133.014L149.433 136.351C150.593 137.26 150.494 138.597 149.215 139.333Z"
                    fill="#EAEDF3" />
                <path id="Vector_28"
                    d="M149.215 139.333L99.9573 167.636C98.652 168.391 96.6577 168.236 95.5065 167.3L69.2096 145.679C68.0855 144.761 68.2396 143.416 69.545 142.688L71.8837 141.37C74.7844 142.915 78.501 143.706 80.9485 143.07C89.6053 140.797 97.3739 130.405 106.62 137.351C112.059 141.443 116.89 149.425 124.75 146.716C131.63 144.343 134.975 137.051 141.193 133.824C142.48 133.16 143.849 132.933 145.218 133.033L149.433 136.369C150.593 137.26 150.494 138.597 149.215 139.333Z"
                    fill="white" />
                <g id="Group_24">
                    <path id="Vector_29"
                        d="M119.9 172.101C120.988 172.992 120.879 174.292 119.646 175.001L113.21 178.729C111.977 179.447 110.092 179.302 109.004 178.401L104.037 174.319C102.958 173.428 103.076 172.137 104.309 171.428L110.726 167.728C111.95 167.018 113.827 167.164 114.905 168.046L119.9 172.101Z"
                        fill="#97A6B7" />
                    <path id="Vector_30"
                        d="M134.458 163.681C135.555 164.563 135.446 165.854 134.231 166.554L127.841 170.255C126.617 170.964 124.741 170.819 123.644 169.937L118.658 165.882C117.57 165 117.688 163.718 118.912 163.009L125.284 159.336C126.499 158.635 128.366 158.772 129.454 159.654L134.458 163.681Z"
                        fill="#97A6B7" />
                    <path id="Vector_31"
                        d="M148.916 155.317C150.013 156.19 149.922 157.472 148.708 158.172L142.362 161.845C141.148 162.545 139.271 162.409 138.174 161.527L133.18 157.508C132.092 156.635 132.192 155.353 133.406 154.653L139.743 151.007C140.948 150.307 142.816 150.453 143.903 151.317L148.916 155.317Z"
                        fill="#97A6B7" />
                    <path id="Vector_32"
                        d="M163.275 147.016C164.372 147.88 164.29 149.153 163.085 149.853L156.785 153.499C155.579 154.199 153.712 154.053 152.615 153.18L147.611 149.189C146.523 148.316 146.614 147.052 147.819 146.361L154.11 142.743C155.316 142.052 157.174 142.188 158.262 143.052L163.275 147.016Z"
                        fill="#97A6B7" />
                </g>
                <g id="Group_25">
                    <path id="Vector_33"
                        d="M130.814 181.001L125.792 176.901C124.695 176.01 122.819 175.865 121.586 176.574L115.15 180.301C113.917 181.02 113.799 182.329 114.887 183.22L119.9 187.348C120.997 188.248 122.891 188.402 124.124 187.675L130.569 183.92C131.802 183.202 131.911 181.893 130.814 181.001Z"
                        fill="#97A6B7" />
                    <path id="Vector_34"
                        d="M145.399 172.51L140.359 168.446C139.262 167.564 137.386 167.418 136.162 168.127L129.771 171.828C128.548 172.537 128.439 173.837 129.536 174.728L134.567 178.82C135.664 179.711 137.558 179.865 138.782 179.147L145.182 175.419C146.405 174.692 146.505 173.401 145.399 172.51Z"
                        fill="#97A6B7" />
                    <path id="Vector_35"
                        d="M159.885 164.072L154.835 160.036C153.739 159.154 151.862 159.017 150.648 159.717L144.302 163.4C143.088 164.109 142.988 165.391 144.085 166.273L149.125 170.328C150.231 171.219 152.116 171.364 153.331 170.646L159.685 166.945C160.909 166.245 160.99 164.954 159.885 164.072Z"
                        fill="#97A6B7" />
                    <path id="Vector_36"
                        d="M174.27 155.699L169.203 151.698C168.097 150.826 166.23 150.689 165.024 151.389L158.724 155.044C157.519 155.744 157.428 157.026 158.525 157.899L163.583 161.927C164.689 162.809 166.565 162.954 167.78 162.245L174.089 158.572C175.304 157.854 175.376 156.581 174.27 155.699Z"
                        fill="#97A6B7" />
                </g>
                <path id="Vector_37"
                    d="M141.828 189.984C142.943 190.894 142.843 192.212 141.601 192.939L135.138 196.731C133.896 197.458 131.992 197.303 130.886 196.394L125.828 192.23C124.722 191.321 124.84 190.003 126.073 189.284L132.518 185.52C133.751 184.802 135.645 184.948 136.751 185.848L141.828 189.984Z"
                    fill="#97A6B7" />
                <path id="Vector_38"
                    d="M156.449 181.42C157.564 182.32 157.473 183.629 156.25 184.347L149.832 188.111C148.599 188.83 146.704 188.684 145.589 187.784L140.513 183.656C139.407 182.756 139.507 181.447 140.74 180.729L147.139 176.992C148.363 176.274 150.249 176.419 151.355 177.319L156.449 181.42Z"
                    fill="#97A6B7" />
                <path id="Vector_39"
                    d="M170.962 172.919C172.077 173.81 171.995 175.11 170.78 175.828L164.417 179.565C163.193 180.283 161.299 180.138 160.184 179.238L155.098 175.146C153.992 174.255 154.083 172.955 155.298 172.246L161.652 168.537C162.867 167.827 164.752 167.973 165.858 168.855L170.962 172.919Z"
                    fill="#97A6B7" />
                <path id="Vector_40"
                    d="M185.375 164.473C186.49 165.354 186.426 166.646 185.212 167.355L178.893 171.064C177.679 171.773 175.793 171.628 174.669 170.737L169.566 166.673C168.451 165.791 168.532 164.5 169.747 163.791L176.056 160.108C177.262 159.408 179.138 159.545 180.253 160.427L185.375 164.473Z"
                    fill="#97A6B7" />
                <g id="Group_26">
                    <path id="Vector_41"
                        d="M152.941 199.049C154.065 199.967 153.965 201.295 152.733 202.031L146.26 205.85C145.018 206.586 143.106 206.431 141.982 205.513L136.869 201.313C135.754 200.394 135.863 199.067 137.096 198.34L143.559 194.548C144.792 193.821 146.695 193.976 147.81 194.885L152.941 199.049Z"
                        fill="#97A6B7" />
                    <path id="Vector_42"
                        d="M167.599 190.412C168.723 191.321 168.641 192.639 167.409 193.367L160.982 197.158C159.749 197.885 157.836 197.74 156.721 196.822L151.6 192.657C150.485 191.748 150.575 190.43 151.808 189.703L158.226 185.939C159.45 185.22 161.353 185.366 162.468 186.266L167.599 190.412Z"
                        fill="#97A6B7" />
                    <path id="Vector_43"
                        d="M182.139 181.838C183.263 182.738 183.19 184.047 181.976 184.775L175.594 188.539C174.37 189.257 172.467 189.112 171.343 188.211L166.203 184.075C165.088 183.175 165.17 181.865 166.393 181.147L172.766 177.41C173.981 176.692 175.875 176.837 176.999 177.738L182.139 181.838Z"
                        fill="#97A6B7" />
                </g>
                <g id="Group_27">
                    <path id="Vector_44"
                        d="M163.991 208.059C165.124 208.987 165.033 210.332 163.801 211.069L157.31 214.924C156.068 215.66 154.138 215.505 153.014 214.578L147.856 210.332C146.732 209.405 146.831 208.068 148.073 207.332L154.545 203.504C155.778 202.777 157.7 202.922 158.824 203.84L163.991 208.059Z"
                        fill="#97A6B7" />
                    <path id="Vector_45"
                        d="M178.667 199.349C179.8 200.267 179.727 201.604 178.495 202.331L172.059 206.159C170.826 206.895 168.904 206.741 167.771 205.822L162.595 201.613C161.471 200.695 161.553 199.367 162.785 198.631L169.212 194.83C170.445 194.103 172.349 194.258 173.482 195.167L178.667 199.349Z"
                        fill="#97A6B7" />
                    <path id="Vector_46"
                        d="M193.243 190.703C194.376 191.612 194.313 192.939 193.089 193.657L186.698 197.458C185.474 198.185 183.553 198.04 182.42 197.122L177.235 192.948C176.101 192.039 176.183 190.721 177.407 189.993L183.788 186.22C185.012 185.502 186.916 185.648 188.04 186.548L193.243 190.703Z"
                        fill="#97A6B7" />
                </g>
            </g>
            <path id="Vector_47"
                d="M120.072 101.711L52.7297 139.47L51.932 139.915C51.7779 139.433 51.6238 138.942 51.4606 138.46C50.6176 135.951 49.5932 133.414 48.3514 130.905C45.9401 125.995 43.0394 121.64 39.8577 117.985L46.5747 113.567C46.5747 113.567 53.1104 120.122 54.8508 125.577L106.683 96.965L98.1896 84.0818L107.336 78.7903C110.708 82.5543 113.79 87.1003 116.319 92.2554C117.878 95.4012 119.129 98.5834 120.072 101.711Z"
                fill="#97A6B7" />
            <path id="Vector_48"
                d="M98.1897 84.0728C98.1897 84.0728 102.731 95.965 101.272 99.9381C106.674 96.956 107.01 97.1196 107.01 97.1196L98.1897 84.0728Z"
                fill="#97A6B7" />
            <path id="Vector_49" opacity="0.1"
                d="M134.648 233.08C131.022 233.807 127.233 233.125 124.07 231.134L36.4404 175.865C26.6232 174.528 15.4282 164.918 8.42109 150.68C-0.770601 132.005 0.725089 112.439 11.7569 106.984C12.2102 106.757 12.6725 106.566 13.1438 106.393C17.4949 110.33 21.2115 116.222 19.8971 124.486C17.0689 142.179 16.4162 151.68 29.6962 156.435C33.1498 157.663 36.8755 159.108 40.2204 160.799C40.6827 161.036 41.1359 161.272 41.5801 161.508C45.2423 163.509 48.288 165.836 49.7203 168.546C49.7203 168.546 50.0375 168.918 50.6267 169.573C54.6424 174.028 71.2854 191.675 86.0973 195.485C100.791 199.249 128.049 219.206 134.648 233.08Z"
                fill="#97A6B7" />
        </g>
        <g id="Group_28">
            <path id="Vector_50"
                d="M229.339 233.671C229.457 233.044 231.478 232.471 232.485 233.316C232.983 233.735 233.328 234.58 233.038 234.971C232.929 235.108 233.364 235.353 232.947 235.362C231.587 235.371 229.23 234.298 229.339 233.671Z"
                fill="url(#paint2_linear_1477_6696)" />
            <path id="Vector_51"
                d="M231.56 233.671L233.663 233.78C232.938 232.453 233.808 228.834 233.808 228.834L231.533 228.898C231.533 228.898 231.587 229.943 231.723 231.507C231.778 232.044 231.696 232.844 231.56 233.671Z"
                fill="url(#paint3_linear_1477_6696)" />
            <path id="Vector_52"
                d="M231.279 233.644C231.279 233.644 233.79 233.062 234.062 233.562C234.334 234.062 234.542 235.398 232.947 235.353C231.361 235.308 231.143 234.062 231.279 233.644Z"
                fill="url(#paint4_linear_1477_6696)" />
            <path id="Vector_53"
                d="M202.707 238.235C202.906 237.626 204.991 237.344 205.87 238.326C206.306 238.808 206.523 239.699 206.188 240.035C206.061 240.163 206.46 240.463 206.043 240.408C204.692 240.235 202.507 238.844 202.707 238.235Z"
                fill="url(#paint5_linear_1477_6696)" />
            <path id="Vector_54"
                d="M205.172 238.826L207.239 239.235C206.704 237.817 208.091 234.362 208.091 234.362L205.834 234.098C205.834 234.098 205.743 235.144 205.653 236.708C205.626 237.244 205.426 238.026 205.172 238.826Z"
                fill="url(#paint6_linear_1477_6696)" />
            <path id="Vector_55"
                d="M204.638 238.481C204.638 238.481 207.203 238.262 207.402 238.79C207.602 239.326 207.62 240.681 206.052 240.408C204.475 240.144 204.438 238.881 204.638 238.481Z"
                fill="url(#paint7_linear_1477_6696)" />
            <path id="Vector_56"
                d="M223.628 165.845C224.19 175.501 224.979 185.539 226.04 195.931C227.272 207.968 228.768 219.47 230.436 230.398C232.503 231.107 234.406 230.398 234.406 230.398C234.406 230.398 236.818 226.434 238.667 215.887C239.845 209.123 239.927 209.205 239.945 208.023C240.008 202.068 237.933 200.34 237.534 195.021C237.162 190.094 238.73 188.621 239.664 183.075C240.38 178.811 240.652 172.601 238.386 164.482C233.464 164.945 228.542 165.391 223.628 165.845Z"
                fill="url(#paint8_linear_1477_6696)" />
            <path id="Vector_57" opacity="0.3"
                d="M223.628 165.845C224.19 175.501 224.979 185.538 226.04 195.93C227.272 207.968 228.768 219.469 230.436 230.398C232.503 231.107 234.406 230.398 234.406 230.398C234.379 229.389 234.307 227.861 234.098 226.016C233.536 221.133 232.648 219.742 232.557 216.742C232.439 212.905 233.826 212.787 234.098 209.014C234.524 203.158 231.315 201.776 231.016 196.649C230.699 191.239 234.08 189.457 236.664 182.738C238.196 178.774 239.546 172.828 238.377 164.472C233.464 164.945 228.542 165.391 223.628 165.845Z"
                fill="url(#paint9_linear_1477_6696)" />
            <path id="Vector_58"
                d="M213.258 165.545C210.43 175.101 207.692 186.975 206.16 200.767C204.674 214.16 204.701 226.052 205.308 235.844C206.206 236.099 207.103 236.344 208.01 236.599C213.24 231.116 215.107 226.07 215.814 222.388C216.866 216.942 215.28 215.096 216.667 208.932C216.984 207.514 217.437 205.995 222.631 195.776C227.59 186.029 228.605 184.611 229.448 181.111C230.644 176.11 230.327 171.682 229.874 168.709C224.335 167.664 218.797 166.6 213.258 165.545Z"
                fill="url(#paint10_linear_1477_6696)" />
            <g id="Group_29">
                <path id="Vector_59"
                    d="M190.968 144.889L182.093 124.05C181.649 123.004 182.248 121.813 183.344 121.55L199.598 117.595C200.477 117.376 201.374 117.84 201.719 118.686L209.877 138.715C210.285 139.715 209.75 140.843 208.717 141.161L193.18 145.925C192.291 146.198 191.34 145.752 190.968 144.889Z"
                    fill="#26264F" />
                <path id="Vector_60"
                    d="M191.376 143.889L183.091 124.423C182.674 123.45 183.236 122.341 184.26 122.086L199.434 118.386C200.25 118.186 201.093 118.622 201.42 119.404L209.043 138.115C209.424 139.043 208.925 140.106 207.964 140.397L193.452 144.852C192.609 145.107 191.711 144.698 191.376 143.889Z"
                    fill="#F4F7FA" />
            </g>
            <path id="Vector_61"
                d="M186.254 138.17L185.991 135.715L184.577 133.015C184.387 132.651 184.287 132.242 184.287 131.823V129.141L185.991 133.096C185.991 133.096 187.106 132.078 187.532 131.869C187.958 131.66 187.904 132.505 187.587 132.833C187.269 133.151 187.75 135.769 187.424 136.033L187.532 137.633L186.254 138.17Z"
                fill="url(#paint11_linear_1477_6696)" />
            <path id="Vector_62"
                d="M199.779 122.523C201.102 119.277 203.949 117.404 205.417 116.44C208.907 114.149 211.137 114.567 219.15 113.34C229.829 111.712 231.107 110.167 234.696 111.421C239.41 113.067 241.876 117.358 243 119.322C248.692 129.241 242.039 134.278 243.743 154.026C244.441 162.09 246.227 169.1 241.93 173.246C241.024 174.119 240.017 174.574 237.987 175.492C229.965 179.111 222.767 178.492 218.398 178.056C213.585 177.574 211.155 177.301 209.877 175.601C207.837 172.883 209.941 169.419 210.303 163.427C210.566 159.127 209.587 155.717 207.638 148.907C203.124 133.051 197.241 128.75 199.779 122.523Z"
                fill="url(#paint12_linear_1477_6696)" />
            <g id="Group_30">
                <g id="Group_31">
                    <path id="Vector_63"
                        d="M217.646 107.493C217.156 105.757 218.008 104.148 218.199 103.802C218.987 102.347 219.187 102.157 219.558 101.902L220.075 101.584C220.075 101.584 220.102 101.575 220.138 101.556C220.474 101.438 221.607 101.402 221.843 101.456C222.577 101.611 223.365 104.62 223.139 108.875C223.166 109.039 223.202 109.203 223.229 109.366C223.347 110.039 223.438 110.694 223.51 111.339C223.583 111.958 224.453 111.939 225.07 111.903C227.571 111.739 228.795 111.958 228.904 112.33C229.103 113.03 226.139 115.322 222.468 115.84C217.546 115.876 213.548 115.349 213.983 114.576C214.174 114.231 217.981 113.23 219.06 112.239C220.039 111.33 219.957 110.394 220.039 109.73C219.73 109.566 218.008 108.775 217.646 107.493Z"
                        fill="url(#paint13_linear_1477_6696)" />
                    <path id="Vector_64"
                        d="M218.552 100.375C218.552 101.693 219.177 103.102 219.495 103.329C219.531 103.357 219.767 103.539 219.966 103.848C219.993 103.893 220.021 103.939 220.039 104.002C220.329 104.83 219.014 105.812 219.268 106.184C219.449 106.457 220.347 106.093 220.456 106.33C220.555 106.548 219.812 107.003 219.93 107.266C220.011 107.466 220.474 107.284 220.764 107.584C220.909 107.739 220.864 107.857 221.018 108.321C221.108 108.585 221.226 108.866 221.317 109.03C221.77 109.803 223.057 110.085 223.302 109.776C223.374 109.694 223.311 109.621 223.384 109.33C223.384 109.33 223.447 109.057 223.637 108.748C223.9 108.303 224.544 107.984 225.197 107.521C226.393 106.657 226.719 105.912 226.819 105.666C226.855 105.575 226.874 105.512 226.892 105.466C227.2 104.493 227.209 103.066 226.774 102.193C226.049 100.72 224.399 101.42 223.057 99.9654C221.507 98.2834 222.432 95.9923 221.589 95.7377C220.637 95.4377 218.543 97.9379 218.552 100.375Z"
                        fill="#26264F" />
                    <path id="Vector_65"
                        d="M219.74 105.866C220.066 105.421 220.628 105.839 220.628 106.412C220.628 106.984 220.075 107.585 219.54 107.466C219.005 107.357 219.304 106.466 219.74 105.866Z"
                        fill="url(#paint14_linear_1477_6696)" />
                </g>
                <path id="Vector_66"
                    d="M220.002 104.911L219.259 105.884C219.259 105.884 218.452 107.075 217.981 106.421C217.6 105.884 217.501 105.902 217.473 105.921L217.464 105.93C217.455 105.93 217.519 105.666 217.573 105.43C217.374 105.711 217.102 106.184 216.939 106.802C216.775 107.412 216.603 108.057 216.948 108.685C216.966 108.721 217.346 109.385 218.044 109.548C218.044 109.548 218.316 109.612 219.486 109.403C219.486 109.403 218.208 108.475 218.189 108.257C218.135 107.657 218.969 107.33 219.585 106.102C219.821 105.639 219.939 105.202 220.002 104.911Z"
                    fill="#26264F" />
            </g>
            <path id="Vector_67" opacity="0.3"
                d="M222.559 172.391C221.145 169.564 224.607 165.809 222.35 161.499C220.428 157.844 216.929 158.663 215.325 155.308C213.385 151.253 217.609 148.225 217.455 142.07C217.274 134.706 210.956 127.332 207.239 127.978C204.837 128.396 204.52 131.996 202.834 135.942C204.329 139.233 206.079 143.37 207.665 148.907C209.614 155.726 210.593 159.126 210.33 163.427C209.968 169.418 207.865 172.873 209.904 175.601C211.182 177.301 213.612 177.583 218.425 178.056C222.794 178.492 229.992 179.11 238.014 175.492C239.029 175.037 239.791 174.692 240.407 174.355C227.862 176.237 223.683 174.628 222.559 172.391Z"
                fill="url(#paint15_linear_1477_6696)" />
            <path id="Vector_68"
                d="M185.774 137.688C186.553 137.351 187.333 137.015 188.113 136.669C189.436 138.024 191.113 139.342 192.527 138.915C194.639 138.279 194.113 134.387 196.679 127.541C199.589 119.786 202.897 117.795 204.556 117.076C205.49 116.676 206.124 116.404 206.895 116.595C210.439 117.467 211.618 126.741 210.62 133.678C210.058 137.588 208.962 145.252 202.689 148.898C201.8 149.416 196.896 152.262 192.047 150.016C187.913 148.107 185.348 143.188 185.774 137.688Z"
                fill="url(#paint16_linear_1477_6696)" />
        </g>
        <g id="Group_32">
            <path id="Vector_69"
                d="M80.5952 119.849L97.4738 129.687L102.949 131.378L103.266 130.478L118.903 107.157L119.973 105.993L115.748 106.221L109.231 108.748C108.433 109.057 107.808 108.648 107.826 107.839L112.984 81.0178L108.279 79.8541L99.7944 82.7362C99.1961 82.9271 98.625 83.8181 98.3984 83.3545C98.1718 82.8908 98.2896 82.218 98.7066 81.6543L119.338 53.6148C119.873 52.8875 120.861 52.6329 121.36 53.0966L138.737 69.1438C139.054 69.4347 139.127 69.9803 138.909 70.5349C138.7 71.0895 138.238 71.5441 137.749 71.6986L130.125 74.1262L129.844 84.0727L133.733 85.8002L156.15 76.6264C164.608 73.6807 171.515 63.7523 171.896 54.3785C172.086 49.7053 170.735 45.7231 168.07 43.1319C166.656 41.759 167.817 41.1862 165.958 40.7861C165.623 40.7134 162.396 40.3225 162.042 40.2861C160.592 40.1224 159.033 40.2315 157.419 40.6316C157.175 40.6952 156.921 40.7589 156.676 40.8407C154.718 41.4408 153.068 40.1952 152.941 38.0131C151.817 19.6475 137.848 7.65525 118.948 10.4828C103.203 12.8194 87.4482 25.1299 79.6524 42.1499C78.6372 44.3684 76.3619 46.0322 73.9779 46.2868C72.1649 46.4777 70.2885 46.8232 68.403 47.3232C51.0349 51.8783 35.4072 68.771 34.0566 85.5183C33.3223 94.6375 36.776 101.993 43.638 106.121C50.3007 110.13 59.1298 110.457 68.3396 107.248L88.7626 100.12C89.6418 99.8108 90.3217 100.256 90.3036 101.102L89.9047 114.722C89.8775 115.567 89.1523 116.531 88.2731 116.867L80.5952 119.849Z"
                fill="url(#paint17_linear_1477_6696)" />
            <path id="Vector_70"
                d="M171.279 43.5137C168.614 40.9043 164.916 40.0133 160.828 41.0407C160.583 41.1044 160.338 41.168 160.102 41.2407C158.181 41.8408 156.567 40.6043 156.431 38.4404C155.325 20.2475 141.638 8.40987 123.127 11.2375C107.717 13.5923 92.3069 25.8027 84.6925 42.6318C83.6954 44.832 81.4836 46.4686 79.1449 46.7232C77.3682 46.9141 75.5371 47.2596 73.6969 47.7505C56.7458 52.2783 41.4988 68.9711 40.1844 85.5092C39.4683 94.5102 42.8313 101.775 49.5121 105.857C56.0115 109.821 64.6231 110.157 73.6153 106.984L93.576 99.9563C94.4281 99.6562 95.108 100.084 95.0808 100.92L94.691 114.385C94.6638 115.222 93.9567 116.167 93.0956 116.504L85.5899 119.44L102.949 131.387L119.973 106.002L113.591 108.494C112.811 108.803 112.195 108.394 112.222 107.593L112.984 81.0269L104.318 83.8181C103.729 84.0091 103.212 83.8363 102.985 83.3726C102.759 82.909 102.886 82.2543 103.293 81.6906L123.481 53.9421C124.006 53.2239 124.976 52.9693 125.457 53.4239L142.499 69.2893C142.807 69.5802 142.879 70.1166 142.671 70.6712C142.462 71.2168 142.018 71.6714 141.538 71.8259L134.068 74.2353L133.742 85.8002L159.577 76.6992C167.88 73.7716 174.661 63.9341 175.032 54.6513C175.223 50.0235 173.899 46.0776 171.279 43.5137Z"
                fill="url(#paint18_linear_1477_6696)" />
        </g>
        <g id="Group_33">
            <g id="Group_34">
                <path id="Vector_71"
                    d="M60.4079 214.123C61.1785 215.051 62.0033 215.915 62.8917 216.687C62.8282 216.787 62.7648 216.887 62.7013 216.987C61.5501 219.024 62.2118 221.606 64.1789 222.77C66.1369 223.934 68.666 223.243 69.8353 221.224C69.8988 221.115 69.9532 221.015 69.9985 220.906C71.0953 221.306 72.2194 221.615 73.3706 221.833C73.3615 221.952 73.3525 222.07 73.3434 222.197C73.3071 224.516 75.111 226.388 77.3863 226.388C79.6525 226.388 81.547 224.516 81.6105 222.188C81.6105 222.07 81.6105 221.952 81.6014 221.833C82.7436 221.615 83.8857 221.306 85.0188 220.897C85.0642 221.006 85.1095 221.115 85.1729 221.215C86.2517 223.234 88.7535 223.925 90.775 222.761C92.7964 221.597 93.576 219.006 92.5154 216.969C92.461 216.86 92.3976 216.76 92.3341 216.669C93.2678 215.878 94.138 215.014 94.9357 214.105C95.0264 214.169 93.721 214.787 93.8208 214.851C95.7697 216.033 99.7491 214.778 101 212.723C102.26 210.65 101.698 207.996 99.7401 206.795C99.6404 206.732 99.5316 206.677 99.4228 206.623C99.876 205.45 100.239 204.25 100.52 203.031C100.637 203.04 100.755 203.05 100.882 203.05C103.221 203.05 105.215 201.068 105.342 198.613C105.469 196.149 103.665 194.139 101.299 194.149C101.181 194.149 101.064 194.158 100.937 194.167C100.773 192.93 100.52 191.694 100.166 190.475C100.275 190.421 100.393 190.366 100.501 190.303C102.614 189.048 103.457 186.257 102.369 184.066C101.281 181.865 98.6614 181.111 96.5402 182.393C96.4314 182.456 96.3226 182.529 96.2229 182.602C95.4615 181.602 94.6275 180.674 93.7392 179.829C93.8117 179.72 93.8842 179.62 93.9477 179.502C95.2349 177.274 94.6366 174.41 92.597 173.119C90.5484 171.828 87.8561 172.601 86.578 174.856C86.5145 174.974 86.4511 175.092 86.3967 175.21C85.2455 174.774 84.067 174.428 82.8614 174.192C82.8796 174.055 82.8886 173.928 82.8886 173.792C82.9611 171.192 81.1844 168.982 75.8906 169.6C73.4612 169.882 74.2136 171.219 74.1683 173.819C74.1683 173.955 74.1683 174.083 74.1774 174.21C72.9717 174.455 71.7752 174.801 70.5968 175.256C70.5424 175.137 70.4971 175.019 70.4336 174.901C69.2552 172.655 67.125 170.737 62.239 173.683C60.136 174.946 61.6861 177.365 62.8736 179.583C62.937 179.702 63.0005 179.811 63.073 179.911C62.1303 180.774 61.26 181.702 60.4714 182.684C60.3717 182.611 60.272 182.538 60.1723 182.475C58.1146 181.211 55.4767 181.965 54.2892 184.166C53.1108 186.357 53.836 189.139 55.8846 190.385C55.9934 190.448 56.1022 190.503 56.2109 190.557C55.8121 191.766 55.5039 192.994 55.2863 194.249C55.1685 194.239 55.0416 194.23 54.9238 194.23C52.576 194.23 50.6905 196.24 50.7086 198.704C50.7268 201.149 52.6304 203.122 54.96 203.113C55.0779 203.113 55.1957 203.104 55.3135 203.095C55.5311 204.304 55.8484 205.504 56.2472 206.677C56.1384 206.732 56.0387 206.786 55.9299 206.85C53.9266 208.05 53.2558 210.705 54.4252 212.769C55.5855 214.824 58.1236 215.524 60.1179 214.333C60.2176 214.26 60.3082 214.187 60.4079 214.123ZM64.5959 206.659C60.4079 199.022 62.9733 189.048 70.4699 184.466C78.048 179.829 87.5842 182.556 91.6271 190.475C95.6065 198.267 92.6967 208.05 85.2636 212.405C77.9121 216.715 68.7204 214.169 64.5959 206.659Z"
                    fill="url(#paint19_linear_1477_6696)" />
                <path id="Vector_72"
                    d="M54.96 203.104C52.6304 203.104 50.7358 201.14 50.7086 198.695C50.6905 196.24 52.576 194.23 54.9238 194.221C55.0507 194.221 55.1685 194.23 55.2863 194.24C55.5039 192.994 55.8121 191.757 56.2109 190.548C56.1022 190.494 55.9934 190.439 55.8846 190.375C53.836 189.13 51.2434 185.884 52.6213 183.811C55.2501 179.856 58.1055 181.193 60.1723 182.466C60.281 182.529 60.3807 182.602 60.4714 182.675C61.26 181.693 62.1303 180.765 63.073 179.902C63.0005 179.792 62.937 179.683 62.8736 179.574C62.23 178.365 62.1484 176.974 62.5472 175.747C64.5777 179.138 66.5629 182.511 68.4937 185.893C62.5472 190.912 60.7887 199.749 64.5959 206.668C67.7686 212.451 73.9417 215.278 79.9426 214.324C80.2054 214.987 80.4683 215.651 80.7493 216.296C81.5198 218.051 82.3901 219.76 83.2512 221.461C82.6983 221.615 82.1453 221.743 81.5833 221.843C81.5924 221.961 81.5924 222.079 81.5924 222.197C81.5289 224.516 80.0785 226.607 75.9631 226.752C73.6879 226.834 73.289 224.525 73.3253 222.206C73.3253 222.088 73.3343 221.961 73.3525 221.843C72.2103 221.624 71.0772 221.315 69.9804 220.915C69.926 221.024 69.8716 221.133 69.8172 221.233C68.6569 223.252 64.5778 224.416 62.6107 223.252C60.6436 222.088 61.5229 219.024 62.6832 216.987C62.7467 216.887 62.8101 216.787 62.8736 216.687C61.9943 215.915 61.1603 215.051 60.3898 214.124C60.2901 214.196 60.1995 214.26 60.0907 214.324C58.1055 215.505 55.5583 214.805 54.398 212.76C53.2377 210.696 53.9085 208.05 55.9027 206.841C56.0025 206.777 56.1112 206.723 56.22 206.668C55.8121 205.495 55.5039 204.295 55.2863 203.086C55.1957 203.095 55.0778 203.104 54.96 203.104Z"
                    fill="url(#paint20_linear_1477_6696)" />
                <path id="Vector_73"
                    d="M58.2505 214.56C59.021 215.487 59.8549 216.351 60.7342 217.124C60.6708 217.224 60.6073 217.324 60.5438 217.424C59.3926 219.46 60.0725 222.043 62.0395 223.206C64.0066 224.361 66.5266 223.679 67.6869 221.661C67.7504 221.552 67.8047 221.452 67.8501 221.343C68.9469 221.743 70.0709 222.052 71.2222 222.27C71.2131 222.388 71.204 222.506 71.195 222.634C71.1587 224.952 72.9717 226.825 75.2379 226.825C77.5041 226.825 79.3895 224.952 79.4439 222.634C79.4439 222.515 79.4439 222.397 79.4349 222.279C80.577 222.061 81.7192 221.752 82.8432 221.352C82.8886 221.461 82.9339 221.57 82.9973 221.67C84.076 223.688 86.5779 224.37 88.5994 223.215C90.6208 222.052 91.3913 219.46 90.3217 217.424C90.2673 217.315 90.2038 217.215 90.1404 217.124C91.0741 216.333 91.9443 215.469 92.742 214.56C92.8326 214.624 92.9323 214.696 93.0321 214.76C94.981 215.942 97.5554 215.242 98.8063 213.178C100.057 211.114 99.4952 208.459 97.5372 207.259C97.4375 207.196 97.3288 207.141 97.22 207.086C97.6642 205.923 98.0267 204.723 98.3078 203.495C98.4256 203.504 98.5434 203.513 98.6703 203.513C101.009 203.513 102.994 201.531 103.121 199.086C103.248 196.622 101.435 194.621 99.0692 194.621C98.9514 194.621 98.8335 194.631 98.7066 194.64C98.5434 193.403 98.2806 192.167 97.927 190.948C98.0358 190.894 98.1537 190.839 98.2624 190.776C100.375 189.521 101.208 186.73 100.121 184.538C99.0239 182.338 96.4132 181.593 94.292 182.866C94.1833 182.929 94.0745 183.002 93.9748 183.075C93.2133 182.075 92.3794 181.147 91.482 180.311C91.5545 180.202 91.627 180.102 91.6905 179.983C92.9686 177.756 92.3613 174.901 90.3217 173.61C88.273 172.319 85.5808 173.092 84.3117 175.347C84.2483 175.465 84.1848 175.583 84.1304 175.701C82.9792 175.265 81.8008 174.919 80.5952 174.683C80.6042 174.546 80.6224 174.419 80.6224 174.283C80.6858 171.683 78.7731 169.573 76.3528 169.582C73.9325 169.591 71.9474 171.71 71.902 174.31C71.902 174.446 71.9111 174.574 71.9111 174.701C70.7055 174.947 69.518 175.292 68.3396 175.738C68.2852 175.619 68.2399 175.501 68.1764 175.383C66.998 173.146 64.3329 172.383 62.248 173.683C60.1631 174.983 59.447 177.838 60.6436 180.056C60.707 180.174 60.7705 180.274 60.843 180.383C59.9002 181.247 59.0391 182.166 58.2505 183.147C58.1507 183.075 58.051 183.002 57.9513 182.938C55.8845 181.675 53.2558 182.429 52.0773 184.629C50.908 186.821 51.6332 189.594 53.6818 190.839C53.7906 190.903 53.8994 190.957 54.0081 191.012C53.6093 192.212 53.3101 193.449 53.0926 194.694C52.9748 194.685 52.8478 194.676 52.73 194.676C50.3822 194.676 48.5058 196.685 48.533 199.14C48.5602 201.586 50.4638 203.55 52.7935 203.55C52.9113 203.55 53.0291 203.541 53.147 203.531C53.3736 204.741 53.6818 205.941 54.0897 207.114C53.9809 207.168 53.8812 207.223 53.7725 207.286C51.7782 208.487 51.1165 211.141 52.2768 213.196C53.4371 215.242 55.9843 215.942 57.9694 214.76C58.0601 214.696 58.1507 214.624 58.2505 214.56ZM62.4203 207.105C58.2142 199.476 60.7523 189.521 68.2308 184.929C75.7908 180.293 85.327 183.02 89.388 190.939C93.3765 198.722 90.503 208.496 83.088 212.842C75.7546 217.142 66.5538 214.605 62.4203 207.105Z"
                    fill="url(#paint21_linear_1477_6696)" />
            </g>
        </g>
    </g>
    <defs>
        <linearGradient id="paint0_linear_1477_6696" x1="182.974" y1="24.6044" x2="124.023"
            y2="479.638" gradientUnits="userSpaceOnUse">
            <stop stop-color="#FF9085" />
            <stop offset="1" stop-color="#FB6FBB" />
        </linearGradient>
        <linearGradient id="paint1_linear_1477_6696" x1="213.194" y1="33.1649" x2="160.421"
            y2="440.508" gradientUnits="userSpaceOnUse">
            <stop stop-color="#AA80F9" />
            <stop offset="0.9964" stop-color="#6165D7" />
        </linearGradient>
        <linearGradient id="paint2_linear_1477_6696" x1="228.214" y1="231.852" x2="232.688"
            y2="234.816" gradientUnits="userSpaceOnUse">
            <stop stop-color="#444B8C" />
            <stop offset="0.9964" stop-color="#26264F" />
        </linearGradient>
        <linearGradient id="paint3_linear_1477_6696" x1="232.427" y1="234.815" x2="232.777"
            y2="227.824" gradientUnits="userSpaceOnUse">
            <stop stop-color="#FFC444" />
            <stop offset="0.9964" stop-color="#F36F56" />
        </linearGradient>
        <linearGradient id="paint4_linear_1477_6696" x1="228.549" y1="231.345" x2="233.023"
            y2="234.31" gradientUnits="userSpaceOnUse">
            <stop stop-color="#444B8C" />
            <stop offset="0.9964" stop-color="#26264F" />
        </linearGradient>
        <linearGradient id="paint5_linear_1477_6696" x1="201.847" y1="236.28" x2="205.863"
            y2="239.842" gradientUnits="userSpaceOnUse">
            <stop stop-color="#444B8C" />
            <stop offset="0.9964" stop-color="#26264F" />
        </linearGradient>
        <linearGradient id="paint6_linear_1477_6696" x1="205.872" y1="240.079" x2="207.223"
            y2="233.212" gradientUnits="userSpaceOnUse">
            <stop stop-color="#FFC444" />
            <stop offset="0.9964" stop-color="#F36F56" />
        </linearGradient>
        <linearGradient id="paint7_linear_1477_6696" x1="202.249" y1="235.826" x2="206.266"
            y2="239.388" gradientUnits="userSpaceOnUse">
            <stop stop-color="#444B8C" />
            <stop offset="0.9964" stop-color="#26264F" />
        </linearGradient>
        <linearGradient id="paint8_linear_1477_6696" x1="223.625" y1="197.603" x2="240.178"
            y2="197.603" gradientUnits="userSpaceOnUse">
            <stop stop-color="#311944" />
            <stop offset="1" stop-color="#6B3976" />
        </linearGradient>
        <linearGradient id="paint9_linear_1477_6696" x1="223.625" y1="197.603" x2="238.83"
            y2="197.603" gradientUnits="userSpaceOnUse">
            <stop stop-color="#311944" />
            <stop offset="1" stop-color="#6B3976" />
        </linearGradient>
        <linearGradient id="paint10_linear_1477_6696" x1="254.247" y1="208.967" x2="208.699"
            y2="200.772" gradientUnits="userSpaceOnUse">
            <stop stop-color="#311944" />
            <stop offset="0.7407" stop-color="#5C3169" />
            <stop offset="1" stop-color="#6B3976" />
        </linearGradient>
        <linearGradient id="paint11_linear_1477_6696" x1="186.505" y1="130.662" x2="184.042"
            y2="141.871" gradientUnits="userSpaceOnUse">
            <stop stop-color="#FFC444" />
            <stop offset="0.9964" stop-color="#F36F56" />
        </linearGradient>
        <linearGradient id="paint12_linear_1477_6696" x1="199.164" y1="144.672" x2="245.35"
            y2="144.672" gradientUnits="userSpaceOnUse">
            <stop stop-color="#FF9085" />
            <stop offset="1" stop-color="#FB6FBB" />
        </linearGradient>
        <linearGradient id="paint13_linear_1477_6696" x1="217.598" y1="104.728" x2="229"
            y2="130.809" gradientUnits="userSpaceOnUse">
            <stop stop-color="#FFC444" />
            <stop offset="0.9964" stop-color="#F36F56" />
        </linearGradient>
        <linearGradient id="paint14_linear_1477_6696" x1="216.75" y1="99.3687" x2="229.48"
            y2="128.488" gradientUnits="userSpaceOnUse">
            <stop stop-color="#FFC444" />
            <stop offset="0.9964" stop-color="#F36F56" />
        </linearGradient>
        <linearGradient id="paint15_linear_1477_6696" x1="198.177" y1="140.678" x2="226.577"
            y2="167.716" gradientUnits="userSpaceOnUse">
            <stop stop-color="#FF9085" />
            <stop offset="1" stop-color="#FB6FBB" />
        </linearGradient>
        <linearGradient id="paint16_linear_1477_6696" x1="185.731" y1="133.701" x2="210.976"
            y2="133.701" gradientUnits="userSpaceOnUse">
            <stop stop-color="#FF9085" />
            <stop offset="1" stop-color="#FB6FBB" />
        </linearGradient>
        <linearGradient id="paint17_linear_1477_6696" x1="243.793" y1="-60.3832" x2="112.393"
            y2="60.3459" gradientUnits="userSpaceOnUse">
            <stop stop-color="#FFA8BA" />
            <stop offset="0.9964" stop-color="#FFA8BA" />
        </linearGradient>
        <linearGradient id="paint18_linear_1477_6696" x1="84.6118" y1="70.835" x2="437.465"
            y2="73.8753" gradientUnits="userSpaceOnUse">
            <stop stop-color="#BC364B" />
            <stop offset="0.9964" stop-color="#FFA8BA" />
        </linearGradient>
        <linearGradient id="paint19_linear_1477_6696" x1="45.1444" y1="217.94" x2="78.0639"
            y2="197.36" gradientUnits="userSpaceOnUse">
            <stop stop-color="#FF9085" />
            <stop offset="1" stop-color="#FB6FBB" />
        </linearGradient>
        <linearGradient id="paint20_linear_1477_6696" x1="84.8066" y1="194.092" x2="77.5789"
            y2="197.597" gradientUnits="userSpaceOnUse">
            <stop stop-color="#FF9085" />
            <stop offset="1" stop-color="#FB6FBB" />
        </linearGradient>
        <linearGradient id="paint21_linear_1477_6696" x1="86.4149" y1="182.849" x2="52.6629"
            y2="231.783" gradientUnits="userSpaceOnUse">
            <stop stop-color="#FF9085" />
            <stop offset="1" stop-color="#FB6FBB" />
        </linearGradient>
    </defs>
</svg>
