<svg width="21" height="21" viewBox="0 0 21 21" fill="none" xmlns="http://www.w3.org/2000/svg">
<g id="room-service (4) 1" clip-path="url(#clip0_1789_8255)">
<path id="Vector" d="M19.4042 16.7557V15.094C19.4012 12.8151 18.5477 10.6195 17.0109 8.93682C15.4741 7.25417 13.3646 6.2057 11.0954 5.99665V4.89324C11.4122 4.71034 11.6598 4.42801 11.7998 4.09005C11.9398 3.75208 11.9643 3.37737 11.8696 3.02402C11.775 2.67068 11.5663 2.35845 11.2761 2.13576C10.9859 1.91306 10.6303 1.79236 10.2645 1.79236C9.89869 1.79236 9.5431 1.91306 9.25289 2.13576C8.96267 2.35845 8.75404 2.67068 8.65937 3.02402C8.56469 3.37737 8.58925 3.75208 8.72924 4.09005C8.86923 4.42801 9.11682 4.71034 9.43362 4.89324V5.99665C7.1644 6.2057 5.0549 7.25417 3.5181 8.93682C1.98129 10.6195 1.12784 12.8151 1.12483 15.094V16.7557C0.904462 16.7557 0.693125 16.8433 0.537304 16.9991C0.381484 17.1549 0.293945 17.3662 0.293945 17.5866C0.293945 17.807 0.381484 18.0183 0.537304 18.1741C0.693125 18.3299 0.904462 18.4175 1.12483 18.4175H19.4042C19.6245 18.4175 19.8359 18.3299 19.9917 18.1741C20.1475 18.0183 20.2351 17.807 20.2351 17.5866C20.2351 17.3662 20.1475 17.1549 19.9917 16.9991C19.8359 16.8433 19.6245 16.7557 19.4042 16.7557ZM2.78658 15.094C3.17959 5.17824 17.3527 5.18571 17.7424 15.094V16.7557H2.78658V15.094Z" fill="#D14663"/>
</g>
<defs>
<clipPath id="clip0_1789_8255">
<rect width="19.9411" height="19.9411" fill="white" transform="translate(0.293945 0.968994)"/>
</clipPath>
</defs>
</svg>
