<svg xmlns="http://www.w3.org/2000/svg" width="32" height="32" viewBox="0 0 32 32">
  <defs>
    <clipPath id="clip-path">
      <rect id="Rectangle_3629" data-name="Rectangle 3629" width="32" height="32" transform="translate(26 275)" fill="#a71f22"/>
    </clipPath>
  </defs>
  <g id="Mask_Group_763" data-name="Mask Group 763" transform="translate(-26 -275)" clip-path="url(#clip-path)">
    <path id="user" d="M21.363,20.376a1.316,1.316,0,0,1-1-1.263V17.77L21.835,16.3a3.95,3.95,0,0,0,1.195-2.833V8.262A8.435,8.435,0,0,0,20.45,2.229a7.973,7.973,0,0,0-11.1.091A7.877,7.877,0,0,0,7.009,7.943v5.526A3.937,3.937,0,0,0,8.188,16.28l1.491,1.49v1.343a1.316,1.316,0,0,1-1,1.263,9.293,9.293,0,0,0-7.006,8.99v1.324A1.335,1.335,0,0,0,3,32.026H27.035a1.335,1.335,0,0,0,1.335-1.335V29.366a9.293,9.293,0,0,0-7.006-8.99Z" transform="translate(26.981 274.974)" fill="#a71f22"/>
  </g>
</svg>
