<svg width="12" height="13" viewBox="0 0 12 13" fill="none" xmlns="http://www.w3.org/2000/svg">
<g id="shopping-bag 1" clip-path="url(#clip0_1850_12719)">
<path id="Vector" d="M10.5 3.5H9C9 2.70435 8.68393 1.94129 8.12132 1.37868C7.55871 0.81607 6.79565 0.5 6 0.5C5.20435 0.5 4.44129 0.81607 3.87868 1.37868C3.31607 1.94129 3 2.70435 3 3.5H1.5C1.10218 3.5 0.720644 3.65804 0.43934 3.93934C0.158035 4.22064 0 4.60218 0 5L0 10C0.000793929 10.6628 0.264441 11.2982 0.73311 11.7669C1.20178 12.2356 1.8372 12.4992 2.5 12.5H9.5C10.1628 12.4992 10.7982 12.2356 11.2669 11.7669C11.7356 11.2982 11.9992 10.6628 12 10V5C12 4.60218 11.842 4.22064 11.5607 3.93934C11.2794 3.65804 10.8978 3.5 10.5 3.5ZM6 1.5C6.53043 1.5 7.03914 1.71071 7.41421 2.08579C7.78929 2.46086 8 2.96957 8 3.5H4C4 2.96957 4.21071 2.46086 4.58579 2.08579C4.96086 1.71071 5.46957 1.5 6 1.5ZM11 10C11 10.3978 10.842 10.7794 10.5607 11.0607C10.2794 11.342 9.89782 11.5 9.5 11.5H2.5C2.10218 11.5 1.72064 11.342 1.43934 11.0607C1.15804 10.7794 1 10.3978 1 10V5C1 4.86739 1.05268 4.74021 1.14645 4.64645C1.24021 4.55268 1.36739 4.5 1.5 4.5H3V5.5C3 5.63261 3.05268 5.75979 3.14645 5.85355C3.24021 5.94732 3.36739 6 3.5 6C3.63261 6 3.75979 5.94732 3.85355 5.85355C3.94732 5.75979 4 5.63261 4 5.5V4.5H8V5.5C8 5.63261 8.05268 5.75979 8.14645 5.85355C8.24021 5.94732 8.36739 6 8.5 6C8.63261 6 8.75979 5.94732 8.85355 5.85355C8.94732 5.75979 9 5.63261 9 5.5V4.5H10.5C10.6326 4.5 10.7598 4.55268 10.8536 4.64645C10.9473 4.74021 11 4.86739 11 5V10Z" fill="#33393E"/>
</g>
<defs>
<clipPath id="clip0_1850_12719">
<rect width="12" height="12" fill="white" transform="translate(0 0.5)"/>
</clipPath>
</defs>
</svg>
