<svg xmlns="http://www.w3.org/2000/svg" version="1.1" width="512" height="512" x="0" y="0"
    viewBox="0 0 512 512" style="enable-background:new 0 0 512 512" xml:space="preserve"><g><path d="M457.052 230.633A202.662 202.662 0 0 0 259.366 53.36l13.9-13.787a10.666 10.666 0 1 0-15.021-15.146L224.458 57.94a10.663 10.663 0 0 0-.062 15.083l33.786 34.065a10.666 10.666 0 1 0 15.146-15.021L256.1 74.693A181.34 181.34 0 0 1 369.3 397.6a10.667 10.667 0 0 0 13.344 16.646c55.481-44.491 83.299-113.131 74.408-183.613zM253.818 404.911a10.666 10.666 0 1 0-15.146 15.021L255.9 437.3a181.332 181.332 0 0 1-113.233-322.87 10.668 10.668 0 0 0-13.354-16.641c-55.454 44.495-83.256 113.122-74.365 183.576A202.645 202.645 0 0 0 252.64 458.632l-13.906 13.795a10.666 10.666 0 1 0 15.021 15.146l33.786-33.516a10.663 10.663 0 0 0 .063-15.083z" fill="#000000" opacity="1" data-original="#000000"></path><path
    d="M264.469 247.565c-1.516-.581-2.937-1.117-4.161-1.656-1.344-.594-2.953-1.211-4.729-1.885-10.1-3.836-15.578-6.867-15.578-11.885 0-2.216 2.365-5.656 6.88-7.943 3.2-1.617 14.75-6.047 29.469 4.771a10.666 10.666 0 1 0 12.635-17.187 57.463 57.463 0 0 0-22.318-10.123V192a10.667 10.667 0 0 0-21.333 0v10.159a42.673 42.673 0 0 0-8.083 3c-11.464 5.8-18.583 16.138-18.583 26.979 0 20.688 19.813 28.214 29.339 31.831 1.38.521 2.641.995 3.688 1.458 1.526.672 3.281 1.349 5.161 2.068 10.474 4 15.146 6.641 15.146 11.7 0 2.214-2.365 5.656-6.88 7.938-3.2 1.615-14.745 6.052-29.469-4.771a10.666 10.666 0 1 0-12.635 17.188 57.62 57.62 0 0 0 22.318 10.194V320a10.667 10.667 0 0 0 21.333 0v-10.785a42.7 42.7 0 0 0 8.083-3.044c11.464-5.8 18.583-16.135 18.583-26.974-.002-20.603-18.778-27.778-28.866-31.632z"
    fill="#000000" opacity="1" data-original="#000000"></path><path
    d="M256 138.667A117.333 117.333 0 1 0 373.333 256 117.466 117.466 0 0 0 256 138.667zM256 352a96 96 0 1 1 96-96 96.112 96.112 0 0 1-96 96z"
    fill="#000000" opacity="1" data-original="#000000"></path></g></svg>