<svg width="16" height="16" viewBox="0 0 16 16" fill="none" xmlns="http://www.w3.org/2000/svg">
    <g id="Frame" clip-path="url(#clip0_1611_6783)">
        <g id="Group">
            <g id="Layer 2">
                <path id="refund"
                    d="M16 7.99992C16 9.04866 15.7934 10.0871 15.3921 11.056C14.9908 12.0249 14.4025 12.9053 13.661 13.6469C12.9194 14.3884 12.039 14.9767 11.0701 15.378C10.1012 15.7794 9.06274 15.9859 8.014 15.9859C6.96526 15.9859 5.9268 15.7794 4.95789 15.378C3.98898 14.9767 3.10861 14.3884 2.36705 13.6469C1.62548 12.9053 1.03723 12.0249 0.635898 11.056C0.234564 10.0871 0.028 9.04866 0.028 7.99992C0.028 7.85847 0.0841903 7.72282 0.18421 7.6228C0.284229 7.52278 0.419885 7.46659 0.561333 7.46659C0.702782 7.46659 0.838438 7.52278 0.938457 7.6228C1.03848 7.72282 1.09467 7.85847 1.09467 7.99992C1.0964 9.69898 1.7226 11.3381 2.85416 12.6056C3.98571 13.873 5.54366 14.6803 7.23166 14.8739C8.91966 15.0675 10.6199 14.6338 12.009 13.6555C13.3981 12.6771 14.3792 11.2223 14.7655 9.56774C15.1518 7.91318 14.9165 6.17434 14.1043 4.68198C13.2921 3.18962 11.9597 2.04786 10.3605 1.47389C8.76137 0.899921 7.00701 0.933791 5.43117 1.56906C3.85534 2.20432 2.56799 3.39666 1.814 4.91926H2.9292C3.07065 4.91926 3.2063 4.97545 3.30632 5.07547C3.40634 5.17548 3.46253 5.31114 3.46253 5.45259C3.46253 5.59404 3.40634 5.72969 3.30632 5.82971C3.2063 5.92973 3.07065 5.98592 2.9292 5.98592H0.533333C0.391885 5.98592 0.256229 5.92973 0.15621 5.82971C0.0561903 5.72969 0 5.59404 0 5.45259V2.90539C0 2.76394 0.0561903 2.62828 0.15621 2.52826C0.256229 2.42825 0.391885 2.37206 0.533333 2.37206C0.674782 2.37206 0.810438 2.42825 0.910457 2.52826C1.01048 2.62828 1.06667 2.76394 1.06667 2.90539V4.05512C1.93518 2.5185 3.28845 1.31304 4.91485 0.627234C6.54126 -0.0585682 8.34908 -0.186035 10.0556 0.264767C11.7622 0.715568 13.2712 1.71922 14.3467 3.11877C15.4223 4.51832 16.0037 6.23484 16 7.99992ZM7.46667 10.6018V8.49019C6.25093 8.29206 5.33333 7.43019 5.33333 6.39992C5.33333 5.36966 6.25093 4.50792 7.46667 4.30952V3.73326C7.46667 3.59181 7.52286 3.45615 7.62288 3.35613C7.7229 3.25611 7.85855 3.19992 8 3.19992C8.14145 3.19992 8.27711 3.25611 8.37712 3.35613C8.47714 3.45615 8.53333 3.59181 8.53333 3.73326V4.30952C9.74907 4.50792 10.6667 5.36966 10.6667 6.39992C10.6667 6.54137 10.6105 6.67703 10.5105 6.77705C10.4104 6.87707 10.2748 6.93326 10.1333 6.93326C9.99189 6.93326 9.85623 6.87707 9.75621 6.77705C9.65619 6.67703 9.6 6.54137 9.6 6.39992C9.6 5.94579 9.14747 5.54832 8.53333 5.39806V7.50952C9.74907 7.70792 10.6667 8.56966 10.6667 9.59992C10.6667 10.6302 9.74907 11.4919 8.53333 11.6902V12.2666C8.53333 12.408 8.47714 12.5437 8.37712 12.6437C8.27711 12.7437 8.14145 12.7999 8 12.7999C7.85855 12.7999 7.7229 12.7437 7.62288 12.6437C7.52286 12.5437 7.46667 12.408 7.46667 12.2666V11.6902C6.25093 11.4921 5.33333 10.6302 5.33333 9.59992C5.33333 9.45847 5.38952 9.32282 5.48954 9.2228C5.58956 9.12278 5.72522 9.06659 5.86667 9.06659C6.00812 9.06659 6.14377 9.12278 6.24379 9.2228C6.34381 9.32282 6.4 9.45847 6.4 9.59992C6.4 10.0541 6.85253 10.4515 7.46667 10.6018ZM8.53333 8.59806V10.6018C9.14747 10.4515 9.6 10.0541 9.6 9.59992C9.6 9.14579 9.14747 8.74832 8.53333 8.59806ZM7.46667 7.40179V5.39806C6.85253 5.54832 6.4 5.94579 6.4 6.39992C6.4 6.85406 6.85253 7.25152 7.46667 7.40179Z"
                    fill="black" />
            </g>
        </g>
    </g>
    <defs>
        <clipPath id="clip0_1611_6783">
            <rect width="16" height="16" fill="white" />
        </clipPath>
    </defs>
</svg>
