<svg width="21" height="21" viewBox="0 0 21 21" fill="none" xmlns="http://www.w3.org/2000/svg">
<path id="Vector" d="M14.4189 9.19398C11.2125 9.19398 8.60274 11.8029 8.60274 15.0101C8.60274 18.1991 11.2125 20.7939 14.4189 20.7939C17.6253 20.7939 20.2351 18.1849 20.2351 14.9777C20.2351 11.7888 17.6253 9.19398 14.4189 9.19398ZM14.4189 19.1321C12.1282 19.1321 10.2645 17.2826 10.2645 15.0101C10.2645 12.7194 12.1282 10.8557 14.4189 10.8557C16.7096 10.8557 18.5733 12.7053 18.5733 14.9777C18.5733 17.2685 16.7096 19.1321 14.4189 19.1321ZM15.8372 15.2212C16.1621 15.5461 16.1621 16.0712 15.8372 16.3961C15.6752 16.5581 15.4625 16.6395 15.2498 16.6395C15.0371 16.6395 14.8244 16.5581 14.6623 16.3961L13.8315 15.5652C13.6753 15.409 13.588 15.1979 13.588 14.9777V13.316C13.588 12.8573 13.9594 12.4851 14.4189 12.4851C14.8784 12.4851 15.2498 12.8573 15.2498 13.316V14.6338L15.8372 15.2212ZM20.2351 6.66894V8.3307C20.2351 8.78935 19.8637 9.16158 19.4042 9.16158C18.9447 9.16158 18.5733 8.78935 18.5733 8.3307V6.66894C18.5733 5.29467 17.4549 4.1763 16.0807 4.1763H4.44834C3.07407 4.1763 1.9557 5.29467 1.9557 6.66894V7.49982H9.43362C9.89227 7.49982 10.2645 7.87206 10.2645 8.3307C10.2645 8.78935 9.89227 9.16158 9.43362 9.16158H1.9557V16.6395C1.9557 18.0138 3.07407 19.1321 4.44834 19.1321H7.77186C8.23051 19.1321 8.60274 19.5044 8.60274 19.963C8.60274 20.4217 8.23051 20.7939 7.77186 20.7939H4.44834C2.15761 20.7939 0.293945 18.9302 0.293945 16.6395V6.66894C0.293945 4.37821 2.15761 2.51454 4.44834 2.51454H5.27922V1.68366C5.27922 1.22502 5.65146 0.852783 6.1101 0.852783C6.56875 0.852783 6.94098 1.22502 6.94098 1.68366V2.51454H13.588V1.68366C13.588 1.22502 13.9594 0.852783 14.4189 0.852783C14.8784 0.852783 15.2498 1.22502 15.2498 1.68366V2.51454H16.0807C18.3714 2.51454 20.2351 4.37821 20.2351 6.66894Z" fill="#D14663"/>
</svg>
