<svg width="48" height="32" viewBox="0 0 48 32" fill="none" xmlns="http://www.w3.org/2000/svg">
    <g clip-path="url(#clip0_1501_10998)">
        <path
            d="M34.3191 8.43101L20.5001 22.249C20.4072 22.3423 20.2968 22.4163 20.1752 22.4668C20.0536 22.5173 19.9233 22.5433 19.7916 22.5433C19.66 22.5433 19.5296 22.5173 19.408 22.4668C19.2864 22.4163 19.176 22.3423 19.0831 22.249L13.7391 16.9C13.6462 16.8067 13.5358 16.7327 13.4142 16.6822C13.2926 16.6317 13.1623 16.6057 13.0306 16.6057C12.899 16.6057 12.7686 16.6317 12.647 16.6822C12.5254 16.7327 12.415 16.8067 12.3221 16.9C12.2288 16.9929 12.1548 17.1033 12.1043 17.2249C12.0538 17.3465 12.0278 17.4769 12.0278 17.6085C12.0278 17.7402 12.0538 17.8705 12.1043 17.9921C12.1548 18.1137 12.2288 18.2241 12.3221 18.317L17.6681 23.662C18.2321 24.2249 18.9963 24.5411 19.7931 24.5411C20.5899 24.5411 21.3542 24.2249 21.9181 23.662L35.7361 9.84701C35.8292 9.75412 35.9031 9.64377 35.9535 9.52228C36.004 9.40079 36.0299 9.27054 36.0299 9.13901C36.0299 9.00747 36.004 8.87723 35.9535 8.75574C35.9031 8.63425 35.8292 8.5239 35.7361 8.43101C35.6432 8.33773 35.5328 8.26372 35.4112 8.21322C35.2896 8.16272 35.1593 8.13672 35.0276 8.13672C34.896 8.13672 34.7656 8.16272 34.644 8.21322C34.5224 8.26372 34.412 8.33773 34.3191 8.43101Z"
            fill="black" />
    </g>
    <defs>
        <clipPath id="clip0_1501_10998">
            <rect width="24" height="24" fill="white" transform="translate(12 4)" />
        </clipPath>
    </defs>
</svg>
