<svg width="17" height="16" viewBox="0 0 17 16" fill="none" xmlns="http://www.w3.org/2000/svg">
<g id="01 align center">
<path id="Vector" d="M16.6664 15.0573L12.4917 10.8826C13.5761 9.55637 14.1093 7.86404 13.9809 6.15568C13.8526 4.44733 13.0725 2.85366 11.8021 1.70432C10.5317 0.554984 8.86809 -0.0620951 7.15545 -0.0192739C5.44282 0.0235473 3.81216 0.722992 2.60077 1.93439C1.38937 3.14578 0.689929 4.77644 0.647108 6.48907C0.604287 8.2017 1.22137 9.86528 2.37071 11.1357C3.52005 12.4061 5.11371 13.1862 6.82207 13.3145C8.53042 13.4429 10.2228 12.9097 11.549 11.8253L15.7237 16L16.6664 15.0573ZM7.33302 12C6.27819 12 5.24705 11.6872 4.36998 11.1011C3.49292 10.5151 2.80933 9.68216 2.40567 8.70762C2.002 7.73308 1.89638 6.66073 2.10217 5.62616C2.30796 4.5916 2.81591 3.64129 3.56179 2.89541C4.30767 2.14953 5.25798 1.64158 6.29254 1.43579C7.32711 1.23 8.39946 1.33562 9.374 1.73929C10.3485 2.14295 11.1815 2.82654 11.7675 3.7036C12.3536 4.58066 12.6664 5.61181 12.6664 6.66664C12.6648 8.08064 12.1024 9.43628 11.1025 10.4361C10.1027 11.436 8.74703 11.9984 7.33302 12Z" fill="#3A3A38"/>
</g>
</svg>
