<svg fill="none" height="16" viewBox="0 0 16 16" width="16" xmlns="http://www.w3.org/2000/svg">
    <g clip-path="url(#clip0_13_2240)">
        <path
            d="M15.514 6.27935C14.48 4.59535 12.128 1.77002 8.00003 1.77002C3.87203 1.77002 1.52003 4.59535 0.486034 6.27935C0.166386 6.79636 -0.00292969 7.39218 -0.00292969 8.00002C-0.00292969 8.60786 0.166386 9.20368 0.486034 9.72069C1.52003 11.4047 3.87203 14.23 8.00003 14.23C12.128 14.23 14.48 11.4047 15.514 9.72069C15.8337 9.20368 16.003 8.60786 16.003 8.00002C16.003 7.39218 15.8337 6.79636 15.514 6.27935ZM14.3774 9.02269C13.4894 10.4667 11.4794 12.8967 8.00003 12.8967C4.5207 12.8967 2.5107 10.4667 1.6227 9.02269C1.43279 8.71538 1.3322 8.36127 1.3322 8.00002C1.3322 7.63877 1.43279 7.28466 1.6227 6.97735C2.5107 5.53335 4.5207 3.10335 8.00003 3.10335C11.4794 3.10335 13.4894 5.53069 14.3774 6.97735C14.5673 7.28466 14.6679 7.63877 14.6679 8.00002C14.6679 8.36127 14.5673 8.71538 14.3774 9.02269Z"
            fill="#9DAEBB" />
        <path
            d="M7.99984 4.66663C7.34057 4.66663 6.6961 4.86212 6.14794 5.22839C5.59977 5.59467 5.17253 6.11526 4.92024 6.72435C4.66795 7.33344 4.60194 8.00366 4.73055 8.65026C4.85917 9.29686 5.17664 9.89081 5.64282 10.357C6.10899 10.8232 6.70293 11.1406 7.34954 11.2692C7.99614 11.3979 8.66636 11.3319 9.27545 11.0796C9.88454 10.8273 10.4051 10.4 10.7714 9.85186C11.1377 9.3037 11.3332 8.65923 11.3332 7.99996C11.3321 7.11623 10.9806 6.269 10.3557 5.64411C9.7308 5.01921 8.88357 4.66768 7.99984 4.66663ZM7.99984 9.99996C7.60428 9.99996 7.2176 9.88266 6.8887 9.6629C6.5598 9.44314 6.30345 9.13078 6.15208 8.76533C6.0007 8.39987 5.9611 7.99774 6.03827 7.60978C6.11544 7.22182 6.30592 6.86545 6.58562 6.58575C6.86533 6.30604 7.2217 6.11556 7.60966 6.03839C7.99762 5.96122 8.39975 6.00082 8.76521 6.1522C9.13066 6.30358 9.44302 6.55992 9.66278 6.88882C9.88254 7.21772 9.99984 7.6044 9.99984 7.99996C9.99984 8.53039 9.78913 9.0391 9.41405 9.41417C9.03898 9.78925 8.53027 9.99996 7.99984 9.99996Z"
            fill="#9DAEBB" />
    </g>
    <defs>
        <clipPath id="clip0_13_2240">
            <rect fill="white" height="16" width="16" />
        </clipPath>
    </defs>
</svg>
