<svg xmlns="http://www.w3.org/2000/svg" version="1.1" width="512" height="512" x="0" y="0"
    viewBox="0 0 490.327 490.327" style="enable-background:new 0 0 512 512" xml:space="preserve"><g><path d="M169.763 226.096c-22.979 0-41.606 18.618-41.606 41.606V389.05c0 22.97 18.627 41.607 41.606 41.607h6.197c22.979 0 41.606-18.628 41.606-41.606V267.702c0-22.979-18.628-41.606-41.606-41.606h-6.197zM306.144 430.657h6.196c22.979 0 41.606-18.628 41.606-41.606V198.355c0-22.969-18.628-41.606-41.606-41.606h-6.196c-22.979 0-41.606 18.628-41.606 41.606v190.696c-.001 22.969 18.627 41.606 41.606 41.606zM448.72 430.657c22.979 0 41.607-18.628 41.607-41.606V101.276c0-22.969-18.628-41.606-41.607-41.606h-6.205c-22.97 0-41.598 18.628-41.598 41.606V389.05c0 22.969 18.628 41.606 41.598 41.606h6.205v.001zM47.812 275.782h-6.197C18.637 275.782 0 294.41 0 317.389v71.661c0 22.97 18.637 41.607 41.616 41.607h6.197c22.969 0 41.606-18.628 41.606-41.606v-71.662c0-22.979-18.637-41.607-41.607-41.607z" fill="#000000" data-original="#000000"></path></g></svg>