<svg xmlns="http://www.w3.org/2000/svg" version="1.1" width="512" height="512" x="0" y="0"
    viewBox="0 0 24 24" style="enable-background:new 0 0 512 512" xml:space="preserve" class=""><g><path d="M16 1.22H8c-4.416 0-6.75 2.334-6.75 6.75v5c0 5.62 2.582 6.75 6.75 6.75h.497a.466.466 0 0 1 .204.1l1.5 2a2.167 2.167 0 0 0 3.6 0l1.5-2a.248.248 0 0 1 .2-.1h.498c4.416 0 6.75-2.334 6.75-6.75l.001-5c0-4.416-2.333-6.75-6.75-6.75zm5.25 11.75c0 3.582-1.669 5.25-5.25 5.25h-.5a1.757 1.757 0 0 0-1.399.7l-1.5 2a.692.692 0 0 1-1.201 0l-1.5-2a1.859 1.859 0 0 0-1.4-.7H8c-3.703 0-5.25-.73-5.25-5.25v-5c0-3.582 1.668-5.25 5.25-5.25h8c3.582 0 5.25 1.668 5.25 5.25zm-8.25-2a.997.997 0 0 1-.997 1h-.005a1 1 0 1 1 1.002-1zm4 0a.997.997 0 0 1-.997 1h-.005a1 1 0 1 1 1.002-1zm-8 0a.997.997 0 0 1-.997 1h-.005a1 1 0 1 1 1.002-1z" data-name="1" fill="#000000" data-original="#000000" class=""></path></g></svg>