<svg width="24" height="24" viewBox="0 0 24 24" fill="none" xmlns="http://www.w3.org/2000/svg">
    <path
        d="M20.73 14.3183C20.35 13.9183 19.72 13.8983 19.32 14.2683C18.92 14.6483 18.9 15.2783 19.27 15.6783L21.43 17.9983H14.84C13.96 17.9983 13.13 17.6183 12.56 16.9483L8.31 11.9983L12.56 7.04825C13.13 6.37825 13.96 5.99825 14.84 5.99825H21.43L19.27 8.31825C18.89 8.71825 18.92 9.35825 19.32 9.72825C19.51 9.90825 19.76 9.99825 20 9.99825C20.27 9.99825 20.53 9.88825 20.73 9.67825L23.12 7.11825C24.29 5.94825 24.29 4.04825 23.14 2.89825L20.73 0.318253C20.35 -0.0817473 19.72 -0.101747 19.32 0.268253C18.92 0.648253 18.9 1.27825 19.27 1.67825L21.43 3.99825H14.84C13.38 3.99825 11.99 4.63825 11.04 5.74825L6.54 10.9983H1C0.45 10.9983 0 11.4483 0 11.9983C0 12.5483 0.45 12.9983 1 12.9983H6.54L11.04 18.2483C11.99 19.3583 13.37 19.9983 14.84 19.9983H21.43L19.27 22.3183C18.89 22.7183 18.92 23.3583 19.32 23.7283C19.51 23.9083 19.76 23.9983 20 23.9983C20.27 23.9983 20.53 23.8883 20.73 23.6783L23.12 21.1183C24.29 19.9483 24.29 18.0483 23.14 16.8983L20.73 14.3083V14.3183Z"
        fill="black" />
</svg>
