<svg width="17" height="16" viewBox="0 0 17 16" fill="none" xmlns="http://www.w3.org/2000/svg">
    <g id="split 1" clip-path="url(#clip0_1441_6145)">
        <path id="Vector"
            d="M14.32 9.5468C14.0667 9.28014 13.6467 9.2668 13.38 9.51347C13.1133 9.7668 13.1 10.1868 13.3467 10.4535L14.7867 12.0001H10.3933C9.80667 12.0001 9.25333 11.7468 8.87333 11.3001L6.04 8.00014L8.87333 4.70014C9.25333 4.25347 9.80667 4.00014 10.3933 4.00014H14.7867L13.3467 5.5468C13.0933 5.81347 13.1133 6.24014 13.38 6.4868C13.5067 6.6068 13.6733 6.6668 13.8333 6.6668C14.0133 6.6668 14.1867 6.59347 14.32 6.45347L15.9133 4.7468C16.6933 3.9668 16.6933 2.70014 15.9267 1.93347L14.32 0.213471C14.0667 -0.0531961 13.6467 -0.0665294 13.38 0.180137C13.1133 0.433471 13.1 0.853471 13.3467 1.12014L14.7867 2.6668H10.3933C9.42 2.6668 8.49333 3.09347 7.86 3.83347L4.86 7.33347H1.16667C0.8 7.33347 0.5 7.63347 0.5 8.00014C0.5 8.3668 0.8 8.6668 1.16667 8.6668H4.86L7.86 12.1668C8.49333 12.9068 9.41333 13.3335 10.3933 13.3335H14.7867L13.3467 14.8801C13.0933 15.1468 13.1133 15.5735 13.38 15.8201C13.5067 15.9401 13.6733 16.0001 13.8333 16.0001C14.0133 16.0001 14.1867 15.9268 14.32 15.7868L15.9133 14.0801C16.6933 13.3001 16.6933 12.0335 15.9267 11.2668L14.32 9.54014V9.5468Z"
            fill="black" />
    </g>
    <defs>
        <clipPath id="clip0_1441_6145">
            <rect width="16" height="16" fill="white" transform="translate(0.5)" />
        </clipPath>
    </defs>
</svg>
