<svg width="11" height="11" viewBox="0 0 11 11" fill="none" xmlns="http://www.w3.org/2000/svg">
<g id="play 1" clip-path="url(#clip0_1730_3954)">
<g id="01 align center">
<path id="Vector" d="M9.13493 4.2715L3.00488 0.357971V10.3087L9.13244 6.38105C9.31081 6.26894 9.45785 6.11346 9.55986 5.92913C9.66186 5.7448 9.71549 5.53763 9.71574 5.32696C9.71598 5.11629 9.66284 4.90899 9.56128 4.72442C9.45971 4.53985 9.31303 4.38403 9.13493 4.2715ZM8.68715 5.67911L3.83618 8.7887V1.87462L8.69005 4.97344C8.7499 5.01087 8.79919 5.06296 8.83328 5.12477C8.86736 5.18659 8.88509 5.25608 8.8848 5.32667C8.88451 5.39725 8.8662 5.4666 8.83162 5.52813C8.79703 5.58966 8.7473 5.64134 8.68715 5.67828V5.67911Z" fill="#30815E"/>
</g>
</g>
<defs>
<clipPath id="clip0_1730_3954">
<rect width="9.9507" height="9.9507" fill="white" transform="translate(0.94043 0.350037)"/>
</clipPath>
</defs>
</svg>
